<svg width="205" height="21" viewBox="0 0 205 21" fill="none" xmlns="http://www.w3.org/2000/svg">
<path d="M9.32 18.24C7.48 18.24 5.872 17.904 4.496 17.232C3.136 16.56 2.08 15.624 1.328 14.424C0.576 13.208 0.2 11.784 0.2 10.152C0.2 8.792 0.44 7.528 0.92 6.36C1.416 5.176 2.112 4.144 3.008 3.264C3.904 2.384 4.96 1.704 6.176 1.224C7.408 0.727999 8.752 0.48 10.208 0.48C11.808 0.48 13.208 0.783999 14.408 1.392C15.624 2 16.568 2.848 17.24 3.936C17.928 5.008 18.272 6.248 18.272 7.656C18.272 8.568 18.136 9.432 17.864 10.248C17.608 11.048 17.248 11.76 16.784 12.384C16.32 12.992 15.784 13.472 15.176 13.824C14.568 14.176 13.92 14.352 13.232 14.352C12.736 14.352 12.304 14.24 11.936 14.016C11.584 13.776 11.352 13.424 11.24 12.96C11.128 12.496 11.176 11.936 11.384 11.28L11.48 12.144C11.064 12.848 10.544 13.392 9.92 13.776C9.312 14.16 8.656 14.352 7.952 14.352C6.88 14.352 6 13.976 5.312 13.224C4.64 12.456 4.304 11.464 4.304 10.248C4.304 9.432 4.432 8.664 4.688 7.944C4.944 7.224 5.296 6.592 5.744 6.048C6.208 5.504 6.736 5.08 7.328 4.776C7.92 4.456 8.552 4.296 9.224 4.296C10.184 4.296 10.952 4.568 11.528 5.112C12.12 5.656 12.408 6.392 12.392 7.32L12.104 7.296L12.776 4.728H14.672L12.992 11.256C12.848 11.816 12.832 12.232 12.944 12.504C13.072 12.776 13.32 12.912 13.688 12.912C14.072 12.912 14.44 12.776 14.792 12.504C15.144 12.216 15.464 11.832 15.752 11.352C16.04 10.872 16.264 10.328 16.424 9.72C16.6 9.112 16.688 8.472 16.688 7.8C16.688 6.632 16.416 5.616 15.872 4.752C15.328 3.872 14.56 3.192 13.568 2.712C12.592 2.216 11.456 1.968 10.16 1.968C8.928 1.968 7.8 2.176 6.776 2.592C5.752 3.008 4.864 3.592 4.112 4.344C3.376 5.08 2.8 5.944 2.384 6.936C1.984 7.912 1.784 8.968 1.784 10.104C1.784 11.448 2.08 12.616 2.672 13.608C3.264 14.6 4.112 15.376 5.216 15.936C6.336 16.48 7.688 16.752 9.272 16.752C10.152 16.752 11.024 16.656 11.888 16.464C12.768 16.256 13.576 15.968 14.312 15.6L14.912 16.896C14.224 17.296 13.384 17.624 12.392 17.88C11.416 18.12 10.392 18.24 9.32 18.24ZM8.576 12.744C8.992 12.744 9.384 12.632 9.752 12.408C10.136 12.184 10.472 11.88 10.76 11.496C11.048 11.096 11.272 10.648 11.432 10.152C11.608 9.64 11.696 9.112 11.696 8.568C11.696 7.768 11.48 7.128 11.048 6.648C10.632 6.152 10.072 5.904 9.368 5.904C8.952 5.904 8.552 6.008 8.168 6.216C7.8 6.424 7.472 6.72 7.184 7.104C6.896 7.472 6.672 7.912 6.512 8.424C6.352 8.92 6.272 9.456 6.272 10.032C6.272 10.864 6.48 11.528 6.896 12.024C7.328 12.504 7.888 12.744 8.576 12.744ZM28.8449 18.24C27.6609 18.24 26.5649 18.024 25.5569 17.592C24.5649 17.144 23.7009 16.528 22.9649 15.744C22.2289 14.944 21.6609 14.008 21.2609 12.936C20.8609 11.848 20.6609 10.656 20.6609 9.36C20.6609 8.064 20.8609 6.88 21.2609 5.808C21.6609 4.72 22.2209 3.784 22.9409 3C23.6769 2.2 24.5409 1.584 25.5329 1.152C26.5409 0.704 27.6369 0.48 28.8209 0.48C30.1169 0.48 31.2769 0.743999 32.3009 1.272C33.3409 1.8 34.1889 2.544 34.8449 3.504C35.5169 4.464 35.9329 5.584 36.0929 6.864H34.1249C33.9329 5.44 33.3649 4.32 32.4209 3.504C31.4929 2.672 30.3009 2.256 28.8449 2.256C27.6129 2.256 26.5329 2.56 25.6049 3.168C24.6769 3.76 23.9569 4.592 23.4449 5.664C22.9329 6.72 22.6769 7.952 22.6769 9.36C22.6769 10.768 22.9329 12.008 23.4449 13.08C23.9569 14.136 24.6769 14.968 25.6049 15.576C26.5329 16.168 27.6049 16.464 28.8209 16.464C30.3089 16.464 31.5249 16.048 32.4689 15.216C33.4289 14.384 33.9969 13.264 34.1729 11.856H36.1409C35.9809 13.136 35.5649 14.256 34.8929 15.216C34.2369 16.176 33.3889 16.92 32.3489 17.448C31.3249 17.976 30.1569 18.24 28.8449 18.24ZM39.17 18V0.719999H41.09V18H39.17ZM44.9356 18V5.76H46.8556V18H44.9356ZM44.7916 2.976V0.719999H46.9996V2.976H44.7916ZM55.5024 18.24C54.3824 18.24 53.3824 17.968 52.5024 17.424C51.6384 16.864 50.9504 16.104 50.4384 15.144C49.9424 14.168 49.6944 13.064 49.6944 11.832C49.6944 10.6 49.9424 9.512 50.4384 8.568C50.9504 7.624 51.6384 6.88 52.5024 6.336C53.3824 5.792 54.3744 5.52 55.4784 5.52C56.3904 5.52 57.2064 5.696 57.9264 6.048C58.6624 6.4 59.2624 6.904 59.7264 7.56C60.2064 8.2 60.5104 8.952 60.6384 9.816H58.8624C58.7024 9.032 58.3344 8.392 57.7584 7.896C57.1824 7.4 56.4384 7.152 55.5264 7.152C54.7424 7.152 54.0624 7.344 53.4864 7.728C52.9104 8.112 52.4624 8.656 52.1424 9.36C51.8224 10.064 51.6624 10.888 51.6624 11.832C51.6624 12.776 51.8224 13.608 52.1424 14.328C52.4624 15.048 52.9104 15.608 53.4864 16.008C54.0784 16.408 54.7664 16.608 55.5504 16.608C56.4304 16.608 57.1664 16.368 57.7584 15.888C58.3504 15.392 58.7264 14.752 58.8864 13.968H60.6624C60.5184 14.816 60.1984 15.568 59.7024 16.224C59.2224 16.864 58.6224 17.36 57.9024 17.712C57.1824 18.064 56.3824 18.24 55.5024 18.24ZM63.4513 18V0.24H65.3713V18H63.4513ZM71.4433 18L64.9393 11.64L71.2033 5.76H73.8433L66.8113 12.192L66.9313 11.064L74.0833 18H71.4433ZM73.9766 20.832V19.2H84.2006V20.832H73.9766ZM84.4499 18L91.1219 0.719999H92.8499L86.3459 18H84.4499ZM98.1779 18L91.6739 0.719999H93.5219L100.194 18H98.1779ZM87.7619 11.016H96.7859V12.744H87.7619V11.016ZM102.967 18V0.719999H104.887V18H102.967ZM113.629 18.216C112.269 18.216 111.277 17.912 110.653 17.304C110.045 16.68 109.741 15.784 109.741 14.616V2.904L111.661 2.184V14.592C111.661 15.28 111.837 15.784 112.189 16.104C112.541 16.424 113.117 16.584 113.917 16.584C114.237 16.584 114.509 16.568 114.733 16.536C114.973 16.488 115.165 16.432 115.309 16.368V18C115.149 18.064 114.917 18.112 114.613 18.144C114.325 18.192 113.997 18.216 113.629 18.216ZM107.221 7.392V5.76H115.309V7.392H107.221ZM122.538 18.24C121.37 18.24 120.338 17.968 119.442 17.424C118.546 16.864 117.842 16.104 117.33 15.144C116.818 14.184 116.562 13.08 116.562 11.832C116.562 10.584 116.81 9.488 117.306 8.544C117.818 7.584 118.53 6.84 119.442 6.312C120.354 5.784 121.402 5.52 122.586 5.52C123.722 5.52 124.706 5.768 125.538 6.264C126.386 6.76 127.034 7.456 127.482 8.352C127.946 9.248 128.178 10.304 128.178 11.52C128.178 11.68 128.17 11.832 128.154 11.976C128.154 12.12 128.138 12.28 128.106 12.456H118.002V10.848H126.93L126.306 11.736C126.306 10.264 125.978 9.136 125.322 8.352C124.682 7.552 123.77 7.152 122.586 7.152C121.37 7.152 120.386 7.576 119.634 8.424C118.898 9.256 118.53 10.384 118.53 11.808C118.53 13.264 118.898 14.432 119.634 15.312C120.386 16.176 121.386 16.608 122.634 16.608C123.418 16.608 124.106 16.44 124.698 16.104C125.29 15.752 125.722 15.256 125.994 14.616H127.818C127.418 15.736 126.746 16.624 125.802 17.28C124.874 17.92 123.786 18.24 122.538 18.24ZM131.068 18V5.76H132.868V8.88H132.988V18H131.068ZM132.988 11.616L132.676 8.712C132.964 7.672 133.476 6.88 134.212 6.336C134.948 5.792 135.796 5.52 136.756 5.52C137.156 5.52 137.428 5.552 137.572 5.616V7.464C137.492 7.432 137.38 7.416 137.236 7.416C137.092 7.4 136.916 7.392 136.708 7.392C135.492 7.392 134.564 7.76 133.924 8.496C133.3 9.216 132.988 10.256 132.988 11.616ZM140.068 18V5.76H141.868V8.64H141.988V18H140.068ZM148.828 18V9.984C148.828 9.056 148.596 8.36 148.132 7.896C147.668 7.432 146.98 7.2 146.068 7.2C145.268 7.2 144.556 7.376 143.932 7.728C143.324 8.08 142.844 8.568 142.492 9.192C142.156 9.816 141.988 10.544 141.988 11.376L141.676 8.472C142.092 7.56 142.724 6.84 143.572 6.312C144.436 5.784 145.412 5.52 146.5 5.52C147.78 5.52 148.804 5.888 149.572 6.624C150.356 7.344 150.748 8.296 150.748 9.48V18H148.828ZM161.877 18C161.813 17.728 161.765 17.416 161.733 17.064C161.717 16.712 161.709 16.264 161.709 15.72H161.589V9.864C161.589 8.936 161.373 8.256 160.941 7.824C160.525 7.376 159.845 7.152 158.901 7.152C157.973 7.152 157.229 7.344 156.669 7.728C156.125 8.096 155.821 8.624 155.757 9.312H153.909C153.989 8.128 154.485 7.2 155.397 6.528C156.309 5.856 157.501 5.52 158.973 5.52C160.493 5.52 161.621 5.88 162.357 6.6C163.093 7.32 163.461 8.4 163.461 9.84V15.72C163.461 16.072 163.485 16.44 163.533 16.824C163.581 17.192 163.645 17.584 163.725 18H161.877ZM157.677 18.24C156.413 18.24 155.405 17.936 154.653 17.328C153.917 16.704 153.549 15.856 153.549 14.784C153.549 13.712 153.917 12.88 154.653 12.288C155.389 11.696 156.461 11.28 157.869 11.04L162.141 10.32V11.904L158.157 12.528C157.261 12.672 156.581 12.912 156.117 13.248C155.653 13.584 155.421 14.072 155.421 14.712C155.421 15.336 155.629 15.808 156.045 16.128C156.477 16.448 157.109 16.608 157.941 16.608C159.013 16.608 159.885 16.368 160.557 15.888C161.245 15.392 161.589 14.752 161.589 13.968L161.901 15.672C161.645 16.488 161.141 17.12 160.389 17.568C159.653 18.016 158.749 18.24 157.677 18.24ZM171.73 18.216C170.37 18.216 169.378 17.912 168.754 17.304C168.146 16.68 167.842 15.784 167.842 14.616V2.904L169.762 2.184V14.592C169.762 15.28 169.938 15.784 170.29 16.104C170.642 16.424 171.218 16.584 172.018 16.584C172.338 16.584 172.61 16.568 172.834 16.536C173.074 16.488 173.266 16.432 173.41 16.368V18C173.25 18.064 173.018 18.112 172.714 18.144C172.426 18.192 172.098 18.216 171.73 18.216ZM165.322 7.392V5.76H173.41V7.392H165.322ZM175.881 18V5.76H177.801V18H175.881ZM175.737 2.976V0.719999H177.945V2.976H175.737ZM185.059 18L179.995 5.76H182.059L186.283 16.704H185.515L189.715 5.76H191.682L186.618 18H185.059ZM198.828 18.24C197.628 18.24 196.572 17.96 195.66 17.4C194.748 16.84 194.036 16.08 193.524 15.12C193.028 14.144 192.78 13.048 192.78 11.832C192.78 10.6 193.036 9.512 193.548 8.568C194.06 7.624 194.764 6.88 195.66 6.336C196.572 5.792 197.628 5.52 198.828 5.52C200.044 5.52 201.1 5.792 201.996 6.336C202.908 6.88 203.612 7.624 204.108 8.568C204.62 9.512 204.876 10.6 204.876 11.832C204.876 13.048 204.62 14.144 204.108 15.12C203.612 16.08 202.908 16.84 201.996 17.4C201.1 17.96 200.044 18.24 198.828 18.24ZM198.828 16.608C199.66 16.608 200.38 16.408 200.988 16.008C201.596 15.592 202.068 15.024 202.404 14.304C202.74 13.584 202.908 12.752 202.908 11.808C202.908 10.4 202.532 9.272 201.78 8.424C201.044 7.576 200.06 7.152 198.828 7.152C197.612 7.152 196.628 7.576 195.876 8.424C195.124 9.272 194.748 10.4 194.748 11.808C194.748 12.752 194.916 13.584 195.252 14.304C195.588 15.024 196.06 15.592 196.668 16.008C197.292 16.408 198.012 16.608 198.828 16.608Z" fill="#020202"/>
</svg>
