<svg width="300" height="75" viewBox="0 0 300 75" fill="none" xmlns="http://www.w3.org/2000/svg">
<rect width="300" height="75" fill="#1E1E1E"/>
<path d="M103.418 55.3125C101.868 55.3125 100.456 55.013 99.1797 54.4141C97.9036 53.8151 96.888 52.9297 96.1328 51.7578C95.3906 50.5729 95.0195 49.1211 95.0195 47.4023V38.7891H101.816V46.9922C101.816 47.5911 101.934 48.0729 102.168 48.4375C102.415 48.8021 102.806 48.9844 103.34 48.9844C104.368 48.9844 104.883 48.3529 104.883 47.0898V20.625H111.816V46.4062C111.816 48.2292 111.458 49.8112 110.742 51.1523C110.026 52.4805 109.036 53.5091 107.773 54.2383C106.51 54.9544 105.059 55.3125 103.418 55.3125ZM122.422 55.3125C119.557 55.3125 117.448 54.5117 116.094 52.9102C114.74 51.2956 114.062 48.9258 114.062 45.8008V20.625H120.742V45.5273C120.742 46.1003 120.775 46.6536 120.84 47.1875C120.905 47.7083 121.055 48.138 121.289 48.4766C121.523 48.8151 121.901 48.9844 122.422 48.9844C122.956 48.9844 123.34 48.8216 123.574 48.4961C123.809 48.1576 123.952 47.7214 124.004 47.1875C124.069 46.6536 124.102 46.1003 124.102 45.5273V20.625H130.781V45.8008C130.781 48.9258 130.104 51.2956 128.75 52.9102C127.396 54.5117 125.286 55.3125 122.422 55.3125ZM133.418 55V20.625H147.168V27.2656H140.41V33.9648H146.895V40.4297H140.41V48.3008H147.617V55H133.418ZM156.992 55.3125C152.083 55.3125 149.629 51.7969 149.629 44.7656V29.9414C149.629 23.5221 152.441 20.3125 158.066 20.3125C160.384 20.3125 162.161 20.7812 163.398 21.7188C164.635 22.6432 165.488 23.9974 165.957 25.7812C166.426 27.5651 166.66 29.7396 166.66 32.3047H159.941V29.2578C159.941 28.5156 159.837 27.8971 159.629 27.4023C159.434 26.8945 159.017 26.6406 158.379 26.6406C157.585 26.6406 157.057 26.9076 156.797 27.4414C156.549 27.9753 156.426 28.5612 156.426 29.1992V45.8594C156.426 46.7839 156.543 47.5391 156.777 48.125C157.025 48.6979 157.5 48.9844 158.203 48.9844C158.932 48.9844 159.414 48.6979 159.648 48.125C159.896 47.5391 160.02 46.7708 160.02 45.8203V40.918H158.184V34.9805H166.582V55H163.828L162.656 52.1094C161.458 54.2448 159.57 55.3125 156.992 55.3125ZM177.52 55.3125C174.772 55.3125 172.669 54.4857 171.211 52.832C169.766 51.1654 169.043 48.763 169.043 45.625V29.2969C169.043 26.3542 169.759 24.1211 171.191 22.5977C172.637 21.0742 174.746 20.3125 177.52 20.3125C180.293 20.3125 182.396 21.0742 183.828 22.5977C185.273 24.1211 185.996 26.3542 185.996 29.2969V45.625C185.996 48.763 185.267 51.1654 183.809 52.832C182.363 54.4857 180.267 55.3125 177.52 55.3125ZM177.578 48.9844C178.62 48.9844 179.141 47.9753 179.141 45.957V29.1797C179.141 27.487 178.633 26.6406 177.617 26.6406C176.471 26.6406 175.898 27.5065 175.898 29.2383V45.9961C175.898 47.0638 176.029 47.832 176.289 48.3008C176.549 48.7565 176.979 48.9844 177.578 48.9844ZM196.934 55.3125C193.796 55.3125 191.53 54.5312 190.137 52.9688C188.757 51.4062 188.066 48.9193 188.066 45.5078V42.1484H194.863V46.4453C194.863 47.2396 194.98 47.8646 195.215 48.3203C195.462 48.763 195.885 48.9844 196.484 48.9844C197.109 48.9844 197.539 48.8021 197.773 48.4375C198.021 48.0729 198.145 47.474 198.145 46.6406C198.145 45.5859 198.04 44.707 197.832 44.0039C197.624 43.2878 197.259 42.6107 196.738 41.9727C196.23 41.3216 195.521 40.5664 194.609 39.707L191.523 36.7773C189.219 34.6029 188.066 32.1159 188.066 29.3164C188.066 26.3867 188.743 24.1536 190.098 22.6172C191.465 21.0807 193.438 20.3125 196.016 20.3125C199.167 20.3125 201.4 21.1523 202.715 22.832C204.043 24.5117 204.707 27.0638 204.707 30.4883H197.715V28.125C197.715 27.6562 197.578 27.2917 197.305 27.0312C197.044 26.7708 196.686 26.6406 196.23 26.6406C195.684 26.6406 195.28 26.7969 195.02 27.1094C194.772 27.4089 194.648 27.7995 194.648 28.2812C194.648 28.763 194.779 29.2839 195.039 29.8438C195.299 30.4036 195.814 31.0482 196.582 31.7773L200.547 35.5859C201.341 36.3411 202.07 37.1419 202.734 37.9883C203.398 38.8216 203.932 39.7982 204.336 40.918C204.74 42.0247 204.941 43.3789 204.941 44.9805C204.941 48.2096 204.342 50.7422 203.145 52.5781C201.96 54.401 199.889 55.3125 196.934 55.3125Z" fill="#6DBF58"/>
</svg>
