<svg width="300" height="75" viewBox="0 0 300 75" fill="none" xmlns="http://www.w3.org/2000/svg">
<rect width="300" height="75" fill="#1E1E1E"/>
<path d="M85.9258 55V20.625H92.9961L96.1602 37.0898V20.625H102.801V55H96.082L92.6445 37.8125V55H85.9258ZM114.051 55.3125C111.303 55.3125 109.201 54.4857 107.742 52.832C106.297 51.1654 105.574 48.763 105.574 45.625V29.2969C105.574 26.3542 106.29 24.1211 107.723 22.5977C109.168 21.0742 111.277 20.3125 114.051 20.3125C116.824 20.3125 118.927 21.0742 120.359 22.5977C121.805 24.1211 122.527 26.3542 122.527 29.2969V45.625C122.527 48.763 121.798 51.1654 120.34 52.832C118.895 54.4857 116.798 55.3125 114.051 55.3125ZM114.109 48.9844C115.151 48.9844 115.672 47.9753 115.672 45.957V29.1797C115.672 27.487 115.164 26.6406 114.148 26.6406C113.003 26.6406 112.43 27.5065 112.43 29.2383V45.9961C112.43 47.0638 112.56 47.832 112.82 48.3008C113.081 48.7565 113.51 48.9844 114.109 48.9844ZM128.25 55V27.2266H124.168V20.625H139.207V27.2266H135.125V55H128.25ZM140.809 55V20.625H147.449V55H140.809ZM158.191 55.3125C155.704 55.3125 153.699 54.5378 152.176 52.9883C150.665 51.4388 149.91 49.2708 149.91 46.4844V30.625C149.91 27.2917 150.568 24.7396 151.883 22.9688C153.211 21.1979 155.366 20.3125 158.348 20.3125C159.975 20.3125 161.421 20.612 162.684 21.2109C163.96 21.8099 164.962 22.7083 165.691 23.9062C166.421 25.0911 166.785 26.5885 166.785 28.3984V34.3359H159.949V29.2578C159.949 28.2292 159.819 27.5391 159.559 27.1875C159.298 26.8229 158.895 26.6406 158.348 26.6406C157.71 26.6406 157.28 26.875 157.059 27.3438C156.837 27.7995 156.727 28.4115 156.727 29.1797V46.3867C156.727 47.3372 156.863 48.0078 157.137 48.3984C157.423 48.7891 157.827 48.9844 158.348 48.9844C158.934 48.9844 159.344 48.7435 159.578 48.2617C159.826 47.7799 159.949 47.1549 159.949 46.3867V40.1953H166.863V46.6992C166.863 49.7201 166.102 51.9141 164.578 53.2812C163.055 54.6354 160.926 55.3125 158.191 55.3125ZM168.855 55V20.625H175.496V55H168.855ZM177.293 55L180.613 20.625H192.273L195.535 55H189.031L188.543 49.4531H184.402L183.973 55H177.293ZM184.891 43.9648H188.016L186.512 26.4844H186.199L184.891 43.9648ZM205.809 55.3125C202.671 55.3125 200.405 54.5312 199.012 52.9688C197.632 51.4062 196.941 48.9193 196.941 45.5078V42.1484H203.738V46.4453C203.738 47.2396 203.855 47.8646 204.09 48.3203C204.337 48.763 204.76 48.9844 205.359 48.9844C205.984 48.9844 206.414 48.8021 206.648 48.4375C206.896 48.0729 207.02 47.474 207.02 46.6406C207.02 45.5859 206.915 44.707 206.707 44.0039C206.499 43.2878 206.134 42.6107 205.613 41.9727C205.105 41.3216 204.396 40.5664 203.484 39.707L200.398 36.7773C198.094 34.6029 196.941 32.1159 196.941 29.3164C196.941 26.3867 197.618 24.1536 198.973 22.6172C200.34 21.0807 202.312 20.3125 204.891 20.3125C208.042 20.3125 210.275 21.1523 211.59 22.832C212.918 24.5117 213.582 27.0638 213.582 30.4883H206.59V28.125C206.59 27.6562 206.453 27.2917 206.18 27.0312C205.919 26.7708 205.561 26.6406 205.105 26.6406C204.559 26.6406 204.155 26.7969 203.895 27.1094C203.647 27.4089 203.523 27.7995 203.523 28.2812C203.523 28.763 203.654 29.2839 203.914 29.8438C204.174 30.4036 204.689 31.0482 205.457 31.7773L209.422 35.5859C210.216 36.3411 210.945 37.1419 211.609 37.9883C212.273 38.8216 212.807 39.7982 213.211 40.918C213.615 42.0247 213.816 43.3789 213.816 44.9805C213.816 48.2096 213.217 50.7422 212.02 52.5781C210.835 54.401 208.764 55.3125 205.809 55.3125Z" fill="#6DBF58"/>
</svg>
