<svg width="300" height="75" viewBox="0 0 300 75" fill="none" xmlns="http://www.w3.org/2000/svg">
<rect width="300" height="75" fill="#1E1E1E"/>
<path d="M116.746 55V27.2266H112.664V20.625H127.703V27.2266H123.621V55H116.746ZM137.82 55.3125C135.073 55.3125 132.97 54.4857 131.512 52.832C130.066 51.1654 129.344 48.763 129.344 45.625V29.2969C129.344 26.3542 130.06 24.1211 131.492 22.5977C132.938 21.0742 135.047 20.3125 137.82 20.3125C140.594 20.3125 142.697 21.0742 144.129 22.5977C145.574 24.1211 146.297 26.3542 146.297 29.2969V45.625C146.297 48.763 145.568 51.1654 144.109 52.832C142.664 54.4857 140.568 55.3125 137.82 55.3125ZM137.879 48.9844C138.921 48.9844 139.441 47.9753 139.441 45.957V29.1797C139.441 27.487 138.934 26.6406 137.918 26.6406C136.772 26.6406 136.199 27.5065 136.199 29.2383V45.9961C136.199 47.0638 136.329 47.832 136.59 48.3008C136.85 48.7565 137.28 48.9844 137.879 48.9844ZM149.07 55V20.625H158.523C160.997 20.625 162.859 21.3151 164.109 22.6953C165.359 24.0625 165.984 26.0677 165.984 28.7109V44.8047C165.984 48.0599 165.411 50.5729 164.266 52.3438C163.133 54.1146 161.141 55 158.289 55H149.07ZM155.984 48.9258H157.176C158.439 48.9258 159.07 48.3138 159.07 47.0898V29.3555C159.07 28.2096 158.914 27.474 158.602 27.1484C158.302 26.8099 157.684 26.6406 156.746 26.6406H155.984V48.9258ZM177 55.3125C174.253 55.3125 172.15 54.4857 170.691 52.832C169.246 51.1654 168.523 48.763 168.523 45.625V29.2969C168.523 26.3542 169.24 24.1211 170.672 22.5977C172.117 21.0742 174.227 20.3125 177 20.3125C179.773 20.3125 181.876 21.0742 183.309 22.5977C184.754 24.1211 185.477 26.3542 185.477 29.2969V45.625C185.477 48.763 184.747 51.1654 183.289 52.832C181.844 54.4857 179.747 55.3125 177 55.3125ZM177.059 48.9844C178.1 48.9844 178.621 47.9753 178.621 45.957V29.1797C178.621 27.487 178.113 26.6406 177.098 26.6406C175.952 26.6406 175.379 27.5065 175.379 29.2383V45.9961C175.379 47.0638 175.509 47.832 175.77 48.3008C176.03 48.7565 176.46 48.9844 177.059 48.9844Z" fill="#6DBF58"/>
</svg>
