<svg width="300" height="75" viewBox="0 0 300 75" fill="none" xmlns="http://www.w3.org/2000/svg">
<rect width="300" height="75" fill="#1E1E1E"/>
<path d="M112.93 55L108.691 20.6055H115.234L117.754 44.0039L120 20.6055H126.543L122.305 55H112.93ZM128.242 55V20.625H134.883V55H128.242ZM137.617 55V20.625H147.07C149.544 20.625 151.406 21.3151 152.656 22.6953C153.906 24.0625 154.531 26.0677 154.531 28.7109V44.8047C154.531 48.0599 153.958 50.5729 152.812 52.3438C151.68 54.1146 149.688 55 146.836 55H137.617ZM144.531 48.9258H145.723C146.986 48.9258 147.617 48.3138 147.617 47.0898V29.3555C147.617 28.2096 147.461 27.474 147.148 27.1484C146.849 26.8099 146.23 26.6406 145.293 26.6406H144.531V48.9258ZM157.344 55V20.625H171.094V27.2656H164.336V33.9648H170.82V40.4297H164.336V48.3008H171.543V55H157.344ZM182.031 55.3125C179.284 55.3125 177.181 54.4857 175.723 52.832C174.277 51.1654 173.555 48.763 173.555 45.625V29.2969C173.555 26.3542 174.271 24.1211 175.703 22.5977C177.148 21.0742 179.258 20.3125 182.031 20.3125C184.805 20.3125 186.908 21.0742 188.34 22.5977C189.785 24.1211 190.508 26.3542 190.508 29.2969V45.625C190.508 48.763 189.779 51.1654 188.32 52.832C186.875 54.4857 184.779 55.3125 182.031 55.3125ZM182.09 48.9844C183.132 48.9844 183.652 47.9753 183.652 45.957V29.1797C183.652 27.487 183.145 26.6406 182.129 26.6406C180.983 26.6406 180.41 27.5065 180.41 29.2383V45.9961C180.41 47.0638 180.54 47.832 180.801 48.3008C181.061 48.7565 181.491 48.9844 182.09 48.9844Z" fill="#6DBF58"/>
</svg>
