<svg width="300" height="75" viewBox="0 0 300 75" fill="none" xmlns="http://www.w3.org/2000/svg">
<rect width="300" height="75" fill="#1E1E1E"/>
<path d="M89.0117 55V20.625H98.0938C99.9948 20.625 101.499 21.0482 102.605 21.8945C103.725 22.7409 104.526 23.9453 105.008 25.5078C105.49 27.0703 105.73 28.9323 105.73 31.0938C105.73 33.1771 105.529 34.9935 105.125 36.543C104.721 38.0794 103.999 39.2708 102.957 40.1172C101.928 40.9635 100.464 41.3867 98.5625 41.3867H95.7695V55H89.0117ZM95.7695 35.2148H96.1602C97.4362 35.2148 98.2174 34.8568 98.5039 34.1406C98.7904 33.4245 98.9336 32.3698 98.9336 30.9766C98.9336 29.6745 98.7904 28.6719 98.5039 27.9688C98.2305 27.2526 97.5729 26.8945 96.5312 26.8945H95.7695V35.2148ZM106.395 55L109.715 20.625H121.375L124.637 55H118.133L117.645 49.4531H113.504L113.074 55H106.395ZM113.992 43.9648H117.117L115.613 26.4844H115.301L113.992 43.9648ZM133.836 55.3125C128.927 55.3125 126.473 51.7969 126.473 44.7656V29.9414C126.473 23.5221 129.285 20.3125 134.91 20.3125C137.228 20.3125 139.005 20.7812 140.242 21.7188C141.479 22.6432 142.332 23.9974 142.801 25.7812C143.27 27.5651 143.504 29.7396 143.504 32.3047H136.785V29.2578C136.785 28.5156 136.681 27.8971 136.473 27.4023C136.277 26.8945 135.861 26.6406 135.223 26.6406C134.428 26.6406 133.901 26.9076 133.641 27.4414C133.393 27.9753 133.27 28.5612 133.27 29.1992V45.8594C133.27 46.7839 133.387 47.5391 133.621 48.125C133.868 48.6979 134.344 48.9844 135.047 48.9844C135.776 48.9844 136.258 48.6979 136.492 48.125C136.74 47.5391 136.863 46.7708 136.863 45.8203V40.918H135.027V34.9805H143.426V55H140.672L139.5 52.1094C138.302 54.2448 136.414 55.3125 133.836 55.3125ZM145.848 55V20.625H152.488V55H145.848ZM144.52 19.5898V15.2344L153.797 10.9766V17.7539L144.52 19.5898ZM155.223 55V20.625H162.293L165.457 37.0898V20.625H172.098V55H165.379L161.941 37.8125V55H155.223ZM174.207 55L177.527 20.625H189.188L192.449 55H185.945L185.457 49.4531H181.316L180.887 55H174.207ZM181.805 43.9648H184.93L183.426 26.4844H183.113L181.805 43.9648ZM202.723 55.3125C199.585 55.3125 197.319 54.5312 195.926 52.9688C194.546 51.4062 193.855 48.9193 193.855 45.5078V42.1484H200.652V46.4453C200.652 47.2396 200.77 47.8646 201.004 48.3203C201.251 48.763 201.674 48.9844 202.273 48.9844C202.898 48.9844 203.328 48.8021 203.562 48.4375C203.81 48.0729 203.934 47.474 203.934 46.6406C203.934 45.5859 203.829 44.707 203.621 44.0039C203.413 43.2878 203.048 42.6107 202.527 41.9727C202.02 41.3216 201.31 40.5664 200.398 39.707L197.312 36.7773C195.008 34.6029 193.855 32.1159 193.855 29.3164C193.855 26.3867 194.533 24.1536 195.887 22.6172C197.254 21.0807 199.227 20.3125 201.805 20.3125C204.956 20.3125 207.189 21.1523 208.504 22.832C209.832 24.5117 210.496 27.0638 210.496 30.4883H203.504V28.125C203.504 27.6562 203.367 27.2917 203.094 27.0312C202.833 26.7708 202.475 26.6406 202.02 26.6406C201.473 26.6406 201.069 26.7969 200.809 27.1094C200.561 27.4089 200.438 27.7995 200.438 28.2812C200.438 28.763 200.568 29.2839 200.828 29.8438C201.089 30.4036 201.603 31.0482 202.371 31.7773L206.336 35.5859C207.13 36.3411 207.859 37.1419 208.523 37.9883C209.188 38.8216 209.721 39.7982 210.125 40.918C210.529 42.0247 210.73 43.3789 210.73 44.9805C210.73 48.2096 210.132 50.7422 208.934 52.5781C207.749 54.401 205.678 55.3125 202.723 55.3125Z" fill="#6DBF58"/>
</svg>
