<svg width="300" height="75" viewBox="0 0 300 75" fill="none" xmlns="http://www.w3.org/2000/svg">
<rect width="300" height="75" fill="#1E1E1E"/>
<path d="M85.8594 55.3125C83.3724 55.3125 81.3672 54.5378 79.8438 52.9883C78.3333 51.4388 77.5781 49.2708 77.5781 46.4844V30.625C77.5781 27.2917 78.2357 24.7396 79.5508 22.9688C80.8789 21.1979 83.0339 20.3125 86.0156 20.3125C87.6432 20.3125 89.0885 20.612 90.3516 21.2109C91.6276 21.8099 92.6302 22.7083 93.3594 23.9062C94.0885 25.0911 94.4531 26.5885 94.4531 28.3984V34.3359H87.6172V29.2578C87.6172 28.2292 87.487 27.5391 87.2266 27.1875C86.9661 26.8229 86.5625 26.6406 86.0156 26.6406C85.3776 26.6406 84.9479 26.875 84.7266 27.3438C84.5052 27.7995 84.3945 28.4115 84.3945 29.1797V46.3867C84.3945 47.3372 84.5312 48.0078 84.8047 48.3984C85.0911 48.7891 85.4948 48.9844 86.0156 48.9844C86.6016 48.9844 87.0117 48.7435 87.2461 48.2617C87.4935 47.7799 87.6172 47.1549 87.6172 46.3867V40.1953H94.5312V46.6992C94.5312 49.7201 93.7695 51.9141 92.2461 53.2812C90.7227 54.6354 88.5938 55.3125 85.8594 55.3125ZM105.039 55.3125C102.292 55.3125 100.189 54.4857 98.7305 52.832C97.2852 51.1654 96.5625 48.763 96.5625 45.625V29.2969C96.5625 26.3542 97.2786 24.1211 98.7109 22.5977C100.156 21.0742 102.266 20.3125 105.039 20.3125C107.812 20.3125 109.915 21.0742 111.348 22.5977C112.793 24.1211 113.516 26.3542 113.516 29.2969V45.625C113.516 48.763 112.786 51.1654 111.328 52.832C109.883 54.4857 107.786 55.3125 105.039 55.3125ZM105.098 48.9844C106.139 48.9844 106.66 47.9753 106.66 45.957V29.1797C106.66 27.487 106.152 26.6406 105.137 26.6406C103.991 26.6406 103.418 27.5065 103.418 29.2383V45.9961C103.418 47.0638 103.548 47.832 103.809 48.3008C104.069 48.7565 104.499 48.9844 105.098 48.9844ZM116.289 55V20.625H123.359L126.523 37.0898V20.625H133.164V55H126.445L123.008 37.8125V55H116.289ZM139.16 55V27.2266H135.078V20.625H150.117V27.2266H146.035V55H139.16ZM150.586 55L153.906 20.625H165.566L168.828 55H162.324L161.836 49.4531H157.695L157.266 55H150.586ZM158.184 43.9648H161.309L159.805 26.4844H159.492L158.184 43.9648ZM178.945 55.3125C176.458 55.3125 174.453 54.5378 172.93 52.9883C171.419 51.4388 170.664 49.2708 170.664 46.4844V30.625C170.664 27.2917 171.322 24.7396 172.637 22.9688C173.965 21.1979 176.12 20.3125 179.102 20.3125C180.729 20.3125 182.174 20.612 183.438 21.2109C184.714 21.8099 185.716 22.7083 186.445 23.9062C187.174 25.0911 187.539 26.5885 187.539 28.3984V34.3359H180.703V29.2578C180.703 28.2292 180.573 27.5391 180.312 27.1875C180.052 26.8229 179.648 26.6406 179.102 26.6406C178.464 26.6406 178.034 26.875 177.812 27.3438C177.591 27.7995 177.48 28.4115 177.48 29.1797V46.3867C177.48 47.3372 177.617 48.0078 177.891 48.3984C178.177 48.7891 178.581 48.9844 179.102 48.9844C179.688 48.9844 180.098 48.7435 180.332 48.2617C180.579 47.7799 180.703 47.1549 180.703 46.3867V40.1953H187.617V46.6992C187.617 49.7201 186.855 51.9141 185.332 53.2812C183.809 54.6354 181.68 55.3125 178.945 55.3125ZM192.871 55V27.2266H188.789V20.625H203.828V27.2266H199.746V55H192.871ZM213.945 55.3125C211.198 55.3125 209.095 54.4857 207.637 52.832C206.191 51.1654 205.469 48.763 205.469 45.625V29.2969C205.469 26.3542 206.185 24.1211 207.617 22.5977C209.062 21.0742 211.172 20.3125 213.945 20.3125C216.719 20.3125 218.822 21.0742 220.254 22.5977C221.699 24.1211 222.422 26.3542 222.422 29.2969V45.625C222.422 48.763 221.693 51.1654 220.234 52.832C218.789 54.4857 216.693 55.3125 213.945 55.3125ZM214.004 48.9844C215.046 48.9844 215.566 47.9753 215.566 45.957V29.1797C215.566 27.487 215.059 26.6406 214.043 26.6406C212.897 26.6406 212.324 27.5065 212.324 29.2383V45.9961C212.324 47.0638 212.454 47.832 212.715 48.3008C212.975 48.7565 213.405 48.9844 214.004 48.9844Z" fill="#6DBF58"/>
</svg>
