<svg width="300" height="75" viewBox="0 0 300 75" fill="none" xmlns="http://www.w3.org/2000/svg">
<rect width="300" height="75" fill="#1E1E1E"/>
<path d="M93.6602 55V20.625H104.129L107.02 41.582L109.891 20.625H120.457V55H114.168V30.2344L110.223 55H104.051L99.8711 30.2344V55H93.6602ZM131.453 55.3125C128.589 55.3125 126.479 54.5117 125.125 52.9102C123.771 51.2956 123.094 48.9258 123.094 45.8008V20.625H129.773V45.5273C129.773 46.1003 129.806 46.6536 129.871 47.1875C129.936 47.7083 130.086 48.138 130.32 48.4766C130.555 48.8151 130.932 48.9844 131.453 48.9844C131.987 48.9844 132.371 48.8216 132.605 48.4961C132.84 48.1576 132.983 47.7214 133.035 47.1875C133.1 46.6536 133.133 46.1003 133.133 45.5273V20.625H139.812V45.8008C139.812 48.9258 139.135 51.2956 137.781 52.9102C136.427 54.5117 134.318 55.3125 131.453 55.3125ZM126.805 19.5898V15.2344L136.082 10.9766V17.7539L126.805 19.5898ZM150.613 55.3125C147.475 55.3125 145.21 54.5312 143.816 52.9688C142.436 51.4062 141.746 48.9193 141.746 45.5078V42.1484H148.543V46.4453C148.543 47.2396 148.66 47.8646 148.895 48.3203C149.142 48.763 149.565 48.9844 150.164 48.9844C150.789 48.9844 151.219 48.8021 151.453 48.4375C151.701 48.0729 151.824 47.474 151.824 46.6406C151.824 45.5859 151.72 44.707 151.512 44.0039C151.303 43.2878 150.939 42.6107 150.418 41.9727C149.91 41.3216 149.201 40.5664 148.289 39.707L145.203 36.7773C142.898 34.6029 141.746 32.1159 141.746 29.3164C141.746 26.3867 142.423 24.1536 143.777 22.6172C145.145 21.0807 147.117 20.3125 149.695 20.3125C152.846 20.3125 155.079 21.1523 156.395 22.832C157.723 24.5117 158.387 27.0638 158.387 30.4883H151.395V28.125C151.395 27.6562 151.258 27.2917 150.984 27.0312C150.724 26.7708 150.366 26.6406 149.91 26.6406C149.363 26.6406 148.96 26.7969 148.699 27.1094C148.452 27.4089 148.328 27.7995 148.328 28.2812C148.328 28.763 148.458 29.2839 148.719 29.8438C148.979 30.4036 149.493 31.0482 150.262 31.7773L154.227 35.5859C155.021 36.3411 155.75 37.1419 156.414 37.9883C157.078 38.8216 157.612 39.7982 158.016 40.918C158.419 42.0247 158.621 43.3789 158.621 44.9805C158.621 48.2096 158.022 50.7422 156.824 52.5781C155.639 54.401 153.569 55.3125 150.613 55.3125ZM160.613 55V20.625H167.254V55H160.613ZM177.996 55.3125C175.509 55.3125 173.504 54.5378 171.98 52.9883C170.47 51.4388 169.715 49.2708 169.715 46.4844V30.625C169.715 27.2917 170.372 24.7396 171.688 22.9688C173.016 21.1979 175.171 20.3125 178.152 20.3125C179.78 20.3125 181.225 20.612 182.488 21.2109C183.764 21.8099 184.767 22.7083 185.496 23.9062C186.225 25.0911 186.59 26.5885 186.59 28.3984V34.3359H179.754V29.2578C179.754 28.2292 179.624 27.5391 179.363 27.1875C179.103 26.8229 178.699 26.6406 178.152 26.6406C177.514 26.6406 177.085 26.875 176.863 27.3438C176.642 27.7995 176.531 28.4115 176.531 29.1797V46.3867C176.531 47.3372 176.668 48.0078 176.941 48.3984C177.228 48.7891 177.632 48.9844 178.152 48.9844C178.738 48.9844 179.148 48.7435 179.383 48.2617C179.63 47.7799 179.754 47.1549 179.754 46.3867V40.1953H186.668V46.6992C186.668 49.7201 185.906 51.9141 184.383 53.2812C182.859 54.6354 180.73 55.3125 177.996 55.3125ZM188.035 55L191.355 20.625H203.016L206.277 55H199.773L199.285 49.4531H195.145L194.715 55H188.035ZM195.633 43.9648H198.758L197.254 26.4844H196.941L195.633 43.9648Z" fill="#6DBF58"/>
</svg>
