<svg width="148" height="65" viewBox="0 0 148 65" fill="none" xmlns="http://www.w3.org/2000/svg">
<circle cx="32.5" cy="32.5" r="32.5" fill="#1E1E1E"/>
<path d="M41.1666 23.8333H41.1833M23.6666 16.3333H40.3333C44.9357 16.3333 48.6666 20.0642 48.6666 24.6666V41.3333C48.6666 45.9356 44.9357 49.6666 40.3333 49.6666H23.6666C19.0643 49.6666 15.3333 45.9356 15.3333 41.3333V24.6666C15.3333 20.0642 19.0643 16.3333 23.6666 16.3333ZM38.6666 31.9499C38.8723 33.337 38.6354 34.7536 37.9896 35.9983C37.3437 37.2429 36.3219 38.2523 35.0694 38.8827C33.8168 39.5131 32.3974 39.7326 31.013 39.5098C29.6285 39.287 28.3496 38.6334 27.358 37.6419C26.3665 36.6503 25.7129 35.3714 25.4901 33.9869C25.2673 32.6025 25.4868 31.1831 26.1172 29.9305C26.7476 28.678 27.757 27.6562 29.0016 27.0103C30.2463 26.3645 31.6629 26.1276 33.05 26.3333C34.4649 26.5431 35.7747 27.2024 36.7861 28.2138C37.7975 29.2252 38.4568 30.535 38.6666 31.9499Z" stroke="#F3F3F3" stroke-width="4" stroke-linecap="round" stroke-linejoin="round"/>
<circle cx="115.5" cy="32.5" r="32.5" fill="#1E1E1E"/>
<g clip-path="url(#clip0_2028_221)">
<path d="M135.262 22.0375C135.04 21.1476 134.586 20.3323 133.947 19.6739C133.309 19.0155 132.508 18.5372 131.625 18.2875C128.4 17.5 115.5 17.5 115.5 17.5C115.5 17.5 102.6 17.5 99.375 18.3625C98.4923 18.6122 97.6912 19.0905 97.0525 19.7489C96.4138 20.4073 95.9602 21.2226 95.7375 22.1125C95.1473 25.3854 94.8585 28.7056 94.875 32.0313C94.8539 35.382 95.1427 38.7274 95.7375 42.025C95.983 42.8872 96.4468 43.6715 97.084 44.3022C97.7212 44.9328 98.5103 45.3884 99.375 45.625C102.6 46.4875 115.5 46.4875 115.5 46.4875C115.5 46.4875 128.4 46.4875 131.625 45.625C132.508 45.3753 133.309 44.897 133.947 44.2386C134.586 43.5802 135.04 42.7649 135.262 41.875C135.848 38.6267 136.137 35.3319 136.125 32.0313C136.146 28.6805 135.857 25.3351 135.262 22.0375Z" stroke="#F3F3F3" stroke-width="4" stroke-linecap="round" stroke-linejoin="round"/>
<path d="M111.281 38.1625L122.062 32.0313L111.281 25.9V38.1625Z" stroke="#F3F3F3" stroke-width="4" stroke-linecap="round" stroke-linejoin="round"/>
</g>
<defs>
<clipPath id="clip0_2028_221">
<rect width="45" height="45" fill="white" transform="translate(93 10)"/>
</clipPath>
</defs>
</svg>
