<svg width="408" height="72" viewBox="0 0 408 72" fill="none" xmlns="http://www.w3.org/2000/svg">
<rect x="41" y="12" width="148" height="49" fill="#6DBF58"/>
<path d="M1.82812 56V14.75H18.3281V22.7188H10.2188V30.7578H18V38.5156H10.2188V47.9609H18.8672V56H1.82812ZM21.4688 56V14.75H30V56H21.4688ZM205.336 56.375C203.711 56.375 202.422 56.0781 201.469 55.4844C200.516 54.8906 199.805 54.0703 199.336 53.0234C198.867 51.9766 198.555 50.75 198.398 49.3438C198.258 47.9375 198.188 46.4297 198.188 44.8203V29.5391C198.188 26.8359 198.664 24.6484 199.617 22.9766C200.586 21.3047 202.219 20.4688 204.516 20.4688C206.219 20.4688 207.523 20.8359 208.43 21.5703C209.352 22.2891 210.062 23.2969 210.562 24.5938V14.75H219.094V56H210.562V52.2734C210.094 53.5391 209.469 54.5391 208.688 55.2734C207.922 56.0078 206.805 56.375 205.336 56.375ZM208.547 49.8125C209.344 49.8125 209.875 49.4922 210.141 48.8516C210.422 48.2109 210.562 47.0625 210.562 45.4062V30.6172C210.562 29.7891 210.438 28.9766 210.188 28.1797C209.953 27.3672 209.422 26.9609 208.594 26.9609C207.688 26.9609 207.117 27.3438 206.883 28.1094C206.648 28.875 206.531 29.7109 206.531 30.6172V45.4062C206.531 48.3438 207.203 49.8125 208.547 49.8125ZM232.172 56.375C229.672 56.375 227.68 55.9062 226.195 54.9688C224.711 54.0312 223.648 52.6797 223.008 50.9141C222.367 49.1484 222.047 47.0234 222.047 44.5391V30.4062C222.047 27.1406 222.984 24.6719 224.859 23C226.734 21.3125 229.312 20.4688 232.594 20.4688C239.344 20.4688 242.719 23.7812 242.719 30.4062V32.9609C242.719 36.0547 242.688 38.1328 242.625 39.1953H230.438V45.9922C230.438 46.6172 230.477 47.2344 230.555 47.8438C230.633 48.4375 230.805 48.9297 231.07 49.3203C231.352 49.7109 231.797 49.9062 232.406 49.9062C233.281 49.9062 233.828 49.5312 234.047 48.7812C234.266 48.0156 234.375 47.0234 234.375 45.8047V42.4297H242.719V44.4219C242.719 47.0469 242.391 49.25 241.734 51.0312C241.094 52.7969 240 54.1328 238.453 55.0391C236.922 55.9297 234.828 56.375 232.172 56.375ZM230.391 35.0234H234.375V30.2891C234.375 29.0234 234.219 28.1172 233.906 27.5703C233.594 27.0078 233.125 26.7266 232.5 26.7266C231.828 26.7266 231.305 26.9922 230.93 27.5234C230.57 28.0547 230.391 28.9766 230.391 30.2891V35.0234ZM256.969 18.6875V11.7031H265.359V18.6875H256.969ZM256.969 56V20.8438H265.359V56H256.969ZM268.688 56V20.8438H277.078V25.3203C277.391 23.9766 277.969 22.8359 278.812 21.8984C279.672 20.9453 280.859 20.4688 282.375 20.4688C284.812 20.4688 286.578 21.2188 287.672 22.7188C288.781 24.2188 289.336 26.2734 289.336 28.8828V56H281.062V29.75C281.062 29.0625 280.922 28.4297 280.641 27.8516C280.359 27.2578 279.875 26.9609 279.188 26.9609C278.547 26.9609 278.07 27.1875 277.758 27.6406C277.461 28.0781 277.273 28.6328 277.195 29.3047C277.117 29.9609 277.078 30.6172 277.078 31.2734V56H268.688ZM299.859 56.375C297.594 56.375 296.062 55.8984 295.266 54.9453C294.484 53.9766 294.094 52.5 294.094 50.5156V28.6016H291.727V22.2031H294.094V14.75H302.25V22.2031H304.617V28.6016H302.25V48.5469C302.25 49.125 302.344 49.5312 302.531 49.7656C302.719 50 303.078 50.1172 303.609 50.1172C303.984 50.1172 304.32 50.0859 304.617 50.0234V55.7422C304.43 55.8047 303.844 55.9219 302.859 56.0938C301.875 56.2812 300.875 56.375 299.859 56.375ZM317.156 56.375C314.656 56.375 312.664 55.9062 311.18 54.9688C309.695 54.0312 308.633 52.6797 307.992 50.9141C307.352 49.1484 307.031 47.0234 307.031 44.5391V30.4062C307.031 27.1406 307.969 24.6719 309.844 23C311.719 21.3125 314.297 20.4688 317.578 20.4688C324.328 20.4688 327.703 23.7812 327.703 30.4062V32.9609C327.703 36.0547 327.672 38.1328 327.609 39.1953H315.422V45.9922C315.422 46.6172 315.461 47.2344 315.539 47.8438C315.617 48.4375 315.789 48.9297 316.055 49.3203C316.336 49.7109 316.781 49.9062 317.391 49.9062C318.266 49.9062 318.812 49.5312 319.031 48.7812C319.25 48.0156 319.359 47.0234 319.359 45.8047V42.4297H327.703V44.4219C327.703 47.0469 327.375 49.25 326.719 51.0312C326.078 52.7969 324.984 54.1328 323.438 55.0391C321.906 55.9297 319.812 56.375 317.156 56.375ZM315.375 35.0234H319.359V30.2891C319.359 29.0234 319.203 28.1172 318.891 27.5703C318.578 27.0078 318.109 26.7266 317.484 26.7266C316.812 26.7266 316.289 26.9922 315.914 27.5234C315.555 28.0547 315.375 28.9766 315.375 30.2891V35.0234ZM330.75 56V20.8438H339.281V24.7578C339.688 23.3984 340.406 22.3359 341.438 21.5703C342.469 20.8047 343.766 20.4219 345.328 20.4219V27.4297C344.641 27.4297 343.82 27.5078 342.867 27.6641C341.914 27.8047 341.078 28.0078 340.359 28.2734C339.641 28.5234 339.281 28.8047 339.281 29.1172V56H330.75ZM347.391 56V20.8438H355.781V25.3203C356.094 23.9766 356.672 22.8359 357.516 21.8984C358.375 20.9453 359.562 20.4688 361.078 20.4688C363.516 20.4688 365.281 21.2188 366.375 22.7188C367.484 24.2188 368.039 26.2734 368.039 28.8828V56H359.766V29.75C359.766 29.0625 359.625 28.4297 359.344 27.8516C359.062 27.2578 358.578 26.9609 357.891 26.9609C357.25 26.9609 356.773 27.1875 356.461 27.6406C356.164 28.0781 355.977 28.6328 355.898 29.3047C355.82 29.9609 355.781 30.6172 355.781 31.2734V56H347.391ZM381.188 56.375C378.688 56.375 376.695 55.9062 375.211 54.9688C373.727 54.0312 372.664 52.6797 372.023 50.9141C371.383 49.1484 371.062 47.0234 371.062 44.5391V30.4062C371.062 27.1406 372 24.6719 373.875 23C375.75 21.3125 378.328 20.4688 381.609 20.4688C388.359 20.4688 391.734 23.7812 391.734 30.4062V32.9609C391.734 36.0547 391.703 38.1328 391.641 39.1953H379.453V45.9922C379.453 46.6172 379.492 47.2344 379.57 47.8438C379.648 48.4375 379.82 48.9297 380.086 49.3203C380.367 49.7109 380.812 49.9062 381.422 49.9062C382.297 49.9062 382.844 49.5312 383.062 48.7812C383.281 48.0156 383.391 47.0234 383.391 45.8047V42.4297H391.734V44.4219C391.734 47.0469 391.406 49.25 390.75 51.0312C390.109 52.7969 389.016 54.1328 387.469 55.0391C385.938 55.9297 383.844 56.375 381.188 56.375ZM379.406 35.0234H383.391V30.2891C383.391 29.0234 383.234 28.1172 382.922 27.5703C382.609 27.0078 382.141 26.7266 381.516 26.7266C380.844 26.7266 380.32 26.9922 379.945 27.5234C379.586 28.0547 379.406 28.9766 379.406 30.2891V35.0234ZM402 56.375C399.734 56.375 398.203 55.8984 397.406 54.9453C396.625 53.9766 396.234 52.5 396.234 50.5156V28.6016H393.867V22.2031H396.234V14.75H404.391V22.2031H406.758V28.6016H404.391V48.5469C404.391 49.125 404.484 49.5312 404.672 49.7656C404.859 50 405.219 50.1172 405.75 50.1172C406.125 50.1172 406.461 50.0859 406.758 50.0234V55.7422C406.57 55.8047 405.984 55.9219 405 56.0938C404.016 56.2812 403.016 56.375 402 56.375Z" fill="white"/>
<path d="M55.1953 56.375C51.2578 56.375 48.4609 55.3672 46.8047 53.3516C45.1641 51.3359 44.3438 48.375 44.3438 44.4688V33.6406C44.3438 30.7031 44.6562 28.2578 45.2812 26.3047C45.9062 24.3516 47 22.8906 48.5625 21.9219C50.125 20.9531 52.2969 20.4688 55.0781 20.4688C57.0156 20.4688 58.75 20.8125 60.2812 21.5C61.8281 22.1875 63.0469 23.1953 63.9375 24.5234C64.8281 25.8516 65.2734 27.4766 65.2734 29.3984V34.7656H56.7188V29.8438C56.7188 29.0312 56.6016 28.3516 56.3672 27.8047C56.1328 27.2422 55.625 26.9609 54.8438 26.9609C53.4688 26.9609 52.7812 27.9375 52.7812 29.8906V46.9297C52.7812 47.6484 52.9375 48.3125 53.25 48.9219C53.5625 49.5156 54.0781 49.8125 54.7969 49.8125C55.5312 49.8125 56.0391 49.5234 56.3203 48.9453C56.6172 48.3516 56.7656 47.6641 56.7656 46.8828V40.9766H65.2734V47.1172C65.2734 49.0547 64.8359 50.7188 63.9609 52.1094C63.1016 53.4844 61.9141 54.5391 60.3984 55.2734C58.8828 56.0078 57.1484 56.375 55.1953 56.375ZM74.9766 56.375C73.1016 56.375 71.6641 55.9844 70.6641 55.2031C69.6797 54.4219 69.0078 53.3359 68.6484 51.9453C68.2891 50.5391 68.1094 48.8984 68.1094 47.0234V20.8438H76.5469V46.0391C76.5469 47.4453 76.6562 48.4297 76.875 48.9922C77.0938 49.5391 77.6094 49.8125 78.4219 49.8125C79.2969 49.8125 79.8438 49.4219 80.0625 48.6406C80.2969 47.8594 80.4141 46.8516 80.4141 45.6172V20.8438H88.7812V56H80.3906V52.25C79.8594 53.5938 79.2188 54.6172 78.4688 55.3203C77.7344 56.0234 76.5703 56.375 74.9766 56.375ZM92.1562 56V20.8438H100.688V24.7578C101.094 23.3984 101.812 22.3359 102.844 21.5703C103.875 20.8047 105.172 20.4219 106.734 20.4219V27.4297C106.047 27.4297 105.227 27.5078 104.273 27.6641C103.32 27.8047 102.484 28.0078 101.766 28.2734C101.047 28.5234 100.688 28.8047 100.688 29.1172V56H92.1562ZM115.195 56.375C113.242 56.375 111.75 55.9219 110.719 55.0156C109.703 54.1094 109.008 52.8672 108.633 51.2891C108.258 49.7109 108.07 47.9219 108.07 45.9219C108.07 43.7812 108.281 42.0312 108.703 40.6719C109.125 39.2969 109.844 38.1719 110.859 37.2969C111.891 36.4219 113.305 35.6797 115.102 35.0703L120.305 33.2891V29.6797C120.305 27.7891 119.688 26.8438 118.453 26.8438C117.328 26.8438 116.766 27.6094 116.766 29.1406V31.25H108.609C108.594 31.125 108.586 30.9688 108.586 30.7812C108.586 30.5781 108.586 30.3516 108.586 30.1016C108.586 26.6016 109.406 24.125 111.047 22.6719C112.703 21.2031 115.32 20.4688 118.898 20.4688C120.773 20.4688 122.453 20.8047 123.938 21.4766C125.422 22.1328 126.594 23.1094 127.453 24.4062C128.328 25.7031 128.766 27.3047 128.766 29.2109V56H120.422V51.8281C120.016 53.2969 119.344 54.4219 118.406 55.2031C117.469 55.9844 116.398 56.375 115.195 56.375ZM118.5 49.8594C119.188 49.8594 119.656 49.5703 119.906 48.9922C120.156 48.4141 120.281 47.7891 120.281 47.1172V37.3203C119.125 37.7891 118.227 38.3828 117.586 39.1016C116.945 39.8047 116.625 40.8438 116.625 42.2188V46.7422C116.625 48.8203 117.25 49.8594 118.5 49.8594ZM111.188 17.6797V14.0938H126.422V17.6797H111.188ZM139.219 56.375C136.953 56.375 135.422 55.8984 134.625 54.9453C133.844 53.9766 133.453 52.5 133.453 50.5156V28.6016H131.086V22.2031H133.453V14.75H141.609V22.2031H143.977V28.6016H141.609V48.5469C141.609 49.125 141.703 49.5312 141.891 49.7656C142.078 50 142.438 50.1172 142.969 50.1172C143.344 50.1172 143.68 50.0859 143.977 50.0234V55.7422C143.789 55.8047 143.203 55.9219 142.219 56.0938C141.234 56.2812 140.234 56.375 139.219 56.375ZM156.891 56.375C149.891 56.375 146.391 52.7422 146.391 45.4766V31.3672C146.391 28.0547 147.32 25.4141 149.18 23.4453C151.039 21.4609 153.609 20.4688 156.891 20.4688C160.188 20.4688 162.766 21.4609 164.625 23.4453C166.484 25.4141 167.414 28.0547 167.414 31.3672V45.4766C167.414 52.7422 163.906 56.375 156.891 56.375ZM156.891 49.9062C157.594 49.9062 158.094 49.6562 158.391 49.1562C158.703 48.6406 158.859 47.9922 158.859 47.2109V30.0312C158.859 27.9844 158.203 26.9609 156.891 26.9609C155.578 26.9609 154.922 27.9844 154.922 30.0312V47.2109C154.922 47.9922 155.07 48.6406 155.367 49.1562C155.68 49.6562 156.188 49.9062 156.891 49.9062ZM170.531 56V20.8438H179.062V24.7578C179.469 23.3984 180.188 22.3359 181.219 21.5703C182.25 20.8047 183.547 20.4219 185.109 20.4219V27.4297C184.422 27.4297 183.602 27.5078 182.648 27.6641C181.695 27.8047 180.859 28.0078 180.141 28.2734C179.422 28.5234 179.062 28.8047 179.062 29.1172V56H170.531Z" fill="black"/>
</svg>
