<svg width="908" height="506" viewBox="0 0 908 506" fill="none" xmlns="http://www.w3.org/2000/svg">
<mask id="path-1-inside-1_62_301" fill="white">
<path d="M0 7.99999C0 3.58171 3.58172 0 8 0H900C904.418 0 908 3.58172 908 8V498C908 502.418 904.418 506 900 506H8.00001C3.58173 506 0 502.418 0 498V7.99999Z"/>
</mask>
<path d="M0 7.99999C0 3.58171 3.58172 0 8 0H900C904.418 0 908 3.58172 908 8V498C908 502.418 904.418 506 900 506H8.00001C3.58173 506 0 502.418 0 498V7.99999Z" fill="#1E1E1E"/>
<path d="M8 0V1H900V0V-1H8V0ZM908 8H907V498H908H909V8H908ZM900 506V505H8.00001V506V507H900V506ZM0 498H1V7.99999H0H-1V498H0ZM8.00001 506V505C4.13401 505 1 501.866 1 498H0H-1C-1 502.971 3.02944 507 8.00001 507V506ZM908 498H907C907 501.866 903.866 505 900 505V506V507C904.971 507 909 502.971 909 498H908ZM900 0V1C903.866 1 907 4.13401 907 8H908H909C909 3.02944 904.971 -1 900 -1V0ZM8 0V-1C3.02944 -1 -1 3.02942 -1 7.99999H0H1C1 4.134 4.134 1 8 1V0Z" fill="#14AE5C" mask="url(#path-1-inside-1_62_301)"/>
<path d="M34.6364 29.3636V41H33.2727L26.9318 31.8636H26.8182V41H25.4091V29.3636H26.7727L33.1364 38.5227H33.25V29.3636H34.6364ZM39.8423 41.2045C39.2893 41.2045 38.7874 41.1004 38.3366 40.892C37.8859 40.6799 37.5279 40.375 37.2628 39.9773C36.9976 39.5758 36.8651 39.0909 36.8651 38.5227C36.8651 38.0227 36.9635 37.6174 37.1605 37.3068C37.3575 36.9924 37.6207 36.7462 37.9503 36.5682C38.2798 36.3902 38.6435 36.2576 39.0412 36.1705C39.4427 36.0795 39.8461 36.0076 40.2514 35.9545C40.7817 35.8864 41.2116 35.8352 41.5412 35.8011C41.8745 35.7633 42.117 35.7008 42.2685 35.6136C42.4238 35.5265 42.5014 35.375 42.5014 35.1591V35.1136C42.5014 34.553 42.348 34.1174 42.0412 33.8068C41.7382 33.4962 41.2779 33.3409 40.6605 33.3409C40.0204 33.3409 39.5185 33.4811 39.1548 33.7614C38.7912 34.0417 38.5355 34.3409 38.3878 34.6591L37.1151 34.2045C37.3423 33.6742 37.6454 33.2614 38.0241 32.9659C38.4067 32.6667 38.8234 32.4583 39.2741 32.3409C39.7287 32.2197 40.1757 32.1591 40.6151 32.1591C40.8954 32.1591 41.2173 32.1932 41.581 32.2614C41.9484 32.3258 42.3026 32.4602 42.6435 32.6648C42.9882 32.8693 43.2741 33.178 43.5014 33.5909C43.7287 34.0038 43.8423 34.5568 43.8423 35.25V41H42.5014V39.8182H42.4332C42.3423 40.0076 42.1908 40.2102 41.9787 40.4261C41.7666 40.642 41.4844 40.8258 41.1321 40.9773C40.7798 41.1288 40.3499 41.2045 39.8423 41.2045ZM40.0469 40C40.5772 40 41.0241 39.8958 41.3878 39.6875C41.7552 39.4792 42.0317 39.2102 42.2173 38.8807C42.4067 38.5511 42.5014 38.2045 42.5014 37.8409V36.6136C42.4446 36.6818 42.3196 36.7443 42.1264 36.8011C41.937 36.8542 41.7173 36.9015 41.4673 36.9432C41.2211 36.9811 40.9806 37.0152 40.7457 37.0455C40.5147 37.072 40.3272 37.0947 40.1832 37.1136C39.8348 37.1591 39.509 37.233 39.206 37.3352C38.9067 37.4337 38.6643 37.5833 38.4787 37.7841C38.2969 37.9811 38.206 38.25 38.206 38.5909C38.206 39.0568 38.3783 39.4091 38.723 39.6477C39.0715 39.8826 39.5128 40 40.0469 40ZM46.2898 41V32.2727H47.5852V33.6364H47.6989C47.8807 33.1705 48.1742 32.8087 48.5795 32.5511C48.9848 32.2898 49.4716 32.1591 50.0398 32.1591C50.6155 32.1591 51.0947 32.2898 51.4773 32.5511C51.8636 32.8087 52.1648 33.1705 52.3807 33.6364H52.4716C52.6951 33.1856 53.0303 32.8277 53.4773 32.5625C53.9242 32.2936 54.4602 32.1591 55.0852 32.1591C55.8655 32.1591 56.5038 32.4034 57 32.892C57.4962 33.3769 57.7443 34.1326 57.7443 35.1591V41H56.4034V35.1591C56.4034 34.5152 56.2273 34.0549 55.875 33.7784C55.5227 33.5019 55.108 33.3636 54.6307 33.3636C54.017 33.3636 53.5417 33.5492 53.2045 33.9205C52.8674 34.2879 52.6989 34.7538 52.6989 35.3182V41H51.3352V35.0227C51.3352 34.5265 51.1742 34.1269 50.8523 33.8239C50.5303 33.517 50.1155 33.3636 49.608 33.3636C49.2595 33.3636 48.9337 33.4564 48.6307 33.642C48.3314 33.8277 48.089 34.0852 47.9034 34.4148C47.7216 34.7405 47.6307 35.1174 47.6307 35.5455V41H46.2898ZM63.8551 41.1818C63.0142 41.1818 62.2888 40.9962 61.679 40.625C61.0729 40.25 60.6051 39.7273 60.2756 39.0568C59.9498 38.3826 59.7869 37.5985 59.7869 36.7045C59.7869 35.8106 59.9498 35.0227 60.2756 34.3409C60.6051 33.6553 61.0634 33.1212 61.6506 32.7386C62.2415 32.3523 62.9309 32.1591 63.7188 32.1591C64.1733 32.1591 64.6222 32.2348 65.0653 32.3864C65.5085 32.5379 65.9119 32.7841 66.2756 33.125C66.6392 33.4621 66.929 33.9091 67.1449 34.4659C67.3608 35.0227 67.4688 35.7083 67.4688 36.5227V37.0909H60.7415V35.9318H66.1051C66.1051 35.4394 66.0066 35 65.8097 34.6136C65.6165 34.2273 65.34 33.9223 64.9801 33.6989C64.6241 33.4754 64.2036 33.3636 63.7188 33.3636C63.1847 33.3636 62.7225 33.4962 62.3324 33.7614C61.946 34.0227 61.6487 34.3636 61.4403 34.7841C61.232 35.2045 61.1278 35.6553 61.1278 36.1364V36.9091C61.1278 37.5682 61.2415 38.1269 61.4688 38.5852C61.6998 39.0398 62.0199 39.3864 62.429 39.625C62.8381 39.8598 63.3134 39.9773 63.8551 39.9773C64.2074 39.9773 64.5256 39.928 64.8097 39.8295C65.0975 39.7273 65.3456 39.5758 65.554 39.375C65.7623 39.1705 65.9233 38.9167 66.0369 38.6136L67.3324 38.9773C67.196 39.4167 66.9669 39.803 66.6449 40.1364C66.3229 40.4659 65.9252 40.7235 65.4517 40.9091C64.9782 41.0909 64.446 41.1818 63.8551 41.1818Z" fill="#1E1E1E"/>
<path d="M24 62C24 57.5817 27.5817 54 32 54H876C880.418 54 884 57.5817 884 62V86C884 90.4183 880.418 94 876 94H32C27.5817 94 24 90.4183 24 86V62Z" fill="#1E1E1E"/>
<path d="M32 54V54.5H876V54V53.5H32V54ZM884 62H883.5V86H884H884.5V62H884ZM876 94V93.5H32V94V94.5H876V94ZM24 86H24.5V62H24H23.5V86H24ZM32 94V93.5C27.8579 93.5 24.5 90.1421 24.5 86H24H23.5C23.5 90.6944 27.3056 94.5 32 94.5V94ZM884 86H883.5C883.5 90.1421 880.142 93.5 876 93.5V94V94.5C880.694 94.5 884.5 90.6944 884.5 86H884ZM876 54V54.5C880.142 54.5 883.5 57.8579 883.5 62H884H884.5C884.5 57.3056 880.694 53.5 876 53.5V54ZM32 54V53.5C27.3056 53.5 23.5 57.3056 23.5 62H24H24.5C24.5 57.8579 27.8579 54.5 32 54.5V54Z" fill="#14AE5C"/>
<path d="M41.8864 68.3636L45.3409 78.1591H45.4773L48.9318 68.3636H50.4091L46.1364 80H44.6818L40.4091 68.3636H41.8864ZM53.7955 80.2045C53.2424 80.2045 52.7405 80.1004 52.2898 79.892C51.839 79.6799 51.4811 79.375 51.2159 78.9773C50.9508 78.5758 50.8182 78.0909 50.8182 77.5227C50.8182 77.0227 50.9167 76.6174 51.1136 76.3068C51.3106 75.9924 51.5739 75.7462 51.9034 75.5682C52.233 75.3902 52.5966 75.2576 52.9943 75.1705C53.3958 75.0795 53.7992 75.0076 54.2045 74.9545C54.7348 74.8864 55.1648 74.8352 55.4943 74.8011C55.8277 74.7633 56.0701 74.7008 56.2216 74.6136C56.3769 74.5265 56.4545 74.375 56.4545 74.1591V74.1136C56.4545 73.553 56.3011 73.1174 55.9943 72.8068C55.6913 72.4962 55.2311 72.3409 54.6136 72.3409C53.9735 72.3409 53.4716 72.4811 53.108 72.7614C52.7443 73.0417 52.4886 73.3409 52.3409 73.6591L51.0682 73.2045C51.2955 72.6742 51.5985 72.2614 51.9773 71.9659C52.3598 71.6667 52.7765 71.4583 53.2273 71.3409C53.6818 71.2197 54.1288 71.1591 54.5682 71.1591C54.8485 71.1591 55.1705 71.1932 55.5341 71.2614C55.9015 71.3258 56.2557 71.4602 56.5966 71.6648C56.9413 71.8693 57.2273 72.178 57.4545 72.5909C57.6818 73.0038 57.7955 73.5568 57.7955 74.25V80H56.4545V78.8182H56.3864C56.2955 79.0076 56.1439 79.2102 55.9318 79.4261C55.7197 79.642 55.4375 79.8258 55.0852 79.9773C54.733 80.1288 54.303 80.2045 53.7955 80.2045ZM54 79C54.5303 79 54.9773 78.8958 55.3409 78.6875C55.7083 78.4792 55.9848 78.2102 56.1705 77.8807C56.3598 77.5511 56.4545 77.2045 56.4545 76.8409V75.6136C56.3977 75.6818 56.2727 75.7443 56.0795 75.8011C55.8902 75.8542 55.6705 75.9015 55.4205 75.9432C55.1742 75.9811 54.9337 76.0152 54.6989 76.0455C54.4678 76.072 54.2803 76.0947 54.1364 76.1136C53.7879 76.1591 53.4621 76.233 53.1591 76.3352C52.8598 76.4337 52.6174 76.5833 52.4318 76.7841C52.25 76.9811 52.1591 77.25 52.1591 77.5909C52.1591 78.0568 52.3314 78.4091 52.6761 78.6477C53.0246 78.8826 53.4659 79 54 79ZM61.5838 68.3636V80H60.2429V68.3636H61.5838ZM69.5398 76.4318V71.2727H70.8807V80H69.5398V78.5227H69.4489C69.2443 78.9659 68.9261 79.3428 68.4943 79.6534C68.0625 79.9602 67.517 80.1136 66.858 80.1136C66.3125 80.1136 65.8277 79.9943 65.4034 79.7557C64.9792 79.5133 64.6458 79.1496 64.4034 78.6648C64.161 78.1761 64.0398 77.5606 64.0398 76.8182V71.2727H65.3807V76.7273C65.3807 77.3636 65.5587 77.8712 65.9148 78.25C66.2746 78.6288 66.733 78.8182 67.2898 78.8182C67.6231 78.8182 67.9621 78.733 68.3068 78.5625C68.6553 78.392 68.947 78.1307 69.1818 77.7784C69.4205 77.4261 69.5398 76.9773 69.5398 76.4318ZM76.9957 80.1818C76.1548 80.1818 75.4295 79.9962 74.8196 79.625C74.2135 79.25 73.7457 78.7273 73.4162 78.0568C73.0904 77.3826 72.9276 76.5985 72.9276 75.7045C72.9276 74.8106 73.0904 74.0227 73.4162 73.3409C73.7457 72.6553 74.2041 72.1212 74.7912 71.7386C75.3821 71.3523 76.0715 71.1591 76.8594 71.1591C77.3139 71.1591 77.7628 71.2348 78.206 71.3864C78.6491 71.5379 79.0526 71.7841 79.4162 72.125C79.7798 72.4621 80.0696 72.9091 80.2855 73.4659C80.5014 74.0227 80.6094 74.7083 80.6094 75.5227V76.0909H73.8821V74.9318H79.2457C79.2457 74.4394 79.1473 74 78.9503 73.6136C78.7571 73.2273 78.4806 72.9223 78.1207 72.6989C77.7647 72.4754 77.3442 72.3636 76.8594 72.3636C76.3253 72.3636 75.8632 72.4962 75.473 72.7614C75.0866 73.0227 74.7893 73.3636 74.581 73.7841C74.3726 74.2045 74.2685 74.6553 74.2685 75.1364V75.9091C74.2685 76.5682 74.3821 77.1269 74.6094 77.5852C74.8404 78.0398 75.1605 78.3864 75.5696 78.625C75.9787 78.8598 76.4541 78.9773 76.9957 78.9773C77.348 78.9773 77.6662 78.928 77.9503 78.8295C78.2382 78.7273 78.4863 78.5758 78.6946 78.375C78.9029 78.1705 79.0639 77.9167 79.1776 77.6136L80.473 77.9773C80.3366 78.4167 80.1075 78.803 79.7855 79.1364C79.4635 79.4659 79.0658 79.7235 78.5923 79.9091C78.1188 80.0909 77.5866 80.1818 76.9957 80.1818Z" fill="#B3B3B3"/>
<path d="M31.7727 126.273C31.7045 125.697 31.428 125.25 30.9432 124.932C30.4583 124.614 29.8636 124.455 29.1591 124.455C28.6439 124.455 28.1932 124.538 27.8068 124.705C27.4242 124.871 27.125 125.1 26.9091 125.392C26.697 125.684 26.5909 126.015 26.5909 126.386C26.5909 126.697 26.6648 126.964 26.8125 127.188C26.964 127.407 27.1572 127.591 27.392 127.739C27.6269 127.883 27.8731 128.002 28.1307 128.097C28.3883 128.187 28.625 128.261 28.8409 128.318L30.0227 128.636C30.3258 128.716 30.6629 128.826 31.0341 128.966C31.4091 129.106 31.767 129.297 32.108 129.54C32.4527 129.778 32.7367 130.085 32.9602 130.46C33.1837 130.835 33.2955 131.295 33.2955 131.841C33.2955 132.47 33.1307 133.038 32.8011 133.545C32.4754 134.053 31.9981 134.456 31.3693 134.756C30.7443 135.055 29.9848 135.205 29.0909 135.205C28.2576 135.205 27.536 135.07 26.9261 134.801C26.3201 134.532 25.8428 134.157 25.4943 133.676C25.1496 133.195 24.9545 132.636 24.9091 132H26.3636C26.4015 132.439 26.5492 132.803 26.8068 133.091C27.0682 133.375 27.3977 133.587 27.7955 133.727C28.197 133.864 28.6288 133.932 29.0909 133.932C29.6288 133.932 30.1117 133.845 30.5398 133.67C30.9678 133.492 31.3068 133.246 31.5568 132.932C31.8068 132.614 31.9318 132.242 31.9318 131.818C31.9318 131.432 31.8239 131.117 31.608 130.875C31.392 130.633 31.108 130.436 30.7557 130.284C30.4034 130.133 30.0227 130 29.6136 129.886L28.1818 129.477C27.2727 129.216 26.553 128.843 26.0227 128.358C25.4924 127.873 25.2273 127.239 25.2273 126.455C25.2273 125.803 25.4034 125.235 25.7557 124.75C26.1117 124.261 26.589 123.883 27.1875 123.614C27.7898 123.341 28.4621 123.205 29.2045 123.205C29.9545 123.205 30.6212 123.339 31.2045 123.608C31.7879 123.873 32.25 124.237 32.5909 124.699C32.9356 125.161 33.1174 125.686 33.1364 126.273H31.7727ZM40.9304 131.432V126.273H42.2713V135H40.9304V133.523H40.8395C40.6349 133.966 40.3168 134.343 39.8849 134.653C39.4531 134.96 38.9077 135.114 38.2486 135.114C37.7031 135.114 37.2183 134.994 36.794 134.756C36.3698 134.513 36.0365 134.15 35.794 133.665C35.5516 133.176 35.4304 132.561 35.4304 131.818V126.273H36.7713V131.727C36.7713 132.364 36.9493 132.871 37.3054 133.25C37.6652 133.629 38.1236 133.818 38.6804 133.818C39.0137 133.818 39.3527 133.733 39.6974 133.562C40.0459 133.392 40.3376 133.131 40.5724 132.778C40.8111 132.426 40.9304 131.977 40.9304 131.432ZM44.7273 135V126.273H46.0227V127.591H46.1136C46.2727 127.159 46.5606 126.809 46.9773 126.54C47.3939 126.271 47.8636 126.136 48.3864 126.136C48.4848 126.136 48.608 126.138 48.7557 126.142C48.9034 126.146 49.0152 126.152 49.0909 126.159V127.523C49.0455 127.511 48.9413 127.494 48.7784 127.472C48.6193 127.445 48.4508 127.432 48.2727 127.432C47.8485 127.432 47.4697 127.521 47.1364 127.699C46.8068 127.873 46.5455 128.116 46.3523 128.426C46.1629 128.733 46.0682 129.083 46.0682 129.477V135H44.7273ZM52.0213 129.75V135H50.6804V126.273H51.9759V127.636H52.0895C52.294 127.193 52.6046 126.837 53.0213 126.568C53.438 126.295 53.9759 126.159 54.6349 126.159C55.2259 126.159 55.7429 126.28 56.1861 126.523C56.6293 126.761 56.974 127.125 57.2202 127.614C57.4664 128.098 57.5895 128.712 57.5895 129.455V135H56.2486V129.545C56.2486 128.86 56.0705 128.326 55.7145 127.943C55.3584 127.557 54.8698 127.364 54.2486 127.364C53.8205 127.364 53.438 127.456 53.1009 127.642C52.7675 127.828 52.5043 128.098 52.3111 128.455C52.1179 128.811 52.0213 129.242 52.0213 129.75ZM62.608 135.205C62.0549 135.205 61.553 135.1 61.1023 134.892C60.6515 134.68 60.2936 134.375 60.0284 133.977C59.7633 133.576 59.6307 133.091 59.6307 132.523C59.6307 132.023 59.7292 131.617 59.9261 131.307C60.1231 130.992 60.3864 130.746 60.7159 130.568C61.0455 130.39 61.4091 130.258 61.8068 130.17C62.2083 130.08 62.6117 130.008 63.017 129.955C63.5473 129.886 63.9773 129.835 64.3068 129.801C64.6402 129.763 64.8826 129.701 65.0341 129.614C65.1894 129.527 65.267 129.375 65.267 129.159V129.114C65.267 128.553 65.1136 128.117 64.8068 127.807C64.5038 127.496 64.0436 127.341 63.4261 127.341C62.786 127.341 62.2841 127.481 61.9205 127.761C61.5568 128.042 61.3011 128.341 61.1534 128.659L59.8807 128.205C60.108 127.674 60.411 127.261 60.7898 126.966C61.1723 126.667 61.589 126.458 62.0398 126.341C62.4943 126.22 62.9413 126.159 63.3807 126.159C63.661 126.159 63.983 126.193 64.3466 126.261C64.714 126.326 65.0682 126.46 65.4091 126.665C65.7538 126.869 66.0398 127.178 66.267 127.591C66.4943 128.004 66.608 128.557 66.608 129.25V135H65.267V133.818H65.1989C65.108 134.008 64.9564 134.21 64.7443 134.426C64.5322 134.642 64.25 134.826 63.8977 134.977C63.5455 135.129 63.1155 135.205 62.608 135.205ZM62.8125 134C63.3428 134 63.7898 133.896 64.1534 133.688C64.5208 133.479 64.7973 133.21 64.983 132.881C65.1723 132.551 65.267 132.205 65.267 131.841V130.614C65.2102 130.682 65.0852 130.744 64.892 130.801C64.7027 130.854 64.483 130.902 64.233 130.943C63.9867 130.981 63.7462 131.015 63.5114 131.045C63.2803 131.072 63.0928 131.095 62.9489 131.114C62.6004 131.159 62.2746 131.233 61.9716 131.335C61.6723 131.434 61.4299 131.583 61.2443 131.784C61.0625 131.981 60.9716 132.25 60.9716 132.591C60.9716 133.057 61.1439 133.409 61.4886 133.648C61.8371 133.883 62.2784 134 62.8125 134ZM69.0554 135V126.273H70.3509V127.636H70.4645C70.6463 127.17 70.9399 126.809 71.3452 126.551C71.7505 126.29 72.2372 126.159 72.8054 126.159C73.3812 126.159 73.8603 126.29 74.2429 126.551C74.6293 126.809 74.9304 127.17 75.1463 127.636H75.2372C75.4607 127.186 75.7959 126.828 76.2429 126.562C76.6899 126.294 77.2259 126.159 77.8509 126.159C78.6312 126.159 79.2694 126.403 79.7656 126.892C80.2618 127.377 80.5099 128.133 80.5099 129.159V135H79.169V129.159C79.169 128.515 78.9929 128.055 78.6406 127.778C78.2884 127.502 77.8736 127.364 77.3963 127.364C76.7827 127.364 76.3073 127.549 75.9702 127.92C75.633 128.288 75.4645 128.754 75.4645 129.318V135H74.1009V129.023C74.1009 128.527 73.9399 128.127 73.6179 127.824C73.2959 127.517 72.8812 127.364 72.3736 127.364C72.0251 127.364 71.6993 127.456 71.3963 127.642C71.0971 127.828 70.8546 128.085 70.669 128.415C70.4872 128.741 70.3963 129.117 70.3963 129.545V135H69.0554ZM86.6207 135.182C85.7798 135.182 85.0545 134.996 84.4446 134.625C83.8385 134.25 83.3707 133.727 83.0412 133.057C82.7154 132.383 82.5526 131.598 82.5526 130.705C82.5526 129.811 82.7154 129.023 83.0412 128.341C83.3707 127.655 83.8291 127.121 84.4162 126.739C85.0071 126.352 85.6965 126.159 86.4844 126.159C86.9389 126.159 87.3878 126.235 87.831 126.386C88.2741 126.538 88.6776 126.784 89.0412 127.125C89.4048 127.462 89.6946 127.909 89.9105 128.466C90.1264 129.023 90.2344 129.708 90.2344 130.523V131.091H83.5071V129.932H88.8707C88.8707 129.439 88.7723 129 88.5753 128.614C88.3821 128.227 88.1056 127.922 87.7457 127.699C87.3897 127.475 86.9692 127.364 86.4844 127.364C85.9503 127.364 85.4882 127.496 85.098 127.761C84.7116 128.023 84.4143 128.364 84.206 128.784C83.9976 129.205 83.8935 129.655 83.8935 130.136V130.909C83.8935 131.568 84.0071 132.127 84.2344 132.585C84.4654 133.04 84.7855 133.386 85.1946 133.625C85.6037 133.86 86.0791 133.977 86.6207 133.977C86.973 133.977 87.2912 133.928 87.5753 133.83C87.8632 133.727 88.1113 133.576 88.3196 133.375C88.5279 133.17 88.6889 132.917 88.8026 132.614L90.098 132.977C89.9616 133.417 89.7325 133.803 89.4105 134.136C89.0885 134.466 88.6908 134.723 88.2173 134.909C87.7438 135.091 87.2116 135.182 86.6207 135.182Z" fill="#1E1E1E"/>
<path d="M24 156C24 151.582 27.5817 148 32 148H876C880.418 148 884 151.582 884 156V180C884 184.418 880.418 188 876 188H32C27.5817 188 24 184.418 24 180V156Z" fill="#1E1E1E"/>
<path d="M32 148V148.5H876V148V147.5H32V148ZM884 156H883.5V180H884H884.5V156H884ZM876 188V187.5H32V188V188.5H876V188ZM24 180H24.5V156H24H23.5V180H24ZM32 188V187.5C27.8579 187.5 24.5 184.142 24.5 180H24H23.5C23.5 184.694 27.3056 188.5 32 188.5V188ZM884 180H883.5C883.5 184.142 880.142 187.5 876 187.5V188V188.5C880.694 188.5 884.5 184.694 884.5 180H884ZM876 148V148.5C880.142 148.5 883.5 151.858 883.5 156H884H884.5C884.5 151.306 880.694 147.5 876 147.5V148ZM32 148V147.5C27.3056 147.5 23.5 151.306 23.5 156H24H24.5C24.5 151.858 27.8579 148.5 32 148.5V148Z" fill="#14AE5C"/>
<path d="M41.8864 162.364L45.3409 172.159H45.4773L48.9318 162.364H50.4091L46.1364 174H44.6818L40.4091 162.364H41.8864ZM53.7955 174.205C53.2424 174.205 52.7405 174.1 52.2898 173.892C51.839 173.68 51.4811 173.375 51.2159 172.977C50.9508 172.576 50.8182 172.091 50.8182 171.523C50.8182 171.023 50.9167 170.617 51.1136 170.307C51.3106 169.992 51.5739 169.746 51.9034 169.568C52.233 169.39 52.5966 169.258 52.9943 169.17C53.3958 169.08 53.7992 169.008 54.2045 168.955C54.7348 168.886 55.1648 168.835 55.4943 168.801C55.8277 168.763 56.0701 168.701 56.2216 168.614C56.3769 168.527 56.4545 168.375 56.4545 168.159V168.114C56.4545 167.553 56.3011 167.117 55.9943 166.807C55.6913 166.496 55.2311 166.341 54.6136 166.341C53.9735 166.341 53.4716 166.481 53.108 166.761C52.7443 167.042 52.4886 167.341 52.3409 167.659L51.0682 167.205C51.2955 166.674 51.5985 166.261 51.9773 165.966C52.3598 165.667 52.7765 165.458 53.2273 165.341C53.6818 165.22 54.1288 165.159 54.5682 165.159C54.8485 165.159 55.1705 165.193 55.5341 165.261C55.9015 165.326 56.2557 165.46 56.5966 165.665C56.9413 165.869 57.2273 166.178 57.4545 166.591C57.6818 167.004 57.7955 167.557 57.7955 168.25V174H56.4545V172.818H56.3864C56.2955 173.008 56.1439 173.21 55.9318 173.426C55.7197 173.642 55.4375 173.826 55.0852 173.977C54.733 174.129 54.303 174.205 53.7955 174.205ZM54 173C54.5303 173 54.9773 172.896 55.3409 172.688C55.7083 172.479 55.9848 172.21 56.1705 171.881C56.3598 171.551 56.4545 171.205 56.4545 170.841V169.614C56.3977 169.682 56.2727 169.744 56.0795 169.801C55.8902 169.854 55.6705 169.902 55.4205 169.943C55.1742 169.981 54.9337 170.015 54.6989 170.045C54.4678 170.072 54.2803 170.095 54.1364 170.114C53.7879 170.159 53.4621 170.233 53.1591 170.335C52.8598 170.434 52.6174 170.583 52.4318 170.784C52.25 170.981 52.1591 171.25 52.1591 171.591C52.1591 172.057 52.3314 172.409 52.6761 172.648C53.0246 172.883 53.4659 173 54 173ZM61.5838 162.364V174H60.2429V162.364H61.5838ZM69.5398 170.432V165.273H70.8807V174H69.5398V172.523H69.4489C69.2443 172.966 68.9261 173.343 68.4943 173.653C68.0625 173.96 67.517 174.114 66.858 174.114C66.3125 174.114 65.8277 173.994 65.4034 173.756C64.9792 173.513 64.6458 173.15 64.4034 172.665C64.161 172.176 64.0398 171.561 64.0398 170.818V165.273H65.3807V170.727C65.3807 171.364 65.5587 171.871 65.9148 172.25C66.2746 172.629 66.733 172.818 67.2898 172.818C67.6231 172.818 67.9621 172.733 68.3068 172.562C68.6553 172.392 68.947 172.131 69.1818 171.778C69.4205 171.426 69.5398 170.977 69.5398 170.432ZM76.9957 174.182C76.1548 174.182 75.4295 173.996 74.8196 173.625C74.2135 173.25 73.7457 172.727 73.4162 172.057C73.0904 171.383 72.9276 170.598 72.9276 169.705C72.9276 168.811 73.0904 168.023 73.4162 167.341C73.7457 166.655 74.2041 166.121 74.7912 165.739C75.3821 165.352 76.0715 165.159 76.8594 165.159C77.3139 165.159 77.7628 165.235 78.206 165.386C78.6491 165.538 79.0526 165.784 79.4162 166.125C79.7798 166.462 80.0696 166.909 80.2855 167.466C80.5014 168.023 80.6094 168.708 80.6094 169.523V170.091H73.8821V168.932H79.2457C79.2457 168.439 79.1473 168 78.9503 167.614C78.7571 167.227 78.4806 166.922 78.1207 166.699C77.7647 166.475 77.3442 166.364 76.8594 166.364C76.3253 166.364 75.8632 166.496 75.473 166.761C75.0866 167.023 74.7893 167.364 74.581 167.784C74.3726 168.205 74.2685 168.655 74.2685 169.136V169.909C74.2685 170.568 74.3821 171.127 74.6094 171.585C74.8404 172.04 75.1605 172.386 75.5696 172.625C75.9787 172.86 76.4541 172.977 76.9957 172.977C77.348 172.977 77.6662 172.928 77.9503 172.83C78.2382 172.727 78.4863 172.576 78.6946 172.375C78.9029 172.17 79.0639 171.917 79.1776 171.614L80.473 171.977C80.3366 172.417 80.1075 172.803 79.7855 173.136C79.4635 173.466 79.0658 173.723 78.5923 173.909C78.1188 174.091 77.5866 174.182 76.9957 174.182Z" fill="#B3B3B3"/>
<path d="M25.4091 229V217.364H32.4318V218.614H26.8182V222.545H32.0682V223.795H26.8182V227.75H32.5227V229H25.4091ZM34.7898 229V220.273H36.0852V221.636H36.1989C36.3807 221.17 36.6742 220.809 37.0795 220.551C37.4848 220.29 37.9716 220.159 38.5398 220.159C39.1155 220.159 39.5947 220.29 39.9773 220.551C40.3636 220.809 40.6648 221.17 40.8807 221.636H40.9716C41.1951 221.186 41.5303 220.828 41.9773 220.562C42.4242 220.294 42.9602 220.159 43.5852 220.159C44.3655 220.159 45.0038 220.403 45.5 220.892C45.9962 221.377 46.2443 222.133 46.2443 223.159V229H44.9034V223.159C44.9034 222.515 44.7273 222.055 44.375 221.778C44.0227 221.502 43.608 221.364 43.1307 221.364C42.517 221.364 42.0417 221.549 41.7045 221.92C41.3674 222.288 41.1989 222.754 41.1989 223.318V229H39.8352V223.023C39.8352 222.527 39.6742 222.127 39.3523 221.824C39.0303 221.517 38.6155 221.364 38.108 221.364C37.7595 221.364 37.4337 221.456 37.1307 221.642C36.8314 221.828 36.589 222.085 36.4034 222.415C36.2216 222.741 36.1307 223.117 36.1307 223.545V229H34.7898ZM51.2642 229.205C50.7112 229.205 50.2093 229.1 49.7585 228.892C49.3078 228.68 48.9498 228.375 48.6847 227.977C48.4195 227.576 48.2869 227.091 48.2869 226.523C48.2869 226.023 48.3854 225.617 48.5824 225.307C48.7794 224.992 49.0426 224.746 49.3722 224.568C49.7017 224.39 50.0653 224.258 50.4631 224.17C50.8646 224.08 51.268 224.008 51.6733 223.955C52.2036 223.886 52.6335 223.835 52.9631 223.801C53.2964 223.763 53.5388 223.701 53.6903 223.614C53.8456 223.527 53.9233 223.375 53.9233 223.159V223.114C53.9233 222.553 53.7699 222.117 53.4631 221.807C53.16 221.496 52.6998 221.341 52.0824 221.341C51.4422 221.341 50.9403 221.481 50.5767 221.761C50.2131 222.042 49.9574 222.341 49.8097 222.659L48.5369 222.205C48.7642 221.674 49.0672 221.261 49.446 220.966C49.8286 220.667 50.2453 220.458 50.696 220.341C51.1506 220.22 51.5975 220.159 52.0369 220.159C52.3172 220.159 52.6392 220.193 53.0028 220.261C53.3703 220.326 53.7244 220.46 54.0653 220.665C54.41 220.869 54.696 221.178 54.9233 221.591C55.1506 222.004 55.2642 222.557 55.2642 223.25V229H53.9233V227.818H53.8551C53.7642 228.008 53.6127 228.21 53.4006 228.426C53.1884 228.642 52.9063 228.826 52.554 228.977C52.2017 229.129 51.7718 229.205 51.2642 229.205ZM51.4688 228C51.9991 228 52.446 227.896 52.8097 227.688C53.1771 227.479 53.4536 227.21 53.6392 226.881C53.8286 226.551 53.9233 226.205 53.9233 225.841V224.614C53.8665 224.682 53.7415 224.744 53.5483 224.801C53.3589 224.854 53.1392 224.902 52.8892 224.943C52.643 224.981 52.4025 225.015 52.1676 225.045C51.9366 225.072 51.7491 225.095 51.6051 225.114C51.2566 225.159 50.9309 225.233 50.6278 225.335C50.3286 225.434 50.0862 225.583 49.9006 225.784C49.7188 225.981 49.6278 226.25 49.6278 226.591C49.6278 227.057 49.8002 227.409 50.1449 227.648C50.4934 227.883 50.9347 228 51.4688 228ZM57.7116 229V220.273H59.0526V229H57.7116ZM58.3935 218.818C58.1321 218.818 57.9067 218.729 57.7173 218.551C57.5317 218.373 57.4389 218.159 57.4389 217.909C57.4389 217.659 57.5317 217.445 57.7173 217.267C57.9067 217.089 58.1321 217 58.3935 217C58.6548 217 58.8783 217.089 59.0639 217.267C59.2533 217.445 59.348 217.659 59.348 217.909C59.348 218.159 59.2533 218.373 59.0639 218.551C58.8783 218.729 58.6548 218.818 58.3935 218.818ZM62.8494 217.364V229H61.5085V217.364H62.8494Z" fill="#1E1E1E"/>
<path d="M24 250C24 245.582 27.5817 242 32 242H876C880.418 242 884 245.582 884 250V274C884 278.418 880.418 282 876 282H32C27.5817 282 24 278.418 24 274V250Z" fill="#1E1E1E"/>
<path d="M32 242V242.5H876V242V241.5H32V242ZM884 250H883.5V274H884H884.5V250H884ZM876 282V281.5H32V282V282.5H876V282ZM24 274H24.5V250H24H23.5V274H24ZM32 282V281.5C27.8579 281.5 24.5 278.142 24.5 274H24H23.5C23.5 278.694 27.3056 282.5 32 282.5V282ZM884 274H883.5C883.5 278.142 880.142 281.5 876 281.5V282V282.5C880.694 282.5 884.5 278.694 884.5 274H884ZM876 242V242.5C880.142 242.5 883.5 245.858 883.5 250H884H884.5C884.5 245.306 880.694 241.5 876 241.5V242ZM32 242V241.5C27.3056 241.5 23.5 245.306 23.5 250H24H24.5C24.5 245.858 27.8579 242.5 32 242.5V242Z" fill="#14AE5C"/>
<path d="M41.8864 256.364L45.3409 266.159H45.4773L48.9318 256.364H50.4091L46.1364 268H44.6818L40.4091 256.364H41.8864ZM53.7955 268.205C53.2424 268.205 52.7405 268.1 52.2898 267.892C51.839 267.68 51.4811 267.375 51.2159 266.977C50.9508 266.576 50.8182 266.091 50.8182 265.523C50.8182 265.023 50.9167 264.617 51.1136 264.307C51.3106 263.992 51.5739 263.746 51.9034 263.568C52.233 263.39 52.5966 263.258 52.9943 263.17C53.3958 263.08 53.7992 263.008 54.2045 262.955C54.7348 262.886 55.1648 262.835 55.4943 262.801C55.8277 262.763 56.0701 262.701 56.2216 262.614C56.3769 262.527 56.4545 262.375 56.4545 262.159V262.114C56.4545 261.553 56.3011 261.117 55.9943 260.807C55.6913 260.496 55.2311 260.341 54.6136 260.341C53.9735 260.341 53.4716 260.481 53.108 260.761C52.7443 261.042 52.4886 261.341 52.3409 261.659L51.0682 261.205C51.2955 260.674 51.5985 260.261 51.9773 259.966C52.3598 259.667 52.7765 259.458 53.2273 259.341C53.6818 259.22 54.1288 259.159 54.5682 259.159C54.8485 259.159 55.1705 259.193 55.5341 259.261C55.9015 259.326 56.2557 259.46 56.5966 259.665C56.9413 259.869 57.2273 260.178 57.4545 260.591C57.6818 261.004 57.7955 261.557 57.7955 262.25V268H56.4545V266.818H56.3864C56.2955 267.008 56.1439 267.21 55.9318 267.426C55.7197 267.642 55.4375 267.826 55.0852 267.977C54.733 268.129 54.303 268.205 53.7955 268.205ZM54 267C54.5303 267 54.9773 266.896 55.3409 266.688C55.7083 266.479 55.9848 266.21 56.1705 265.881C56.3598 265.551 56.4545 265.205 56.4545 264.841V263.614C56.3977 263.682 56.2727 263.744 56.0795 263.801C55.8902 263.854 55.6705 263.902 55.4205 263.943C55.1742 263.981 54.9337 264.015 54.6989 264.045C54.4678 264.072 54.2803 264.095 54.1364 264.114C53.7879 264.159 53.4621 264.233 53.1591 264.335C52.8598 264.434 52.6174 264.583 52.4318 264.784C52.25 264.981 52.1591 265.25 52.1591 265.591C52.1591 266.057 52.3314 266.409 52.6761 266.648C53.0246 266.883 53.4659 267 54 267ZM61.5838 256.364V268H60.2429V256.364H61.5838ZM69.5398 264.432V259.273H70.8807V268H69.5398V266.523H69.4489C69.2443 266.966 68.9261 267.343 68.4943 267.653C68.0625 267.96 67.517 268.114 66.858 268.114C66.3125 268.114 65.8277 267.994 65.4034 267.756C64.9792 267.513 64.6458 267.15 64.4034 266.665C64.161 266.176 64.0398 265.561 64.0398 264.818V259.273H65.3807V264.727C65.3807 265.364 65.5587 265.871 65.9148 266.25C66.2746 266.629 66.733 266.818 67.2898 266.818C67.6231 266.818 67.9621 266.733 68.3068 266.562C68.6553 266.392 68.947 266.131 69.1818 265.778C69.4205 265.426 69.5398 264.977 69.5398 264.432ZM76.9957 268.182C76.1548 268.182 75.4295 267.996 74.8196 267.625C74.2135 267.25 73.7457 266.727 73.4162 266.057C73.0904 265.383 72.9276 264.598 72.9276 263.705C72.9276 262.811 73.0904 262.023 73.4162 261.341C73.7457 260.655 74.2041 260.121 74.7912 259.739C75.3821 259.352 76.0715 259.159 76.8594 259.159C77.3139 259.159 77.7628 259.235 78.206 259.386C78.6491 259.538 79.0526 259.784 79.4162 260.125C79.7798 260.462 80.0696 260.909 80.2855 261.466C80.5014 262.023 80.6094 262.708 80.6094 263.523V264.091H73.8821V262.932H79.2457C79.2457 262.439 79.1473 262 78.9503 261.614C78.7571 261.227 78.4806 260.922 78.1207 260.699C77.7647 260.475 77.3442 260.364 76.8594 260.364C76.3253 260.364 75.8632 260.496 75.473 260.761C75.0866 261.023 74.7893 261.364 74.581 261.784C74.3726 262.205 74.2685 262.655 74.2685 263.136V263.909C74.2685 264.568 74.3821 265.127 74.6094 265.585C74.8404 266.04 75.1605 266.386 75.5696 266.625C75.9787 266.86 76.4541 266.977 76.9957 266.977C77.348 266.977 77.6662 266.928 77.9503 266.83C78.2382 266.727 78.4863 266.576 78.6946 266.375C78.9029 266.17 79.0639 265.917 79.1776 265.614L80.473 265.977C80.3366 266.417 80.1075 266.803 79.7855 267.136C79.4635 267.466 79.0658 267.723 78.5923 267.909C78.1188 268.091 77.5866 268.182 76.9957 268.182Z" fill="#B3B3B3"/>
<path d="M25.4091 311.364H27.0909L31.0455 321.023H31.1818L35.1364 311.364H36.8182V323H35.5V314.159H35.3864L31.75 323H30.4773L26.8409 314.159H26.7273V323H25.4091V311.364ZM43.1207 323.182C42.2798 323.182 41.5545 322.996 40.9446 322.625C40.3385 322.25 39.8707 321.727 39.5412 321.057C39.2154 320.383 39.0526 319.598 39.0526 318.705C39.0526 317.811 39.2154 317.023 39.5412 316.341C39.8707 315.655 40.3291 315.121 40.9162 314.739C41.5071 314.352 42.1965 314.159 42.9844 314.159C43.4389 314.159 43.8878 314.235 44.331 314.386C44.7741 314.538 45.1776 314.784 45.5412 315.125C45.9048 315.462 46.1946 315.909 46.4105 316.466C46.6264 317.023 46.7344 317.708 46.7344 318.523V319.091H40.0071V317.932H45.3707C45.3707 317.439 45.2723 317 45.0753 316.614C44.8821 316.227 44.6056 315.922 44.2457 315.699C43.8897 315.475 43.4692 315.364 42.9844 315.364C42.4503 315.364 41.9882 315.496 41.598 315.761C41.2116 316.023 40.9143 316.364 40.706 316.784C40.4976 317.205 40.3935 317.655 40.3935 318.136V318.909C40.3935 319.568 40.5071 320.127 40.7344 320.585C40.9654 321.04 41.2855 321.386 41.6946 321.625C42.1037 321.86 42.5791 321.977 43.1207 321.977C43.473 321.977 43.7912 321.928 44.0753 321.83C44.3632 321.727 44.6113 321.576 44.8196 321.375C45.0279 321.17 45.1889 320.917 45.3026 320.614L46.598 320.977C46.4616 321.417 46.2325 321.803 45.9105 322.136C45.5885 322.466 45.1908 322.723 44.7173 322.909C44.2438 323.091 43.7116 323.182 43.1207 323.182ZM54.956 316.227L53.7514 316.568C53.6757 316.367 53.5639 316.172 53.4162 315.983C53.2723 315.79 53.0753 315.631 52.8253 315.506C52.5753 315.381 52.2552 315.318 51.8651 315.318C51.331 315.318 50.8859 315.441 50.5298 315.688C50.1776 315.93 50.0014 316.239 50.0014 316.614C50.0014 316.947 50.1226 317.21 50.3651 317.403C50.6075 317.597 50.9863 317.758 51.5014 317.886L52.7969 318.205C53.5772 318.394 54.1586 318.684 54.5412 319.074C54.9238 319.46 55.1151 319.958 55.1151 320.568C55.1151 321.068 54.9711 321.515 54.6832 321.909C54.3991 322.303 54.0014 322.614 53.4901 322.841C52.9787 323.068 52.384 323.182 51.706 323.182C50.8158 323.182 50.0791 322.989 49.4957 322.602C48.9124 322.216 48.5431 321.652 48.3878 320.909L49.6605 320.591C49.7817 321.061 50.0109 321.413 50.348 321.648C50.6889 321.883 51.134 322 51.6832 322C52.3082 322 52.8045 321.867 53.1719 321.602C53.5431 321.333 53.7287 321.011 53.7287 320.636C53.7287 320.333 53.6226 320.08 53.4105 319.875C53.1984 319.667 52.8726 319.511 52.4332 319.409L50.9787 319.068C50.1795 318.879 49.5923 318.585 49.2173 318.188C48.8461 317.786 48.6605 317.284 48.6605 316.682C48.6605 316.189 48.7988 315.754 49.0753 315.375C49.3556 314.996 49.7363 314.699 50.2173 314.483C50.7022 314.267 51.2514 314.159 51.8651 314.159C52.7287 314.159 53.4067 314.348 53.8991 314.727C54.3954 315.106 54.7476 315.606 54.956 316.227ZM63.3153 316.227L62.1108 316.568C62.035 316.367 61.9233 316.172 61.7756 315.983C61.6316 315.79 61.4347 315.631 61.1847 315.506C60.9347 315.381 60.6146 315.318 60.2244 315.318C59.6903 315.318 59.2453 315.441 58.8892 315.688C58.5369 315.93 58.3608 316.239 58.3608 316.614C58.3608 316.947 58.482 317.21 58.7244 317.403C58.9669 317.597 59.3456 317.758 59.8608 317.886L61.1562 318.205C61.9366 318.394 62.518 318.684 62.9006 319.074C63.2831 319.46 63.4744 319.958 63.4744 320.568C63.4744 321.068 63.3305 321.515 63.0426 321.909C62.7585 322.303 62.3608 322.614 61.8494 322.841C61.3381 323.068 60.7434 323.182 60.0653 323.182C59.1752 323.182 58.4384 322.989 57.8551 322.602C57.2718 322.216 56.9025 321.652 56.7472 320.909L58.0199 320.591C58.1411 321.061 58.3703 321.413 58.7074 321.648C59.0483 321.883 59.4934 322 60.0426 322C60.6676 322 61.1638 321.867 61.5312 321.602C61.9025 321.333 62.0881 321.011 62.0881 320.636C62.0881 320.333 61.982 320.08 61.7699 319.875C61.5578 319.667 61.232 319.511 60.7926 319.409L59.3381 319.068C58.5388 318.879 57.9517 318.585 57.5767 318.188C57.2055 317.786 57.0199 317.284 57.0199 316.682C57.0199 316.189 57.1581 315.754 57.4347 315.375C57.715 314.996 58.0956 314.699 58.5767 314.483C59.0616 314.267 59.6108 314.159 60.2244 314.159C61.0881 314.159 61.7661 314.348 62.2585 314.727C62.7547 315.106 63.107 315.606 63.3153 316.227ZM68.0611 323.205C67.508 323.205 67.0062 323.1 66.5554 322.892C66.1046 322.68 65.7467 322.375 65.4815 321.977C65.2164 321.576 65.0838 321.091 65.0838 320.523C65.0838 320.023 65.1823 319.617 65.3793 319.307C65.5762 318.992 65.8395 318.746 66.169 318.568C66.4986 318.39 66.8622 318.258 67.2599 318.17C67.6615 318.08 68.0649 318.008 68.4702 317.955C69.0005 317.886 69.4304 317.835 69.7599 317.801C70.0933 317.763 70.3357 317.701 70.4872 317.614C70.6425 317.527 70.7202 317.375 70.7202 317.159V317.114C70.7202 316.553 70.5668 316.117 70.2599 315.807C69.9569 315.496 69.4967 315.341 68.8793 315.341C68.2391 315.341 67.7372 315.481 67.3736 315.761C67.0099 316.042 66.7543 316.341 66.6065 316.659L65.3338 316.205C65.5611 315.674 65.8641 315.261 66.2429 314.966C66.6255 314.667 67.0421 314.458 67.4929 314.341C67.9474 314.22 68.3944 314.159 68.8338 314.159C69.1141 314.159 69.4361 314.193 69.7997 314.261C70.1671 314.326 70.5213 314.46 70.8622 314.665C71.2069 314.869 71.4929 315.178 71.7202 315.591C71.9474 316.004 72.0611 316.557 72.0611 317.25V323H70.7202V321.818H70.652C70.5611 322.008 70.4096 322.21 70.1974 322.426C69.9853 322.642 69.7031 322.826 69.3509 322.977C68.9986 323.129 68.5687 323.205 68.0611 323.205ZM68.2656 322C68.7959 322 69.2429 321.896 69.6065 321.688C69.974 321.479 70.2505 321.21 70.4361 320.881C70.6255 320.551 70.7202 320.205 70.7202 319.841V318.614C70.6634 318.682 70.5384 318.744 70.3452 318.801C70.1558 318.854 69.9361 318.902 69.6861 318.943C69.4399 318.981 69.1993 319.015 68.9645 319.045C68.7334 319.072 68.5459 319.095 68.402 319.114C68.0535 319.159 67.7277 319.233 67.4247 319.335C67.1255 319.434 66.883 319.583 66.6974 319.784C66.5156 319.981 66.4247 320.25 66.4247 320.591C66.4247 321.057 66.5971 321.409 66.9418 321.648C67.2902 321.883 67.7315 322 68.2656 322ZM78.0312 326.455C77.3835 326.455 76.8267 326.371 76.3608 326.205C75.8949 326.042 75.5066 325.826 75.196 325.557C74.8892 325.292 74.6449 325.008 74.4631 324.705L75.5312 323.955C75.6525 324.114 75.8059 324.295 75.9915 324.5C76.1771 324.708 76.4309 324.888 76.7528 325.04C77.0786 325.195 77.5047 325.273 78.0312 325.273C78.7358 325.273 79.3172 325.102 79.7756 324.761C80.2339 324.42 80.4631 323.886 80.4631 323.159V321.386H80.3494C80.2509 321.545 80.1108 321.742 79.929 321.977C79.7509 322.208 79.4934 322.415 79.1562 322.597C78.8229 322.775 78.3722 322.864 77.804 322.864C77.0994 322.864 76.4669 322.697 75.9062 322.364C75.3494 322.03 74.9081 321.545 74.5824 320.909C74.2604 320.273 74.0994 319.5 74.0994 318.591C74.0994 317.697 74.2566 316.919 74.571 316.256C74.8854 315.589 75.3229 315.074 75.8835 314.71C76.4441 314.343 77.0919 314.159 77.8267 314.159C78.3949 314.159 78.8456 314.254 79.179 314.443C79.5161 314.629 79.7737 314.841 79.9517 315.08C80.1335 315.314 80.2737 315.508 80.3722 315.659H80.5085V314.273H81.804V323.25C81.804 324 81.6335 324.61 81.2926 325.08C80.9555 325.553 80.5009 325.9 79.929 326.119C79.3608 326.343 78.7282 326.455 78.0312 326.455ZM77.9858 321.659C78.5237 321.659 78.9782 321.536 79.3494 321.29C79.7206 321.044 80.0028 320.689 80.196 320.227C80.3892 319.765 80.4858 319.212 80.4858 318.568C80.4858 317.939 80.3911 317.384 80.2017 316.903C80.0123 316.422 79.732 316.045 79.3608 315.773C78.9896 315.5 78.5313 315.364 77.9858 315.364C77.4176 315.364 76.9441 315.508 76.5653 315.795C76.1903 316.083 75.9081 316.47 75.7188 316.955C75.5331 317.439 75.4403 317.977 75.4403 318.568C75.4403 319.174 75.535 319.71 75.7244 320.176C75.9176 320.638 76.2017 321.002 76.5767 321.267C76.9555 321.528 77.4252 321.659 77.9858 321.659ZM87.9176 323.182C87.0767 323.182 86.3513 322.996 85.7415 322.625C85.1354 322.25 84.6676 321.727 84.3381 321.057C84.0123 320.383 83.8494 319.598 83.8494 318.705C83.8494 317.811 84.0123 317.023 84.3381 316.341C84.6676 315.655 85.1259 315.121 85.7131 314.739C86.304 314.352 86.9934 314.159 87.7812 314.159C88.2358 314.159 88.6847 314.235 89.1278 314.386C89.571 314.538 89.9744 314.784 90.3381 315.125C90.7017 315.462 90.9915 315.909 91.2074 316.466C91.4233 317.023 91.5312 317.708 91.5312 318.523V319.091H84.804V317.932H90.1676C90.1676 317.439 90.0691 317 89.8722 316.614C89.679 316.227 89.4025 315.922 89.0426 315.699C88.6866 315.475 88.2661 315.364 87.7812 315.364C87.2472 315.364 86.785 315.496 86.3949 315.761C86.0085 316.023 85.7112 316.364 85.5028 316.784C85.2945 317.205 85.1903 317.655 85.1903 318.136V318.909C85.1903 319.568 85.304 320.127 85.5312 320.585C85.7623 321.04 86.0824 321.386 86.4915 321.625C86.9006 321.86 87.3759 321.977 87.9176 321.977C88.2699 321.977 88.5881 321.928 88.8722 321.83C89.16 321.727 89.4081 321.576 89.6165 321.375C89.8248 321.17 89.9858 320.917 90.0994 320.614L91.3949 320.977C91.2585 321.417 91.0294 321.803 90.7074 322.136C90.3854 322.466 89.9877 322.723 89.5142 322.909C89.0407 323.091 88.5085 323.182 87.9176 323.182Z" fill="#1E1E1E"/>
<path d="M24 344C24 339.582 27.5817 336 32 336H876C880.418 336 884 339.582 884 344V408C884 412.418 880.418 416 876 416H32C27.5817 416 24 412.418 24 408V344Z" fill="#1E1E1E"/>
<path d="M32 336V336.5H876V336V335.5H32V336ZM884 344H883.5V408H884H884.5V344H884ZM876 416V415.5H32V416V416.5H876V416ZM24 408H24.5V344H24H23.5V408H24ZM32 416V415.5C27.8579 415.5 24.5 412.142 24.5 408H24H23.5C23.5 412.694 27.3056 416.5 32 416.5V416ZM884 408H883.5C883.5 412.142 880.142 415.5 876 415.5V416V416.5C880.694 416.5 884.5 412.694 884.5 408H884ZM876 336V336.5C880.142 336.5 883.5 339.858 883.5 344H884H884.5C884.5 339.306 880.694 335.5 876 335.5V336ZM32 336V335.5C27.3056 335.5 23.5 339.306 23.5 344H24H24.5C24.5 339.858 27.8579 336.5 32 336.5V336Z" fill="#14AE5C"/>
<path d="M41.8864 353.364L45.3409 363.159H45.4773L48.9318 353.364H50.4091L46.1364 365H44.6818L40.4091 353.364H41.8864ZM53.7955 365.205C53.2424 365.205 52.7405 365.1 52.2898 364.892C51.839 364.68 51.4811 364.375 51.2159 363.977C50.9508 363.576 50.8182 363.091 50.8182 362.523C50.8182 362.023 50.9167 361.617 51.1136 361.307C51.3106 360.992 51.5739 360.746 51.9034 360.568C52.233 360.39 52.5966 360.258 52.9943 360.17C53.3958 360.08 53.7992 360.008 54.2045 359.955C54.7348 359.886 55.1648 359.835 55.4943 359.801C55.8277 359.763 56.0701 359.701 56.2216 359.614C56.3769 359.527 56.4545 359.375 56.4545 359.159V359.114C56.4545 358.553 56.3011 358.117 55.9943 357.807C55.6913 357.496 55.2311 357.341 54.6136 357.341C53.9735 357.341 53.4716 357.481 53.108 357.761C52.7443 358.042 52.4886 358.341 52.3409 358.659L51.0682 358.205C51.2955 357.674 51.5985 357.261 51.9773 356.966C52.3598 356.667 52.7765 356.458 53.2273 356.341C53.6818 356.22 54.1288 356.159 54.5682 356.159C54.8485 356.159 55.1705 356.193 55.5341 356.261C55.9015 356.326 56.2557 356.46 56.5966 356.665C56.9413 356.869 57.2273 357.178 57.4545 357.591C57.6818 358.004 57.7955 358.557 57.7955 359.25V365H56.4545V363.818H56.3864C56.2955 364.008 56.1439 364.21 55.9318 364.426C55.7197 364.642 55.4375 364.826 55.0852 364.977C54.733 365.129 54.303 365.205 53.7955 365.205ZM54 364C54.5303 364 54.9773 363.896 55.3409 363.688C55.7083 363.479 55.9848 363.21 56.1705 362.881C56.3598 362.551 56.4545 362.205 56.4545 361.841V360.614C56.3977 360.682 56.2727 360.744 56.0795 360.801C55.8902 360.854 55.6705 360.902 55.4205 360.943C55.1742 360.981 54.9337 361.015 54.6989 361.045C54.4678 361.072 54.2803 361.095 54.1364 361.114C53.7879 361.159 53.4621 361.233 53.1591 361.335C52.8598 361.434 52.6174 361.583 52.4318 361.784C52.25 361.981 52.1591 362.25 52.1591 362.591C52.1591 363.057 52.3314 363.409 52.6761 363.648C53.0246 363.883 53.4659 364 54 364ZM61.5838 353.364V365H60.2429V353.364H61.5838ZM69.5398 361.432V356.273H70.8807V365H69.5398V363.523H69.4489C69.2443 363.966 68.9261 364.343 68.4943 364.653C68.0625 364.96 67.517 365.114 66.858 365.114C66.3125 365.114 65.8277 364.994 65.4034 364.756C64.9792 364.513 64.6458 364.15 64.4034 363.665C64.161 363.176 64.0398 362.561 64.0398 361.818V356.273H65.3807V361.727C65.3807 362.364 65.5587 362.871 65.9148 363.25C66.2746 363.629 66.733 363.818 67.2898 363.818C67.6231 363.818 67.9621 363.733 68.3068 363.562C68.6553 363.392 68.947 363.131 69.1818 362.778C69.4205 362.426 69.5398 361.977 69.5398 361.432ZM76.9957 365.182C76.1548 365.182 75.4295 364.996 74.8196 364.625C74.2135 364.25 73.7457 363.727 73.4162 363.057C73.0904 362.383 72.9276 361.598 72.9276 360.705C72.9276 359.811 73.0904 359.023 73.4162 358.341C73.7457 357.655 74.2041 357.121 74.7912 356.739C75.3821 356.352 76.0715 356.159 76.8594 356.159C77.3139 356.159 77.7628 356.235 78.206 356.386C78.6491 356.538 79.0526 356.784 79.4162 357.125C79.7798 357.462 80.0696 357.909 80.2855 358.466C80.5014 359.023 80.6094 359.708 80.6094 360.523V361.091H73.8821V359.932H79.2457C79.2457 359.439 79.1473 359 78.9503 358.614C78.7571 358.227 78.4806 357.922 78.1207 357.699C77.7647 357.475 77.3442 357.364 76.8594 357.364C76.3253 357.364 75.8632 357.496 75.473 357.761C75.0866 358.023 74.7893 358.364 74.581 358.784C74.3726 359.205 74.2685 359.655 74.2685 360.136V360.909C74.2685 361.568 74.3821 362.127 74.6094 362.585C74.8404 363.04 75.1605 363.386 75.5696 363.625C75.9787 363.86 76.4541 363.977 76.9957 363.977C77.348 363.977 77.6662 363.928 77.9503 363.83C78.2382 363.727 78.4863 363.576 78.6946 363.375C78.9029 363.17 79.0639 362.917 79.1776 362.614L80.473 362.977C80.3366 363.417 80.1075 363.803 79.7855 364.136C79.4635 364.466 79.0658 364.723 78.5923 364.909C78.1188 365.091 77.5866 365.182 76.9957 365.182Z" fill="#B3B3B3"/>
<path d="M878.523 403.354L872.354 409.523M878.981 406.896L875.896 409.981" stroke="#B3B3B3"/>
<mask id="path-20-inside-2_62_301" fill="white">
<path d="M24 448C24 443.582 27.5817 440 32 440H876C880.418 440 884 443.582 884 448V472C884 476.418 880.418 480 876 480H32C27.5817 480 24 476.418 24 472V448Z"/>
</mask>
<path d="M24 448C24 443.582 27.5817 440 32 440H876C880.418 440 884 443.582 884 448V472C884 476.418 880.418 480 876 480H32C27.5817 480 24 476.418 24 472V448Z" fill="#2C2C2C"/>
<path d="M32 440V441H876V440V439H32V440ZM884 448H883V472H884H885V448H884ZM876 480V479H32V480V481H876V480ZM24 472H25V448H24H23V472H24ZM32 480V479C28.134 479 25 475.866 25 472H24H23C23 476.971 27.0294 481 32 481V480ZM884 472H883C883 475.866 879.866 479 876 479V480V481C880.971 481 885 476.971 885 472H884ZM876 440V441C879.866 441 883 444.134 883 448H884H885C885 443.029 880.971 439 876 439V440ZM32 440V439C27.0294 439 23 443.029 23 448H24H25C25 444.134 28.134 441 32 441V440Z" fill="#14AE5C" mask="url(#path-20-inside-2_62_301)"/>
<path d="M435.273 457.273C435.205 456.697 434.928 456.25 434.443 455.932C433.958 455.614 433.364 455.455 432.659 455.455C432.144 455.455 431.693 455.538 431.307 455.705C430.924 455.871 430.625 456.1 430.409 456.392C430.197 456.684 430.091 457.015 430.091 457.386C430.091 457.697 430.165 457.964 430.312 458.188C430.464 458.407 430.657 458.591 430.892 458.739C431.127 458.883 431.373 459.002 431.631 459.097C431.888 459.187 432.125 459.261 432.341 459.318L433.523 459.636C433.826 459.716 434.163 459.826 434.534 459.966C434.909 460.106 435.267 460.297 435.608 460.54C435.953 460.778 436.237 461.085 436.46 461.46C436.684 461.835 436.795 462.295 436.795 462.841C436.795 463.47 436.631 464.038 436.301 464.545C435.975 465.053 435.498 465.456 434.869 465.756C434.244 466.055 433.485 466.205 432.591 466.205C431.758 466.205 431.036 466.07 430.426 465.801C429.82 465.532 429.343 465.157 428.994 464.676C428.65 464.195 428.455 463.636 428.409 463H429.864C429.902 463.439 430.049 463.803 430.307 464.091C430.568 464.375 430.898 464.587 431.295 464.727C431.697 464.864 432.129 464.932 432.591 464.932C433.129 464.932 433.612 464.845 434.04 464.67C434.468 464.492 434.807 464.246 435.057 463.932C435.307 463.614 435.432 463.242 435.432 462.818C435.432 462.432 435.324 462.117 435.108 461.875C434.892 461.633 434.608 461.436 434.256 461.284C433.903 461.133 433.523 461 433.114 460.886L431.682 460.477C430.773 460.216 430.053 459.843 429.523 459.358C428.992 458.873 428.727 458.239 428.727 457.455C428.727 456.803 428.903 456.235 429.256 455.75C429.612 455.261 430.089 454.883 430.688 454.614C431.29 454.341 431.962 454.205 432.705 454.205C433.455 454.205 434.121 454.339 434.705 454.608C435.288 454.873 435.75 455.237 436.091 455.699C436.436 456.161 436.617 456.686 436.636 457.273H435.273ZM444.43 462.432V457.273H445.771V466H444.43V464.523H444.339C444.135 464.966 443.817 465.343 443.385 465.653C442.953 465.96 442.408 466.114 441.749 466.114C441.203 466.114 440.718 465.994 440.294 465.756C439.87 465.513 439.536 465.15 439.294 464.665C439.052 464.176 438.93 463.561 438.93 462.818V457.273H440.271V462.727C440.271 463.364 440.449 463.871 440.805 464.25C441.165 464.629 441.624 464.818 442.18 464.818C442.514 464.818 442.853 464.733 443.197 464.562C443.546 464.392 443.838 464.131 444.072 463.778C444.311 463.426 444.43 462.977 444.43 462.432ZM448.409 466V454.364H449.75V458.659H449.864C449.962 458.508 450.098 458.314 450.273 458.08C450.451 457.841 450.705 457.629 451.034 457.443C451.367 457.254 451.818 457.159 452.386 457.159C453.121 457.159 453.769 457.343 454.33 457.71C454.89 458.078 455.328 458.598 455.642 459.273C455.956 459.947 456.114 460.742 456.114 461.659C456.114 462.583 455.956 463.384 455.642 464.062C455.328 464.737 454.892 465.259 454.335 465.631C453.778 465.998 453.136 466.182 452.409 466.182C451.848 466.182 451.4 466.089 451.062 465.903C450.725 465.714 450.466 465.5 450.284 465.261C450.102 465.019 449.962 464.818 449.864 464.659H449.705V466H448.409ZM449.727 461.636C449.727 462.295 449.824 462.877 450.017 463.381C450.21 463.881 450.492 464.273 450.864 464.557C451.235 464.837 451.689 464.977 452.227 464.977C452.788 464.977 453.256 464.83 453.631 464.534C454.009 464.235 454.294 463.833 454.483 463.33C454.676 462.822 454.773 462.258 454.773 461.636C454.773 461.023 454.678 460.47 454.489 459.977C454.303 459.481 454.021 459.089 453.642 458.801C453.267 458.509 452.795 458.364 452.227 458.364C451.682 458.364 451.223 458.502 450.852 458.778C450.481 459.051 450.201 459.434 450.011 459.926C449.822 460.415 449.727 460.985 449.727 461.636ZM458.165 466V457.273H459.46V458.636H459.574C459.756 458.17 460.049 457.809 460.455 457.551C460.86 457.29 461.347 457.159 461.915 457.159C462.491 457.159 462.97 457.29 463.352 457.551C463.739 457.809 464.04 458.17 464.256 458.636H464.347C464.57 458.186 464.905 457.828 465.352 457.562C465.799 457.294 466.335 457.159 466.96 457.159C467.741 457.159 468.379 457.403 468.875 457.892C469.371 458.377 469.619 459.133 469.619 460.159V466H468.278V460.159C468.278 459.515 468.102 459.055 467.75 458.778C467.398 458.502 466.983 458.364 466.506 458.364C465.892 458.364 465.417 458.549 465.08 458.92C464.742 459.288 464.574 459.754 464.574 460.318V466H463.21V460.023C463.21 459.527 463.049 459.127 462.727 458.824C462.405 458.517 461.991 458.364 461.483 458.364C461.134 458.364 460.809 458.456 460.506 458.642C460.206 458.828 459.964 459.085 459.778 459.415C459.597 459.741 459.506 460.117 459.506 460.545V466H458.165ZM472.071 466V457.273H473.412V466H472.071ZM472.753 455.818C472.491 455.818 472.266 455.729 472.077 455.551C471.891 455.373 471.798 455.159 471.798 454.909C471.798 454.659 471.891 454.445 472.077 454.267C472.266 454.089 472.491 454 472.753 454C473.014 454 473.238 454.089 473.423 454.267C473.613 454.445 473.707 454.659 473.707 454.909C473.707 455.159 473.613 455.373 473.423 455.551C473.238 455.729 473.014 455.818 472.753 455.818ZM479.663 457.273V458.409H475.141V457.273H479.663ZM476.459 455.182H477.8V463.5C477.8 463.879 477.855 464.163 477.964 464.352C478.078 464.538 478.222 464.663 478.396 464.727C478.574 464.788 478.762 464.818 478.959 464.818C479.107 464.818 479.228 464.811 479.322 464.795C479.417 464.777 479.493 464.761 479.55 464.75L479.822 465.955C479.732 465.989 479.605 466.023 479.442 466.057C479.279 466.095 479.072 466.114 478.822 466.114C478.444 466.114 478.072 466.032 477.709 465.869C477.349 465.706 477.05 465.458 476.811 465.125C476.576 464.792 476.459 464.371 476.459 463.864V455.182Z" fill="#757575"/>
</svg>
