<svg width="201" height="37" viewBox="0 0 201 37" fill="none" xmlns="http://www.w3.org/2000/svg">
<path d="M0.261364 18.4545C0.261364 14.875 0.725379 11.5843 1.65341 8.58239C2.59091 5.57102 3.92614 2.80114 5.65909 0.272725H8.61364C7.93182 1.21023 7.29261 2.36553 6.69602 3.73864C6.1089 5.10227 5.5928 6.60322 5.14773 8.24148C4.70265 9.87026 4.35227 11.5559 4.09659 13.2983C3.85038 15.0407 3.72727 16.7595 3.72727 18.4545C3.72727 20.7083 3.94508 22.9953 4.38068 25.3153C4.81629 27.6354 5.40341 29.7898 6.14205 31.7784C6.88068 33.767 7.70455 35.3864 8.61364 36.6364H5.65909C3.92614 34.108 2.59091 31.3428 1.65341 28.3409C0.725379 25.3295 0.261364 22.0341 0.261364 18.4545ZM14.0149 33V3.90909H31.5717V7.03409H17.5376V16.8636H30.6626V19.9886H17.5376V29.875H31.799V33H14.0149ZM37.4666 33V11.1818H40.7053V14.4773H40.9325C41.3303 13.3977 42.05 12.5218 43.0916 11.8494C44.1333 11.1771 45.3075 10.8409 46.6143 10.8409C46.8606 10.8409 47.1683 10.8456 47.5376 10.8551C47.907 10.8646 48.1863 10.8788 48.3757 10.8977V14.3068C48.2621 14.2784 48.0017 14.2358 47.5945 14.179C47.1967 14.1127 46.7753 14.0795 46.3303 14.0795C45.2697 14.0795 44.3227 14.3021 43.4893 14.7472C42.6655 15.1828 42.0121 15.7888 41.5291 16.5653C41.0556 17.3324 40.8189 18.2083 40.8189 19.1932V33H37.4666ZM52.3494 33V11.1818H55.5881V14.4773H55.8153C56.2131 13.3977 56.9328 12.5218 57.9744 11.8494C59.0161 11.1771 60.1903 10.8409 61.4972 10.8409C61.7434 10.8409 62.0511 10.8456 62.4205 10.8551C62.7898 10.8646 63.0691 10.8788 63.2585 10.8977V14.3068C63.1449 14.2784 62.8845 14.2358 62.4773 14.179C62.0795 14.1127 61.6581 14.0795 61.2131 14.0795C60.1525 14.0795 59.2055 14.3021 58.3722 14.7472C57.5483 15.1828 56.8949 15.7888 56.4119 16.5653C55.9384 17.3324 55.7017 18.2083 55.7017 19.1932V33H52.3494ZM75.4318 33.4545C73.4621 33.4545 71.7339 32.9858 70.2472 32.0483C68.7699 31.1108 67.6146 29.7992 66.7812 28.1136C65.9574 26.428 65.5455 24.4583 65.5455 22.2045C65.5455 19.9318 65.9574 17.9479 66.7812 16.2528C67.6146 14.5578 68.7699 13.2415 70.2472 12.304C71.7339 11.3665 73.4621 10.8977 75.4318 10.8977C77.4015 10.8977 79.125 11.3665 80.6023 12.304C82.089 13.2415 83.2443 14.5578 84.0682 16.2528C84.9015 17.9479 85.3182 19.9318 85.3182 22.2045C85.3182 24.4583 84.9015 26.428 84.0682 28.1136C83.2443 29.7992 82.089 31.1108 80.6023 32.0483C79.125 32.9858 77.4015 33.4545 75.4318 33.4545ZM75.4318 30.4432C76.928 30.4432 78.1591 30.0597 79.125 29.2926C80.0909 28.5256 80.8059 27.517 81.2699 26.267C81.7339 25.017 81.9659 23.6629 81.9659 22.2045C81.9659 20.7462 81.7339 19.3873 81.2699 18.1278C80.8059 16.8684 80.0909 15.8504 79.125 15.0739C78.1591 14.2973 76.928 13.9091 75.4318 13.9091C73.9356 13.9091 72.7045 14.2973 71.7386 15.0739C70.7727 15.8504 70.0578 16.8684 69.5938 18.1278C69.1297 19.3873 68.8977 20.7462 68.8977 22.2045C68.8977 23.6629 69.1297 25.017 69.5938 26.267C70.0578 27.517 70.7727 28.5256 71.7386 29.2926C72.7045 30.0597 73.9356 30.4432 75.4318 30.4432ZM90.4354 33V11.1818H93.674V14.4773H93.9013C94.299 13.3977 95.0187 12.5218 96.0604 11.8494C97.102 11.1771 98.2763 10.8409 99.5831 10.8409C99.8293 10.8409 100.137 10.8456 100.506 10.8551C100.876 10.8646 101.155 10.8788 101.344 10.8977V14.3068C101.231 14.2784 100.97 14.2358 100.563 14.179C100.165 14.1127 99.7441 14.0795 99.299 14.0795C98.2384 14.0795 97.2914 14.3021 96.4581 14.7472C95.6342 15.1828 94.9808 15.7888 94.4979 16.5653C94.0244 17.3324 93.7876 18.2083 93.7876 19.1932V33H90.4354ZM115.83 27.0341V24.1364L128.614 3.90909H130.716V8.39773H129.295L119.636 23.6818V23.9091H136.852V27.0341H115.83ZM129.523 33V26.1534V24.804V3.90909H132.875V33H129.523ZM151.664 33.3977C149.524 33.3977 147.701 32.8153 146.195 31.6506C144.69 30.4763 143.539 28.7765 142.744 26.5511C141.948 24.3163 141.55 21.6174 141.55 18.4545C141.55 15.3106 141.948 12.6259 142.744 10.4006C143.549 8.16572 144.704 6.46117 146.21 5.28693C147.725 4.10322 149.543 3.51136 151.664 3.51136C153.785 3.51136 155.599 4.10322 157.104 5.28693C158.62 6.46117 159.775 8.16572 160.57 10.4006C161.375 12.6259 161.778 15.3106 161.778 18.4545C161.778 21.6174 161.38 24.3163 160.585 26.5511C159.789 28.7765 158.638 30.4763 157.133 31.6506C155.627 32.8153 153.804 33.3977 151.664 33.3977ZM151.664 30.2727C153.785 30.2727 155.433 29.25 156.607 27.2045C157.781 25.1591 158.369 22.2424 158.369 18.4545C158.369 15.9356 158.099 13.7907 157.559 12.0199C157.029 10.2491 156.262 8.89962 155.258 7.97159C154.263 7.04356 153.066 6.57955 151.664 6.57955C149.562 6.57955 147.919 7.61648 146.735 9.69034C145.551 11.7547 144.96 14.6761 144.96 18.4545C144.96 20.9735 145.225 23.1136 145.755 24.875C146.285 26.6364 147.048 27.9763 148.042 28.8949C149.046 29.8134 150.253 30.2727 151.664 30.2727ZM166.494 27.0341V24.1364L179.278 3.90909H181.38V8.39773H179.96L170.3 23.6818V23.9091H187.516V27.0341H166.494ZM180.187 33V26.1534V24.804V3.90909H183.539V33H180.187ZM200.055 18.4545C200.055 22.0341 199.587 25.3295 198.649 28.3409C197.721 31.3428 196.391 34.108 194.658 36.6364H191.703C192.385 35.6989 193.019 34.5436 193.607 33.1705C194.203 31.8068 194.724 30.3106 195.169 28.6818C195.614 27.0436 195.96 25.3532 196.206 23.6108C196.462 21.8589 196.589 20.1402 196.589 18.4545C196.589 16.2008 196.372 13.9138 195.936 11.5938C195.5 9.27367 194.913 7.11932 194.175 5.13068C193.436 3.14205 192.612 1.52273 191.703 0.272725H194.658C196.391 2.80114 197.721 5.57102 198.649 8.58239C199.587 11.5843 200.055 14.875 200.055 18.4545Z" fill="white"/>
</svg>
