<svg width="360" height="1920" viewBox="0 0 360 1920" fill="none" xmlns="http://www.w3.org/2000/svg">
<rect width="360" height="1920" fill="#009951"/>
<path d="M83.32 1209.24C81.48 1209.24 79.872 1208.9 78.496 1208.23C77.136 1207.56 76.08 1206.62 75.328 1205.42C74.576 1204.21 74.2 1202.78 74.2 1201.15C74.2 1199.79 74.44 1198.53 74.92 1197.36C75.416 1196.18 76.112 1195.14 77.008 1194.26C77.904 1193.38 78.96 1192.7 80.176 1192.22C81.408 1191.73 82.752 1191.48 84.208 1191.48C85.808 1191.48 87.208 1191.78 88.408 1192.39C89.624 1193 90.568 1193.85 91.24 1194.94C91.928 1196.01 92.272 1197.25 92.272 1198.66C92.272 1199.57 92.136 1200.43 91.864 1201.25C91.608 1202.05 91.248 1202.76 90.784 1203.38C90.32 1203.99 89.784 1204.47 89.176 1204.82C88.568 1205.18 87.92 1205.35 87.232 1205.35C86.736 1205.35 86.304 1205.24 85.936 1205.02C85.584 1204.78 85.352 1204.42 85.24 1203.96C85.128 1203.5 85.176 1202.94 85.384 1202.28L85.48 1203.14C85.064 1203.85 84.544 1204.39 83.92 1204.78C83.312 1205.16 82.656 1205.35 81.952 1205.35C80.88 1205.35 80 1204.98 79.312 1204.22C78.64 1203.46 78.304 1202.46 78.304 1201.25C78.304 1200.43 78.432 1199.66 78.688 1198.94C78.944 1198.22 79.296 1197.59 79.744 1197.05C80.208 1196.5 80.736 1196.08 81.328 1195.78C81.92 1195.46 82.552 1195.3 83.224 1195.3C84.184 1195.3 84.952 1195.57 85.528 1196.11C86.12 1196.66 86.408 1197.39 86.392 1198.32L86.104 1198.3L86.776 1195.73H88.672L86.992 1202.26C86.848 1202.82 86.832 1203.23 86.944 1203.5C87.072 1203.78 87.32 1203.91 87.688 1203.91C88.072 1203.91 88.44 1203.78 88.792 1203.5C89.144 1203.22 89.464 1202.83 89.752 1202.35C90.04 1201.87 90.264 1201.33 90.424 1200.72C90.6 1200.11 90.688 1199.47 90.688 1198.8C90.688 1197.63 90.416 1196.62 89.872 1195.75C89.328 1194.87 88.56 1194.19 87.568 1193.71C86.592 1193.22 85.456 1192.97 84.16 1192.97C82.928 1192.97 81.8 1193.18 80.776 1193.59C79.752 1194.01 78.864 1194.59 78.112 1195.34C77.376 1196.08 76.8 1196.94 76.384 1197.94C75.984 1198.91 75.784 1199.97 75.784 1201.1C75.784 1202.45 76.08 1203.62 76.672 1204.61C77.264 1205.6 78.112 1206.38 79.216 1206.94C80.336 1207.48 81.688 1207.75 83.272 1207.75C84.152 1207.75 85.024 1207.66 85.888 1207.46C86.768 1207.26 87.576 1206.97 88.312 1206.6L88.912 1207.9C88.224 1208.3 87.384 1208.62 86.392 1208.88C85.416 1209.12 84.392 1209.24 83.32 1209.24ZM82.576 1203.74C82.992 1203.74 83.384 1203.63 83.752 1203.41C84.136 1203.18 84.472 1202.88 84.76 1202.5C85.048 1202.1 85.272 1201.65 85.432 1201.15C85.608 1200.64 85.696 1200.11 85.696 1199.57C85.696 1198.77 85.48 1198.13 85.048 1197.65C84.632 1197.15 84.072 1196.9 83.368 1196.9C82.952 1196.9 82.552 1197.01 82.168 1197.22C81.8 1197.42 81.472 1197.72 81.184 1198.1C80.896 1198.47 80.672 1198.91 80.512 1199.42C80.352 1199.92 80.272 1200.46 80.272 1201.03C80.272 1201.86 80.48 1202.53 80.896 1203.02C81.328 1203.5 81.888 1203.74 82.576 1203.74ZM102.845 1209.24C101.661 1209.24 100.565 1209.02 99.5569 1208.59C98.5649 1208.14 97.7009 1207.53 96.9649 1206.74C96.2289 1205.94 95.6609 1205.01 95.2609 1203.94C94.8609 1202.85 94.6609 1201.66 94.6609 1200.36C94.6609 1199.06 94.8609 1197.88 95.2609 1196.81C95.6609 1195.72 96.2209 1194.78 96.9409 1194C97.6769 1193.2 98.5409 1192.58 99.5329 1192.15C100.541 1191.7 101.637 1191.48 102.821 1191.48C104.117 1191.48 105.277 1191.74 106.301 1192.27C107.341 1192.8 108.189 1193.54 108.845 1194.5C109.517 1195.46 109.933 1196.58 110.093 1197.86H108.125C107.933 1196.44 107.365 1195.32 106.421 1194.5C105.493 1193.67 104.301 1193.26 102.845 1193.26C101.613 1193.26 100.533 1193.56 99.6049 1194.17C98.6769 1194.76 97.9569 1195.59 97.4449 1196.66C96.9329 1197.72 96.6769 1198.95 96.6769 1200.36C96.6769 1201.77 96.9329 1203.01 97.4449 1204.08C97.9569 1205.14 98.6769 1205.97 99.6049 1206.58C100.533 1207.17 101.605 1207.46 102.821 1207.46C104.309 1207.46 105.525 1207.05 106.469 1206.22C107.429 1205.38 107.997 1204.26 108.173 1202.86H110.141C109.981 1204.14 109.565 1205.26 108.893 1206.22C108.237 1207.18 107.389 1207.92 106.349 1208.45C105.325 1208.98 104.157 1209.24 102.845 1209.24ZM113.17 1209V1191.72H115.09V1209H113.17ZM118.936 1209V1196.76H120.856V1209H118.936ZM118.792 1193.98V1191.72H121V1193.98H118.792ZM129.502 1209.24C128.382 1209.24 127.382 1208.97 126.502 1208.42C125.638 1207.86 124.95 1207.1 124.438 1206.14C123.942 1205.17 123.694 1204.06 123.694 1202.83C123.694 1201.6 123.942 1200.51 124.438 1199.57C124.95 1198.62 125.638 1197.88 126.502 1197.34C127.382 1196.79 128.374 1196.52 129.478 1196.52C130.39 1196.52 131.206 1196.7 131.926 1197.05C132.662 1197.4 133.262 1197.9 133.726 1198.56C134.206 1199.2 134.51 1199.95 134.638 1200.82H132.862C132.702 1200.03 132.334 1199.39 131.758 1198.9C131.182 1198.4 130.438 1198.15 129.526 1198.15C128.742 1198.15 128.062 1198.34 127.486 1198.73C126.91 1199.11 126.462 1199.66 126.142 1200.36C125.822 1201.06 125.662 1201.89 125.662 1202.83C125.662 1203.78 125.822 1204.61 126.142 1205.33C126.462 1206.05 126.91 1206.61 127.486 1207.01C128.078 1207.41 128.766 1207.61 129.55 1207.61C130.43 1207.61 131.166 1207.37 131.758 1206.89C132.35 1206.39 132.726 1205.75 132.886 1204.97H134.662C134.518 1205.82 134.198 1206.57 133.702 1207.22C133.222 1207.86 132.622 1208.36 131.902 1208.71C131.182 1209.06 130.382 1209.24 129.502 1209.24ZM137.451 1209V1191.24H139.371V1209H137.451ZM145.443 1209L138.939 1202.64L145.203 1196.76H147.843L140.811 1203.19L140.931 1202.06L148.083 1209H145.443ZM147.977 1211.83V1210.2H158.201V1211.83H147.977ZM158.45 1209L165.122 1191.72H166.85L160.346 1209H158.45ZM172.178 1209L165.674 1191.72H167.522L174.194 1209H172.178ZM161.762 1202.02H170.786V1203.74H161.762V1202.02ZM176.967 1209V1191.72H178.887V1209H176.967ZM187.629 1209.22C186.269 1209.22 185.277 1208.91 184.653 1208.3C184.045 1207.68 183.741 1206.78 183.741 1205.62V1193.9L185.661 1193.18V1205.59C185.661 1206.28 185.837 1206.78 186.189 1207.1C186.541 1207.42 187.117 1207.58 187.917 1207.58C188.237 1207.58 188.509 1207.57 188.733 1207.54C188.973 1207.49 189.165 1207.43 189.309 1207.37V1209C189.149 1209.06 188.917 1209.11 188.613 1209.14C188.325 1209.19 187.997 1209.22 187.629 1209.22ZM181.221 1198.39V1196.76H189.309V1198.39H181.221ZM196.538 1209.24C195.37 1209.24 194.338 1208.97 193.442 1208.42C192.546 1207.86 191.842 1207.1 191.33 1206.14C190.818 1205.18 190.562 1204.08 190.562 1202.83C190.562 1201.58 190.81 1200.49 191.306 1199.54C191.818 1198.58 192.53 1197.84 193.442 1197.31C194.354 1196.78 195.402 1196.52 196.586 1196.52C197.722 1196.52 198.706 1196.77 199.538 1197.26C200.386 1197.76 201.034 1198.46 201.482 1199.35C201.946 1200.25 202.178 1201.3 202.178 1202.52C202.178 1202.68 202.17 1202.83 202.154 1202.98C202.154 1203.12 202.138 1203.28 202.106 1203.46H192.002V1201.85H200.93L200.306 1202.74C200.306 1201.26 199.978 1200.14 199.322 1199.35C198.682 1198.55 197.77 1198.15 196.586 1198.15C195.37 1198.15 194.386 1198.58 193.634 1199.42C192.898 1200.26 192.53 1201.38 192.53 1202.81C192.53 1204.26 192.898 1205.43 193.634 1206.31C194.386 1207.18 195.386 1207.61 196.634 1207.61C197.418 1207.61 198.106 1207.44 198.698 1207.1C199.29 1206.75 199.722 1206.26 199.994 1205.62H201.818C201.418 1206.74 200.746 1207.62 199.802 1208.28C198.874 1208.92 197.786 1209.24 196.538 1209.24ZM205.068 1209V1196.76H206.868V1199.88H206.988V1209H205.068ZM206.988 1202.62L206.676 1199.71C206.964 1198.67 207.476 1197.88 208.212 1197.34C208.948 1196.79 209.796 1196.52 210.756 1196.52C211.156 1196.52 211.428 1196.55 211.572 1196.62V1198.46C211.492 1198.43 211.38 1198.42 211.236 1198.42C211.092 1198.4 210.916 1198.39 210.708 1198.39C209.492 1198.39 208.564 1198.76 207.924 1199.5C207.3 1200.22 206.988 1201.26 206.988 1202.62ZM214.068 1209V1196.76H215.868V1199.64H215.988V1209H214.068ZM222.828 1209V1200.98C222.828 1200.06 222.596 1199.36 222.132 1198.9C221.668 1198.43 220.98 1198.2 220.068 1198.2C219.268 1198.2 218.556 1198.38 217.932 1198.73C217.324 1199.08 216.844 1199.57 216.492 1200.19C216.156 1200.82 215.988 1201.54 215.988 1202.38L215.676 1199.47C216.092 1198.56 216.724 1197.84 217.572 1197.31C218.436 1196.78 219.412 1196.52 220.5 1196.52C221.78 1196.52 222.804 1196.89 223.572 1197.62C224.356 1198.34 224.748 1199.3 224.748 1200.48V1209H222.828ZM235.877 1209C235.813 1208.73 235.765 1208.42 235.733 1208.06C235.717 1207.71 235.709 1207.26 235.709 1206.72H235.589V1200.86C235.589 1199.94 235.373 1199.26 234.941 1198.82C234.525 1198.38 233.845 1198.15 232.901 1198.15C231.973 1198.15 231.229 1198.34 230.669 1198.73C230.125 1199.1 229.821 1199.62 229.757 1200.31H227.909C227.989 1199.13 228.485 1198.2 229.397 1197.53C230.309 1196.86 231.501 1196.52 232.973 1196.52C234.493 1196.52 235.621 1196.88 236.357 1197.6C237.093 1198.32 237.461 1199.4 237.461 1200.84V1206.72C237.461 1207.07 237.485 1207.44 237.533 1207.82C237.581 1208.19 237.645 1208.58 237.725 1209H235.877ZM231.677 1209.24C230.413 1209.24 229.405 1208.94 228.653 1208.33C227.917 1207.7 227.549 1206.86 227.549 1205.78C227.549 1204.71 227.917 1203.88 228.653 1203.29C229.389 1202.7 230.461 1202.28 231.869 1202.04L236.141 1201.32V1202.9L232.157 1203.53C231.261 1203.67 230.581 1203.91 230.117 1204.25C229.653 1204.58 229.421 1205.07 229.421 1205.71C229.421 1206.34 229.629 1206.81 230.045 1207.13C230.477 1207.45 231.109 1207.61 231.941 1207.61C233.013 1207.61 233.885 1207.37 234.557 1206.89C235.245 1206.39 235.589 1205.75 235.589 1204.97L235.901 1206.67C235.645 1207.49 235.141 1208.12 234.389 1208.57C233.653 1209.02 232.749 1209.24 231.677 1209.24ZM245.73 1209.22C244.37 1209.22 243.378 1208.91 242.754 1208.3C242.146 1207.68 241.842 1206.78 241.842 1205.62V1193.9L243.762 1193.18V1205.59C243.762 1206.28 243.938 1206.78 244.29 1207.1C244.642 1207.42 245.218 1207.58 246.018 1207.58C246.338 1207.58 246.61 1207.57 246.834 1207.54C247.074 1207.49 247.266 1207.43 247.41 1207.37V1209C247.25 1209.06 247.018 1209.11 246.714 1209.14C246.426 1209.19 246.098 1209.22 245.73 1209.22ZM239.322 1198.39V1196.76H247.41V1198.39H239.322ZM249.881 1209V1196.76H251.801V1209H249.881ZM249.737 1193.98V1191.72H251.945V1193.98H249.737ZM259.059 1209L253.995 1196.76H256.059L260.283 1207.7H259.515L263.715 1196.76H265.682L260.618 1209H259.059ZM272.828 1209.24C271.628 1209.24 270.572 1208.96 269.66 1208.4C268.748 1207.84 268.036 1207.08 267.524 1206.12C267.028 1205.14 266.78 1204.05 266.78 1202.83C266.78 1201.6 267.036 1200.51 267.548 1199.57C268.06 1198.62 268.764 1197.88 269.66 1197.34C270.572 1196.79 271.628 1196.52 272.828 1196.52C274.044 1196.52 275.1 1196.79 275.996 1197.34C276.908 1197.88 277.612 1198.62 278.108 1199.57C278.62 1200.51 278.876 1201.6 278.876 1202.83C278.876 1204.05 278.62 1205.14 278.108 1206.12C277.612 1207.08 276.908 1207.84 275.996 1208.4C275.1 1208.96 274.044 1209.24 272.828 1209.24ZM272.828 1207.61C273.66 1207.61 274.38 1207.41 274.988 1207.01C275.596 1206.59 276.068 1206.02 276.404 1205.3C276.74 1204.58 276.908 1203.75 276.908 1202.81C276.908 1201.4 276.532 1200.27 275.78 1199.42C275.044 1198.58 274.06 1198.15 272.828 1198.15C271.612 1198.15 270.628 1198.58 269.876 1199.42C269.124 1200.27 268.748 1201.4 268.748 1202.81C268.748 1203.75 268.916 1204.58 269.252 1205.3C269.588 1206.02 270.06 1206.59 270.668 1207.01C271.292 1207.41 272.012 1207.61 272.828 1207.61Z" fill="#020202"/>
<circle cx="138.5" cy="1138.5" r="32.5" fill="#1E1E1E"/>
<path d="M147.167 1129.83H147.183M129.667 1122.33H146.333C150.936 1122.33 154.667 1126.06 154.667 1130.67V1147.33C154.667 1151.94 150.936 1155.67 146.333 1155.67H129.667C125.064 1155.67 121.333 1151.94 121.333 1147.33V1130.67C121.333 1126.06 125.064 1122.33 129.667 1122.33ZM144.667 1137.95C144.872 1139.34 144.635 1140.75 143.99 1142C143.344 1143.24 142.322 1144.25 141.069 1144.88C139.817 1145.51 138.397 1145.73 137.013 1145.51C135.629 1145.29 134.35 1144.63 133.358 1143.64C132.367 1142.65 131.713 1141.37 131.49 1139.99C131.267 1138.6 131.487 1137.18 132.117 1135.93C132.748 1134.68 133.757 1133.66 135.002 1133.01C136.246 1132.36 137.663 1132.13 139.05 1132.33C140.465 1132.54 141.775 1133.2 142.786 1134.21C143.798 1135.23 144.457 1136.54 144.667 1137.95Z" stroke="#F3F3F3" stroke-width="4" stroke-linecap="round" stroke-linejoin="round"/>
<circle cx="221.5" cy="1138.5" r="32.5" fill="#1E1E1E"/>
<g clip-path="url(#clip0_36_17)">
<path d="M241.262 1128.04C241.04 1127.15 240.586 1126.33 239.947 1125.67C239.309 1125.02 238.508 1124.54 237.625 1124.29C234.4 1123.5 221.5 1123.5 221.5 1123.5C221.5 1123.5 208.6 1123.5 205.375 1124.36C204.492 1124.61 203.691 1125.09 203.052 1125.75C202.414 1126.41 201.96 1127.22 201.737 1128.11C201.147 1131.39 200.859 1134.71 200.875 1138.03C200.854 1141.38 201.143 1144.73 201.737 1148.03C201.983 1148.89 202.447 1149.67 203.084 1150.3C203.721 1150.93 204.51 1151.39 205.375 1151.63C208.6 1152.49 221.5 1152.49 221.5 1152.49C221.5 1152.49 234.4 1152.49 237.625 1151.63C238.508 1151.38 239.309 1150.9 239.947 1150.24C240.586 1149.58 241.04 1148.76 241.262 1147.88C241.848 1144.63 242.137 1141.33 242.125 1138.03C242.146 1134.68 241.857 1131.34 241.262 1128.04Z" stroke="#F3F3F3" stroke-width="4" stroke-linecap="round" stroke-linejoin="round"/>
<path d="M217.281 1144.16L228.062 1138.03L217.281 1131.9V1144.16Z" stroke="#F3F3F3" stroke-width="4" stroke-linecap="round" stroke-linejoin="round"/>
</g>
<rect x="30" y="966" width="300" height="100" fill="#1E1E1E"/>
<path d="M115.531 1033.31C113.044 1033.31 111.039 1032.54 109.516 1030.99C108.005 1029.44 107.25 1027.27 107.25 1024.48V1008.62C107.25 1005.29 107.908 1002.74 109.223 1000.97C110.551 999.198 112.706 998.312 115.688 998.312C117.315 998.312 118.76 998.612 120.023 999.211C121.299 999.81 122.302 1000.71 123.031 1001.91C123.76 1003.09 124.125 1004.59 124.125 1006.4V1012.34H117.289V1007.26C117.289 1006.23 117.159 1005.54 116.898 1005.19C116.638 1004.82 116.234 1004.64 115.688 1004.64C115.049 1004.64 114.62 1004.88 114.398 1005.34C114.177 1005.8 114.066 1006.41 114.066 1007.18V1024.39C114.066 1025.34 114.203 1026.01 114.477 1026.4C114.763 1026.79 115.167 1026.98 115.688 1026.98C116.273 1026.98 116.684 1026.74 116.918 1026.26C117.165 1025.78 117.289 1025.15 117.289 1024.39V1018.2H124.203V1024.7C124.203 1027.72 123.441 1029.91 121.918 1031.28C120.395 1032.64 118.266 1033.31 115.531 1033.31ZM134.711 1033.31C131.964 1033.31 129.861 1032.49 128.402 1030.83C126.957 1029.17 126.234 1026.76 126.234 1023.62V1007.3C126.234 1004.35 126.951 1002.12 128.383 1000.6C129.828 999.074 131.938 998.312 134.711 998.312C137.484 998.312 139.587 999.074 141.02 1000.6C142.465 1002.12 143.188 1004.35 143.188 1007.3V1023.62C143.188 1026.76 142.458 1029.17 141 1030.83C139.555 1032.49 137.458 1033.31 134.711 1033.31ZM134.77 1026.98C135.811 1026.98 136.332 1025.98 136.332 1023.96V1007.18C136.332 1005.49 135.824 1004.64 134.809 1004.64C133.663 1004.64 133.09 1005.51 133.09 1007.24V1024C133.09 1025.06 133.22 1025.83 133.48 1026.3C133.741 1026.76 134.171 1026.98 134.77 1026.98ZM145.961 1033V998.625H153.031L156.195 1015.09V998.625H162.836V1033H156.117L152.68 1015.81V1033H145.961ZM168.832 1033V1005.23H164.75V998.625H179.789V1005.23H175.707V1033H168.832ZM180.258 1033L183.578 998.625H195.238L198.5 1033H191.996L191.508 1027.45H187.367L186.938 1033H180.258ZM187.855 1021.96H190.98L189.477 1004.48H189.164L187.855 1021.96ZM208.617 1033.31C206.13 1033.31 204.125 1032.54 202.602 1030.99C201.091 1029.44 200.336 1027.27 200.336 1024.48V1008.62C200.336 1005.29 200.993 1002.74 202.309 1000.97C203.637 999.198 205.792 998.312 208.773 998.312C210.401 998.312 211.846 998.612 213.109 999.211C214.385 999.81 215.388 1000.71 216.117 1001.91C216.846 1003.09 217.211 1004.59 217.211 1006.4V1012.34H210.375V1007.26C210.375 1006.23 210.245 1005.54 209.984 1005.19C209.724 1004.82 209.32 1004.64 208.773 1004.64C208.135 1004.64 207.706 1004.88 207.484 1005.34C207.263 1005.8 207.152 1006.41 207.152 1007.18V1024.39C207.152 1025.34 207.289 1026.01 207.562 1026.4C207.849 1026.79 208.253 1026.98 208.773 1026.98C209.359 1026.98 209.77 1026.74 210.004 1026.26C210.251 1025.78 210.375 1025.15 210.375 1024.39V1018.2H217.289V1024.7C217.289 1027.72 216.527 1029.91 215.004 1031.28C213.48 1032.64 211.352 1033.31 208.617 1033.31ZM222.543 1033V1005.23H218.461V998.625H233.5V1005.23H229.418V1033H222.543ZM243.617 1033.31C240.87 1033.31 238.767 1032.49 237.309 1030.83C235.863 1029.17 235.141 1026.76 235.141 1023.62V1007.3C235.141 1004.35 235.857 1002.12 237.289 1000.6C238.734 999.074 240.844 998.312 243.617 998.312C246.391 998.312 248.493 999.074 249.926 1000.6C251.371 1002.12 252.094 1004.35 252.094 1007.3V1023.62C252.094 1026.76 251.365 1029.17 249.906 1030.83C248.461 1032.49 246.365 1033.31 243.617 1033.31ZM243.676 1026.98C244.717 1026.98 245.238 1025.98 245.238 1023.96V1007.18C245.238 1005.49 244.73 1004.64 243.715 1004.64C242.569 1004.64 241.996 1005.51 241.996 1007.24V1024C241.996 1025.06 242.126 1025.83 242.387 1026.3C242.647 1026.76 243.077 1026.98 243.676 1026.98Z" fill="#6BBF5B"/>
<rect x="30" y="825" width="300" height="100" fill="#1E1E1E"/>
<path d="M123.523 892V857.625H133.992L136.883 878.582L139.754 857.625H150.32V892H144.031V867.234L140.086 892H133.914L129.734 867.234V892H123.523ZM161.316 892.312C158.452 892.312 156.342 891.512 154.988 889.91C153.634 888.296 152.957 885.926 152.957 882.801V857.625H159.637V882.527C159.637 883.1 159.669 883.654 159.734 884.188C159.799 884.708 159.949 885.138 160.184 885.477C160.418 885.815 160.796 885.984 161.316 885.984C161.85 885.984 162.234 885.822 162.469 885.496C162.703 885.158 162.846 884.721 162.898 884.188C162.964 883.654 162.996 883.1 162.996 882.527V857.625H169.676V882.801C169.676 885.926 168.999 888.296 167.645 889.91C166.29 891.512 164.181 892.312 161.316 892.312ZM156.668 856.59V852.234L165.945 847.977V854.754L156.668 856.59ZM180.477 892.312C177.339 892.312 175.073 891.531 173.68 889.969C172.299 888.406 171.609 885.919 171.609 882.508V879.148H178.406V883.445C178.406 884.24 178.523 884.865 178.758 885.32C179.005 885.763 179.428 885.984 180.027 885.984C180.652 885.984 181.082 885.802 181.316 885.438C181.564 885.073 181.688 884.474 181.688 883.641C181.688 882.586 181.583 881.707 181.375 881.004C181.167 880.288 180.802 879.611 180.281 878.973C179.773 878.322 179.064 877.566 178.152 876.707L175.066 873.777C172.762 871.603 171.609 869.116 171.609 866.316C171.609 863.387 172.286 861.154 173.641 859.617C175.008 858.081 176.98 857.312 179.559 857.312C182.71 857.312 184.943 858.152 186.258 859.832C187.586 861.512 188.25 864.064 188.25 867.488H181.258V865.125C181.258 864.656 181.121 864.292 180.848 864.031C180.587 863.771 180.229 863.641 179.773 863.641C179.227 863.641 178.823 863.797 178.562 864.109C178.315 864.409 178.191 864.799 178.191 865.281C178.191 865.763 178.322 866.284 178.582 866.844C178.842 867.404 179.357 868.048 180.125 868.777L184.09 872.586C184.884 873.341 185.613 874.142 186.277 874.988C186.941 875.822 187.475 876.798 187.879 877.918C188.283 879.025 188.484 880.379 188.484 881.98C188.484 885.21 187.885 887.742 186.688 889.578C185.503 891.401 183.432 892.312 180.477 892.312ZM190.477 892V857.625H197.117V892H190.477ZM207.859 892.312C205.372 892.312 203.367 891.538 201.844 889.988C200.333 888.439 199.578 886.271 199.578 883.484V867.625C199.578 864.292 200.236 861.74 201.551 859.969C202.879 858.198 205.034 857.312 208.016 857.312C209.643 857.312 211.089 857.612 212.352 858.211C213.628 858.81 214.63 859.708 215.359 860.906C216.089 862.091 216.453 863.589 216.453 865.398V871.336H209.617V866.258C209.617 865.229 209.487 864.539 209.227 864.188C208.966 863.823 208.562 863.641 208.016 863.641C207.378 863.641 206.948 863.875 206.727 864.344C206.505 864.799 206.395 865.411 206.395 866.18V883.387C206.395 884.337 206.531 885.008 206.805 885.398C207.091 885.789 207.495 885.984 208.016 885.984C208.602 885.984 209.012 885.743 209.246 885.262C209.493 884.78 209.617 884.155 209.617 883.387V877.195H216.531V883.699C216.531 886.72 215.77 888.914 214.246 890.281C212.723 891.635 210.594 892.312 207.859 892.312ZM217.898 892L221.219 857.625H232.879L236.141 892H229.637L229.148 886.453H225.008L224.578 892H217.898ZM225.496 880.965H228.621L227.117 863.484H226.805L225.496 880.965Z" fill="#6BBF5B"/>
<rect x="30" y="545" width="300" height="100" fill="#1E1E1E"/>
<path d="M132.613 612.312C127.704 612.312 125.25 608.797 125.25 601.766V586.941C125.25 580.522 128.062 577.312 133.688 577.312C136.005 577.312 137.783 577.781 139.02 578.719C140.257 579.643 141.109 580.997 141.578 582.781C142.047 584.565 142.281 586.74 142.281 589.305H135.562V586.258C135.562 585.516 135.458 584.897 135.25 584.402C135.055 583.895 134.638 583.641 134 583.641C133.206 583.641 132.678 583.908 132.418 584.441C132.171 584.975 132.047 585.561 132.047 586.199V602.859C132.047 603.784 132.164 604.539 132.398 605.125C132.646 605.698 133.121 605.984 133.824 605.984C134.553 605.984 135.035 605.698 135.27 605.125C135.517 604.539 135.641 603.771 135.641 602.82V597.918H133.805V591.98H142.203V612H139.449L138.277 609.109C137.079 611.245 135.191 612.312 132.613 612.312ZM144 612L147.32 577.625H158.98L162.242 612H155.738L155.25 606.453H151.109L150.68 612H144ZM151.598 600.965H154.723L153.219 583.484H152.906L151.598 600.965ZM164.352 612V577.625H174.82L177.711 598.582L180.582 577.625H191.148V612H184.859V587.234L180.914 612H174.742L170.562 587.234V612H164.352ZM193.883 612V577.625H200.523V612H193.883ZM203.258 612V577.625H210.328L213.492 594.09V577.625H220.133V612H213.414L209.977 594.812V612H203.258ZM230.27 612.312C225.361 612.312 222.906 608.797 222.906 601.766V586.941C222.906 580.522 225.719 577.312 231.344 577.312C233.661 577.312 235.439 577.781 236.676 578.719C237.913 579.643 238.766 580.997 239.234 582.781C239.703 584.565 239.938 586.74 239.938 589.305H233.219V586.258C233.219 585.516 233.115 584.897 232.906 584.402C232.711 583.895 232.294 583.641 231.656 583.641C230.862 583.641 230.335 583.908 230.074 584.441C229.827 584.975 229.703 585.561 229.703 586.199V602.859C229.703 603.784 229.82 604.539 230.055 605.125C230.302 605.698 230.777 605.984 231.48 605.984C232.21 605.984 232.691 605.698 232.926 605.125C233.173 604.539 233.297 603.771 233.297 602.82V597.918H231.461V591.98H239.859V612H237.105L235.934 609.109C234.736 611.245 232.848 612.312 230.27 612.312Z" fill="#6BBF5B"/>
<rect x="30" y="685" width="300" height="100" fill="#1E1E1E"/>
<path d="M156.531 752.312C154.044 752.312 152.039 751.538 150.516 749.988C149.005 748.439 148.25 746.271 148.25 743.484V727.625C148.25 724.292 148.908 721.74 150.223 719.969C151.551 718.198 153.706 717.312 156.688 717.312C158.315 717.312 159.76 717.612 161.023 718.211C162.299 718.81 163.302 719.708 164.031 720.906C164.76 722.091 165.125 723.589 165.125 725.398V731.336H158.289V726.258C158.289 725.229 158.159 724.539 157.898 724.188C157.638 723.823 157.234 723.641 156.688 723.641C156.049 723.641 155.62 723.875 155.398 724.344C155.177 724.799 155.066 725.411 155.066 726.18V743.387C155.066 744.337 155.203 745.008 155.477 745.398C155.763 745.789 156.167 745.984 156.688 745.984C157.273 745.984 157.684 745.743 157.918 745.262C158.165 744.78 158.289 744.155 158.289 743.387V737.195H165.203V743.699C165.203 746.72 164.441 748.914 162.918 750.281C161.395 751.635 159.266 752.312 156.531 752.312ZM167.195 752V717.625H173.836V752H167.195ZM176.57 752V717.625H183.641L186.805 734.09V717.625H193.445V752H186.727L183.289 734.812V752H176.57ZM196.492 752V717.625H210.242V724.266H203.484V730.965H209.969V737.43H203.484V745.301H210.691V752H196.492Z" fill="#6BBF5B"/>
<rect x="30" y="411" width="300" height="100" fill="#1E1E1E"/>
<path d="M115.523 478V443.625H122.594L125.758 460.09V443.625H132.398V478H125.68L122.242 460.812V478H115.523ZM143.648 478.312C140.901 478.312 138.798 477.486 137.34 475.832C135.895 474.165 135.172 471.763 135.172 468.625V452.297C135.172 449.354 135.888 447.121 137.32 445.598C138.766 444.074 140.875 443.312 143.648 443.312C146.422 443.312 148.525 444.074 149.957 445.598C151.402 447.121 152.125 449.354 152.125 452.297V468.625C152.125 471.763 151.396 474.165 149.938 475.832C148.492 477.486 146.396 478.312 143.648 478.312ZM143.707 471.984C144.749 471.984 145.27 470.975 145.27 468.957V452.18C145.27 450.487 144.762 449.641 143.746 449.641C142.6 449.641 142.027 450.507 142.027 452.238V468.996C142.027 470.064 142.158 470.832 142.418 471.301C142.678 471.757 143.108 471.984 143.707 471.984ZM157.848 478V450.227H153.766V443.625H168.805V450.227H164.723V478H157.848ZM170.406 478V443.625H177.047V478H170.406ZM187.789 478.312C185.302 478.312 183.297 477.538 181.773 475.988C180.263 474.439 179.508 472.271 179.508 469.484V453.625C179.508 450.292 180.165 447.74 181.48 445.969C182.809 444.198 184.964 443.312 187.945 443.312C189.573 443.312 191.018 443.612 192.281 444.211C193.557 444.81 194.56 445.708 195.289 446.906C196.018 448.091 196.383 449.589 196.383 451.398V457.336H189.547V452.258C189.547 451.229 189.417 450.539 189.156 450.188C188.896 449.823 188.492 449.641 187.945 449.641C187.307 449.641 186.878 449.875 186.656 450.344C186.435 450.799 186.324 451.411 186.324 452.18V469.387C186.324 470.337 186.461 471.008 186.734 471.398C187.021 471.789 187.424 471.984 187.945 471.984C188.531 471.984 188.941 471.743 189.176 471.262C189.423 470.78 189.547 470.155 189.547 469.387V463.195H196.461V469.699C196.461 472.72 195.699 474.914 194.176 476.281C192.652 477.635 190.523 478.312 187.789 478.312ZM198.453 478V443.625H205.094V478H198.453ZM206.891 478L210.211 443.625H221.871L225.133 478H218.629L218.141 472.453H214L213.57 478H206.891ZM214.488 466.965H217.613L216.109 449.484H215.797L214.488 466.965ZM235.406 478.312C232.268 478.312 230.003 477.531 228.609 475.969C227.229 474.406 226.539 471.919 226.539 468.508V465.148H233.336V469.445C233.336 470.24 233.453 470.865 233.688 471.32C233.935 471.763 234.358 471.984 234.957 471.984C235.582 471.984 236.012 471.802 236.246 471.438C236.493 471.073 236.617 470.474 236.617 469.641C236.617 468.586 236.513 467.707 236.305 467.004C236.096 466.288 235.732 465.611 235.211 464.973C234.703 464.322 233.993 463.566 233.082 462.707L229.996 459.777C227.691 457.603 226.539 455.116 226.539 452.316C226.539 449.387 227.216 447.154 228.57 445.617C229.938 444.081 231.91 443.312 234.488 443.312C237.639 443.312 239.872 444.152 241.188 445.832C242.516 447.512 243.18 450.064 243.18 453.488H236.188V451.125C236.188 450.656 236.051 450.292 235.777 450.031C235.517 449.771 235.159 449.641 234.703 449.641C234.156 449.641 233.753 449.797 233.492 450.109C233.245 450.409 233.121 450.799 233.121 451.281C233.121 451.763 233.251 452.284 233.512 452.844C233.772 453.404 234.286 454.048 235.055 454.777L239.02 458.586C239.814 459.341 240.543 460.142 241.207 460.988C241.871 461.822 242.405 462.798 242.809 463.918C243.212 465.025 243.414 466.379 243.414 467.98C243.414 471.21 242.815 473.742 241.617 475.578C240.432 477.401 238.362 478.312 235.406 478.312Z" fill="#6BBF5B"/>
<rect x="30" y="278" width="300" height="100" fill="#1E1E1E"/>
<path d="M118.523 345V310.625H127.605C129.507 310.625 131.01 311.048 132.117 311.895C133.237 312.741 134.038 313.945 134.52 315.508C135.001 317.07 135.242 318.932 135.242 321.094C135.242 323.177 135.04 324.993 134.637 326.543C134.233 328.079 133.51 329.271 132.469 330.117C131.44 330.964 129.975 331.387 128.074 331.387H125.281V345H118.523ZM125.281 325.215H125.672C126.948 325.215 127.729 324.857 128.016 324.141C128.302 323.424 128.445 322.37 128.445 320.977C128.445 319.674 128.302 318.672 128.016 317.969C127.742 317.253 127.085 316.895 126.043 316.895H125.281V325.215ZM135.906 345L139.227 310.625H150.887L154.148 345H147.645L147.156 339.453H143.016L142.586 345H135.906ZM143.504 333.965H146.629L145.125 316.484H144.812L143.504 333.965ZM163.348 345.312C158.439 345.312 155.984 341.797 155.984 334.766V319.941C155.984 313.522 158.797 310.312 164.422 310.312C166.74 310.312 168.517 310.781 169.754 311.719C170.991 312.643 171.844 313.997 172.312 315.781C172.781 317.565 173.016 319.74 173.016 322.305H166.297V319.258C166.297 318.516 166.193 317.897 165.984 317.402C165.789 316.895 165.372 316.641 164.734 316.641C163.94 316.641 163.413 316.908 163.152 317.441C162.905 317.975 162.781 318.561 162.781 319.199V335.859C162.781 336.784 162.898 337.539 163.133 338.125C163.38 338.698 163.855 338.984 164.559 338.984C165.288 338.984 165.77 338.698 166.004 338.125C166.251 337.539 166.375 336.771 166.375 335.82V330.918H164.539V324.98H172.938V345H170.184L169.012 342.109C167.814 344.245 165.926 345.312 163.348 345.312ZM175.359 345V310.625H182V345H175.359ZM174.031 309.59V305.234L183.309 300.977V307.754L174.031 309.59ZM184.734 345V310.625H191.805L194.969 327.09V310.625H201.609V345H194.891L191.453 327.812V345H184.734ZM203.719 345L207.039 310.625H218.699L221.961 345H215.457L214.969 339.453H210.828L210.398 345H203.719ZM211.316 333.965H214.441L212.938 316.484H212.625L211.316 333.965ZM232.234 345.312C229.096 345.312 226.831 344.531 225.438 342.969C224.057 341.406 223.367 338.919 223.367 335.508V332.148H230.164V336.445C230.164 337.24 230.281 337.865 230.516 338.32C230.763 338.763 231.186 338.984 231.785 338.984C232.41 338.984 232.84 338.802 233.074 338.438C233.322 338.073 233.445 337.474 233.445 336.641C233.445 335.586 233.341 334.707 233.133 334.004C232.924 333.288 232.56 332.611 232.039 331.973C231.531 331.322 230.822 330.566 229.91 329.707L226.824 326.777C224.52 324.603 223.367 322.116 223.367 319.316C223.367 316.387 224.044 314.154 225.398 312.617C226.766 311.081 228.738 310.312 231.316 310.312C234.467 310.312 236.701 311.152 238.016 312.832C239.344 314.512 240.008 317.064 240.008 320.488H233.016V318.125C233.016 317.656 232.879 317.292 232.605 317.031C232.345 316.771 231.987 316.641 231.531 316.641C230.984 316.641 230.581 316.797 230.32 317.109C230.073 317.409 229.949 317.799 229.949 318.281C229.949 318.763 230.079 319.284 230.34 319.844C230.6 320.404 231.115 321.048 231.883 321.777L235.848 325.586C236.642 326.341 237.371 327.142 238.035 327.988C238.699 328.822 239.233 329.798 239.637 330.918C240.04 332.025 240.242 333.379 240.242 334.98C240.242 338.21 239.643 340.742 238.445 342.578C237.26 344.401 235.19 345.312 232.234 345.312Z" fill="#6BBF5B"/>
<rect x="30" y="138" width="300" height="100" fill="#1E1E1E"/>
<path d="M146.473 205V177.227H142.391V170.625H157.43V177.227H153.348V205H146.473ZM167.547 205.312C164.799 205.312 162.697 204.486 161.238 202.832C159.793 201.165 159.07 198.763 159.07 195.625V179.297C159.07 176.354 159.786 174.121 161.219 172.598C162.664 171.074 164.773 170.312 167.547 170.312C170.32 170.312 172.423 171.074 173.855 172.598C175.301 174.121 176.023 176.354 176.023 179.297V195.625C176.023 198.763 175.294 201.165 173.836 202.832C172.391 204.486 170.294 205.312 167.547 205.312ZM167.605 198.984C168.647 198.984 169.168 197.975 169.168 195.957V179.18C169.168 177.487 168.66 176.641 167.645 176.641C166.499 176.641 165.926 177.507 165.926 179.238V195.996C165.926 197.064 166.056 197.832 166.316 198.301C166.577 198.757 167.007 198.984 167.605 198.984ZM178.797 205V170.625H188.25C190.724 170.625 192.586 171.315 193.836 172.695C195.086 174.062 195.711 176.068 195.711 178.711V194.805C195.711 198.06 195.138 200.573 193.992 202.344C192.859 204.115 190.867 205 188.016 205H178.797ZM185.711 198.926H186.902C188.165 198.926 188.797 198.314 188.797 197.09V179.355C188.797 178.21 188.641 177.474 188.328 177.148C188.029 176.81 187.41 176.641 186.473 176.641H185.711V198.926ZM206.727 205.312C203.979 205.312 201.876 204.486 200.418 202.832C198.973 201.165 198.25 198.763 198.25 195.625V179.297C198.25 176.354 198.966 174.121 200.398 172.598C201.844 171.074 203.953 170.312 206.727 170.312C209.5 170.312 211.603 171.074 213.035 172.598C214.48 174.121 215.203 176.354 215.203 179.297V195.625C215.203 198.763 214.474 201.165 213.016 202.832C211.57 204.486 209.474 205.312 206.727 205.312ZM206.785 198.984C207.827 198.984 208.348 197.975 208.348 195.957V179.18C208.348 177.487 207.84 176.641 206.824 176.641C205.678 176.641 205.105 177.507 205.105 179.238V195.996C205.105 197.064 205.236 197.832 205.496 198.301C205.757 198.757 206.186 198.984 206.785 198.984Z" fill="#6BBF5B"/>
<path d="M62.5 88.875L62.5 40.125M46.25 88.875L46.25 40.125M78.75 88.875L78.75 40.125" stroke="#1E1E1E" stroke-width="4" stroke-linecap="round" stroke-linejoin="round"/>
<rect x="350" width="10" height="1920" fill="#1E1E1E"/>
<defs>
<clipPath id="clip0_36_17">
<rect width="45" height="45" fill="white" transform="translate(199 1116)"/>
</clipPath>
</defs>
</svg>
