<svg width="300" height="100" viewBox="0 0 300 100" fill="none" xmlns="http://www.w3.org/2000/svg">
<rect width="300" height="100" fill="#1E1E1E"/>
<path d="M116.473 67V39.2266H112.391V32.625H127.43V39.2266H123.348V67H116.473ZM137.547 67.3125C134.799 67.3125 132.697 66.4857 131.238 64.832C129.793 63.1654 129.07 60.763 129.07 57.625V41.2969C129.07 38.3542 129.786 36.1211 131.219 34.5977C132.664 33.0742 134.773 32.3125 137.547 32.3125C140.32 32.3125 142.423 33.0742 143.855 34.5977C145.301 36.1211 146.023 38.3542 146.023 41.2969V57.625C146.023 60.763 145.294 63.1654 143.836 64.832C142.391 66.4857 140.294 67.3125 137.547 67.3125ZM137.605 60.9844C138.647 60.9844 139.168 59.9753 139.168 57.957V41.1797C139.168 39.487 138.66 38.6406 137.645 38.6406C136.499 38.6406 135.926 39.5065 135.926 41.2383V57.9961C135.926 59.0638 136.056 59.832 136.316 60.3008C136.577 60.7565 137.007 60.9844 137.605 60.9844ZM148.797 67V32.625H158.25C160.724 32.625 162.586 33.3151 163.836 34.6953C165.086 36.0625 165.711 38.0677 165.711 40.7109V56.8047C165.711 60.0599 165.138 62.5729 163.992 64.3438C162.859 66.1146 160.867 67 158.016 67H148.797ZM155.711 60.9258H156.902C158.165 60.9258 158.797 60.3138 158.797 59.0898V41.3555C158.797 40.2096 158.641 39.474 158.328 39.1484C158.029 38.8099 157.41 38.6406 156.473 38.6406H155.711V60.9258ZM176.727 67.3125C173.979 67.3125 171.876 66.4857 170.418 64.832C168.973 63.1654 168.25 60.763 168.25 57.625V41.2969C168.25 38.3542 168.966 36.1211 170.398 34.5977C171.844 33.0742 173.953 32.3125 176.727 32.3125C179.5 32.3125 181.603 33.0742 183.035 34.5977C184.48 36.1211 185.203 38.3542 185.203 41.2969V57.625C185.203 60.763 184.474 63.1654 183.016 64.832C181.57 66.4857 179.474 67.3125 176.727 67.3125ZM176.785 60.9844C177.827 60.9844 178.348 59.9753 178.348 57.957V41.1797C178.348 39.487 177.84 38.6406 176.824 38.6406C175.678 38.6406 175.105 39.5065 175.105 41.2383V57.9961C175.105 59.0638 175.236 59.832 175.496 60.3008C175.757 60.7565 176.186 60.9844 176.785 60.9844Z" fill="#6BBF5B"/>
</svg>
