<svg width="300" height="100" viewBox="0 0 300 100" fill="none" xmlns="http://www.w3.org/2000/svg">
<rect width="300" height="100" fill="#1E1E1E"/>
<path d="M85.5234 67V32.625H92.5938L95.7578 49.0898V32.625H102.398V67H95.6797L92.2422 49.8125V67H85.5234ZM113.648 67.3125C110.901 67.3125 108.798 66.4857 107.34 64.832C105.895 63.1654 105.172 60.763 105.172 57.625V41.2969C105.172 38.3542 105.888 36.1211 107.32 34.5977C108.766 33.0742 110.875 32.3125 113.648 32.3125C116.422 32.3125 118.525 33.0742 119.957 34.5977C121.402 36.1211 122.125 38.3542 122.125 41.2969V57.625C122.125 60.763 121.396 63.1654 119.938 64.832C118.492 66.4857 116.396 67.3125 113.648 67.3125ZM113.707 60.9844C114.749 60.9844 115.27 59.9753 115.27 57.957V41.1797C115.27 39.487 114.762 38.6406 113.746 38.6406C112.6 38.6406 112.027 39.5065 112.027 41.2383V57.9961C112.027 59.0638 112.158 59.832 112.418 60.3008C112.678 60.7565 113.108 60.9844 113.707 60.9844ZM127.848 67V39.2266H123.766V32.625H138.805V39.2266H134.723V67H127.848ZM140.406 67V32.625H147.047V67H140.406ZM157.789 67.3125C155.302 67.3125 153.297 66.5378 151.773 64.9883C150.263 63.4388 149.508 61.2708 149.508 58.4844V42.625C149.508 39.2917 150.165 36.7396 151.48 34.9688C152.809 33.1979 154.964 32.3125 157.945 32.3125C159.573 32.3125 161.018 32.612 162.281 33.2109C163.557 33.8099 164.56 34.7083 165.289 35.9062C166.018 37.0911 166.383 38.5885 166.383 40.3984V46.3359H159.547V41.2578C159.547 40.2292 159.417 39.5391 159.156 39.1875C158.896 38.8229 158.492 38.6406 157.945 38.6406C157.307 38.6406 156.878 38.875 156.656 39.3438C156.435 39.7995 156.324 40.4115 156.324 41.1797V58.3867C156.324 59.3372 156.461 60.0078 156.734 60.3984C157.021 60.7891 157.424 60.9844 157.945 60.9844C158.531 60.9844 158.941 60.7435 159.176 60.2617C159.423 59.7799 159.547 59.1549 159.547 58.3867V52.1953H166.461V58.6992C166.461 61.7201 165.699 63.9141 164.176 65.2812C162.652 66.6354 160.523 67.3125 157.789 67.3125ZM168.453 67V32.625H175.094V67H168.453ZM176.891 67L180.211 32.625H191.871L195.133 67H188.629L188.141 61.4531H184L183.57 67H176.891ZM184.488 55.9648H187.613L186.109 38.4844H185.797L184.488 55.9648ZM205.406 67.3125C202.268 67.3125 200.003 66.5312 198.609 64.9688C197.229 63.4062 196.539 60.9193 196.539 57.5078V54.1484H203.336V58.4453C203.336 59.2396 203.453 59.8646 203.688 60.3203C203.935 60.763 204.358 60.9844 204.957 60.9844C205.582 60.9844 206.012 60.8021 206.246 60.4375C206.493 60.0729 206.617 59.474 206.617 58.6406C206.617 57.5859 206.513 56.707 206.305 56.0039C206.096 55.2878 205.732 54.6107 205.211 53.9727C204.703 53.3216 203.993 52.5664 203.082 51.707L199.996 48.7773C197.691 46.6029 196.539 44.1159 196.539 41.3164C196.539 38.3867 197.216 36.1536 198.57 34.6172C199.938 33.0807 201.91 32.3125 204.488 32.3125C207.639 32.3125 209.872 33.1523 211.188 34.832C212.516 36.5117 213.18 39.0638 213.18 42.4883H206.188V40.125C206.188 39.6562 206.051 39.2917 205.777 39.0312C205.517 38.7708 205.159 38.6406 204.703 38.6406C204.156 38.6406 203.753 38.7969 203.492 39.1094C203.245 39.4089 203.121 39.7995 203.121 40.2812C203.121 40.763 203.251 41.2839 203.512 41.8438C203.772 42.4036 204.286 43.0482 205.055 43.7773L209.02 47.5859C209.814 48.3411 210.543 49.1419 211.207 49.9883C211.871 50.8216 212.405 51.7982 212.809 52.918C213.212 54.0247 213.414 55.3789 213.414 56.9805C213.414 60.2096 212.815 62.7422 211.617 64.5781C210.432 66.401 208.362 67.3125 205.406 67.3125Z" fill="#6BBF5B"/>
</svg>
