<svg width="300" height="100" viewBox="0 0 300 100" fill="none" xmlns="http://www.w3.org/2000/svg">
<rect width="300" height="100" fill="#1E1E1E"/>
<path d="M93.5234 67V32.625H103.992L106.883 53.582L109.754 32.625H120.32V67H114.031V42.2344L110.086 67H103.914L99.7344 42.2344V67H93.5234ZM131.316 67.3125C128.452 67.3125 126.342 66.5117 124.988 64.9102C123.634 63.2956 122.957 60.9258 122.957 57.8008V32.625H129.637V57.5273C129.637 58.1003 129.669 58.6536 129.734 59.1875C129.799 59.7083 129.949 60.138 130.184 60.4766C130.418 60.8151 130.796 60.9844 131.316 60.9844C131.85 60.9844 132.234 60.8216 132.469 60.4961C132.703 60.1576 132.846 59.7214 132.898 59.1875C132.964 58.6536 132.996 58.1003 132.996 57.5273V32.625H139.676V57.8008C139.676 60.9258 138.999 63.2956 137.645 64.9102C136.29 66.5117 134.181 67.3125 131.316 67.3125ZM126.668 31.5898V27.2344L135.945 22.9766V29.7539L126.668 31.5898ZM150.477 67.3125C147.339 67.3125 145.073 66.5312 143.68 64.9688C142.299 63.4062 141.609 60.9193 141.609 57.5078V54.1484H148.406V58.4453C148.406 59.2396 148.523 59.8646 148.758 60.3203C149.005 60.763 149.428 60.9844 150.027 60.9844C150.652 60.9844 151.082 60.8021 151.316 60.4375C151.564 60.0729 151.688 59.474 151.688 58.6406C151.688 57.5859 151.583 56.707 151.375 56.0039C151.167 55.2878 150.802 54.6107 150.281 53.9727C149.773 53.3216 149.064 52.5664 148.152 51.707L145.066 48.7773C142.762 46.6029 141.609 44.1159 141.609 41.3164C141.609 38.3867 142.286 36.1536 143.641 34.6172C145.008 33.0807 146.98 32.3125 149.559 32.3125C152.71 32.3125 154.943 33.1523 156.258 34.832C157.586 36.5117 158.25 39.0638 158.25 42.4883H151.258V40.125C151.258 39.6562 151.121 39.2917 150.848 39.0312C150.587 38.7708 150.229 38.6406 149.773 38.6406C149.227 38.6406 148.823 38.7969 148.562 39.1094C148.315 39.4089 148.191 39.7995 148.191 40.2812C148.191 40.763 148.322 41.2839 148.582 41.8438C148.842 42.4036 149.357 43.0482 150.125 43.7773L154.09 47.5859C154.884 48.3411 155.613 49.1419 156.277 49.9883C156.941 50.8216 157.475 51.7982 157.879 52.918C158.283 54.0247 158.484 55.3789 158.484 56.9805C158.484 60.2096 157.885 62.7422 156.688 64.5781C155.503 66.401 153.432 67.3125 150.477 67.3125ZM160.477 67V32.625H167.117V67H160.477ZM177.859 67.3125C175.372 67.3125 173.367 66.5378 171.844 64.9883C170.333 63.4388 169.578 61.2708 169.578 58.4844V42.625C169.578 39.2917 170.236 36.7396 171.551 34.9688C172.879 33.1979 175.034 32.3125 178.016 32.3125C179.643 32.3125 181.089 32.612 182.352 33.2109C183.628 33.8099 184.63 34.7083 185.359 35.9062C186.089 37.0911 186.453 38.5885 186.453 40.3984V46.3359H179.617V41.2578C179.617 40.2292 179.487 39.5391 179.227 39.1875C178.966 38.8229 178.562 38.6406 178.016 38.6406C177.378 38.6406 176.948 38.875 176.727 39.3438C176.505 39.7995 176.395 40.4115 176.395 41.1797V58.3867C176.395 59.3372 176.531 60.0078 176.805 60.3984C177.091 60.7891 177.495 60.9844 178.016 60.9844C178.602 60.9844 179.012 60.7435 179.246 60.2617C179.493 59.7799 179.617 59.1549 179.617 58.3867V52.1953H186.531V58.6992C186.531 61.7201 185.77 63.9141 184.246 65.2812C182.723 66.6354 180.594 67.3125 177.859 67.3125ZM187.898 67L191.219 32.625H202.879L206.141 67H199.637L199.148 61.4531H195.008L194.578 67H187.898ZM195.496 55.9648H198.621L197.117 38.4844H196.805L195.496 55.9648Z" fill="#6BBF5B"/>
</svg>
