<svg width="300" height="100" viewBox="0 0 300 100" fill="none" xmlns="http://www.w3.org/2000/svg">
<rect width="300" height="100" fill="#1E1E1E"/>
<path d="M85.5312 67.3125C83.0443 67.3125 81.0391 66.5378 79.5156 64.9883C78.0052 63.4388 77.25 61.2708 77.25 58.4844V42.625C77.25 39.2917 77.9076 36.7396 79.2227 34.9688C80.5508 33.1979 82.7057 32.3125 85.6875 32.3125C87.3151 32.3125 88.7604 32.612 90.0234 33.2109C91.2995 33.8099 92.3021 34.7083 93.0312 35.9062C93.7604 37.0911 94.125 38.5885 94.125 40.3984V46.3359H87.2891V41.2578C87.2891 40.2292 87.1589 39.5391 86.8984 39.1875C86.638 38.8229 86.2344 38.6406 85.6875 38.6406C85.0495 38.6406 84.6198 38.875 84.3984 39.3438C84.1771 39.7995 84.0664 40.4115 84.0664 41.1797V58.3867C84.0664 59.3372 84.2031 60.0078 84.4766 60.3984C84.763 60.7891 85.1667 60.9844 85.6875 60.9844C86.2734 60.9844 86.6836 60.7435 86.918 60.2617C87.1654 59.7799 87.2891 59.1549 87.2891 58.3867V52.1953H94.2031V58.6992C94.2031 61.7201 93.4414 63.9141 91.918 65.2812C90.3945 66.6354 88.2656 67.3125 85.5312 67.3125ZM104.711 67.3125C101.964 67.3125 99.8607 66.4857 98.4023 64.832C96.957 63.1654 96.2344 60.763 96.2344 57.625V41.2969C96.2344 38.3542 96.9505 36.1211 98.3828 34.5977C99.8281 33.0742 101.938 32.3125 104.711 32.3125C107.484 32.3125 109.587 33.0742 111.02 34.5977C112.465 36.1211 113.188 38.3542 113.188 41.2969V57.625C113.188 60.763 112.458 63.1654 111 64.832C109.555 66.4857 107.458 67.3125 104.711 67.3125ZM104.77 60.9844C105.811 60.9844 106.332 59.9753 106.332 57.957V41.1797C106.332 39.487 105.824 38.6406 104.809 38.6406C103.663 38.6406 103.09 39.5065 103.09 41.2383V57.9961C103.09 59.0638 103.22 59.832 103.48 60.3008C103.741 60.7565 104.171 60.9844 104.77 60.9844ZM115.961 67V32.625H123.031L126.195 49.0898V32.625H132.836V67H126.117L122.68 49.8125V67H115.961ZM138.832 67V39.2266H134.75V32.625H149.789V39.2266H145.707V67H138.832ZM150.258 67L153.578 32.625H165.238L168.5 67H161.996L161.508 61.4531H157.367L156.938 67H150.258ZM157.855 55.9648H160.98L159.477 38.4844H159.164L157.855 55.9648ZM178.617 67.3125C176.13 67.3125 174.125 66.5378 172.602 64.9883C171.091 63.4388 170.336 61.2708 170.336 58.4844V42.625C170.336 39.2917 170.993 36.7396 172.309 34.9688C173.637 33.1979 175.792 32.3125 178.773 32.3125C180.401 32.3125 181.846 32.612 183.109 33.2109C184.385 33.8099 185.388 34.7083 186.117 35.9062C186.846 37.0911 187.211 38.5885 187.211 40.3984V46.3359H180.375V41.2578C180.375 40.2292 180.245 39.5391 179.984 39.1875C179.724 38.8229 179.32 38.6406 178.773 38.6406C178.135 38.6406 177.706 38.875 177.484 39.3438C177.263 39.7995 177.152 40.4115 177.152 41.1797V58.3867C177.152 59.3372 177.289 60.0078 177.562 60.3984C177.849 60.7891 178.253 60.9844 178.773 60.9844C179.359 60.9844 179.77 60.7435 180.004 60.2617C180.251 59.7799 180.375 59.1549 180.375 58.3867V52.1953H187.289V58.6992C187.289 61.7201 186.527 63.9141 185.004 65.2812C183.48 66.6354 181.352 67.3125 178.617 67.3125ZM192.543 67V39.2266H188.461V32.625H203.5V39.2266H199.418V67H192.543ZM213.617 67.3125C210.87 67.3125 208.767 66.4857 207.309 64.832C205.863 63.1654 205.141 60.763 205.141 57.625V41.2969C205.141 38.3542 205.857 36.1211 207.289 34.5977C208.734 33.0742 210.844 32.3125 213.617 32.3125C216.391 32.3125 218.493 33.0742 219.926 34.5977C221.371 36.1211 222.094 38.3542 222.094 41.2969V57.625C222.094 60.763 221.365 63.1654 219.906 64.832C218.461 66.4857 216.365 67.3125 213.617 67.3125ZM213.676 60.9844C214.717 60.9844 215.238 59.9753 215.238 57.957V41.1797C215.238 39.487 214.73 38.6406 213.715 38.6406C212.569 38.6406 211.996 39.5065 211.996 41.2383V57.9961C211.996 59.0638 212.126 59.832 212.387 60.3008C212.647 60.7565 213.077 60.9844 213.676 60.9844Z" fill="#6BBF5B"/>
</svg>
