<svg width="300" height="100" viewBox="0 0 300 100" fill="none" xmlns="http://www.w3.org/2000/svg">
<rect width="300" height="100" fill="#1E1E1E"/>
<path d="M126.531 67.3125C124.044 67.3125 122.039 66.5378 120.516 64.9883C119.005 63.4388 118.25 61.2708 118.25 58.4844V42.625C118.25 39.2917 118.908 36.7396 120.223 34.9688C121.551 33.1979 123.706 32.3125 126.688 32.3125C128.315 32.3125 129.76 32.612 131.023 33.2109C132.299 33.8099 133.302 34.7083 134.031 35.9062C134.76 37.0911 135.125 38.5885 135.125 40.3984V46.3359H128.289V41.2578C128.289 40.2292 128.159 39.5391 127.898 39.1875C127.638 38.8229 127.234 38.6406 126.688 38.6406C126.049 38.6406 125.62 38.875 125.398 39.3438C125.177 39.7995 125.066 40.4115 125.066 41.1797V58.3867C125.066 59.3372 125.203 60.0078 125.477 60.3984C125.763 60.7891 126.167 60.9844 126.688 60.9844C127.273 60.9844 127.684 60.7435 127.918 60.2617C128.165 59.7799 128.289 59.1549 128.289 58.3867V52.1953H135.203V58.6992C135.203 61.7201 134.441 63.9141 132.918 65.2812C131.395 66.6354 129.266 67.3125 126.531 67.3125ZM137.195 67V32.625H143.836V67H137.195ZM146.57 67V32.625H153.641L156.805 49.0898V32.625H163.445V67H156.727L153.289 49.8125V67H146.57ZM166.492 67V32.625H180.242V39.2656H173.484V45.9648H179.969V52.4297H173.484V60.3008H180.691V67H166.492Z" fill="#6BBF5B"/>
</svg>
