<svg width="300" height="100" viewBox="0 0 300 100" fill="none" xmlns="http://www.w3.org/2000/svg">
<rect width="300" height="100" fill="#1E1E1E"/>
<path d="M88.5234 67V32.625H97.6055C99.5065 32.625 101.01 33.0482 102.117 33.8945C103.237 34.7409 104.038 35.9453 104.52 37.5078C105.001 39.0703 105.242 40.9323 105.242 43.0938C105.242 45.1771 105.04 46.9935 104.637 48.543C104.233 50.0794 103.51 51.2708 102.469 52.1172C101.44 52.9635 99.9753 53.3867 98.0742 53.3867H95.2812V67H88.5234ZM95.2812 47.2148H95.6719C96.9479 47.2148 97.7292 46.8568 98.0156 46.1406C98.3021 45.4245 98.4453 44.3698 98.4453 42.9766C98.4453 41.6745 98.3021 40.6719 98.0156 39.9688C97.7422 39.2526 97.0846 38.8945 96.043 38.8945H95.2812V47.2148ZM105.906 67L109.227 32.625H120.887L124.148 67H117.645L117.156 61.4531H113.016L112.586 67H105.906ZM113.504 55.9648H116.629L115.125 38.4844H114.812L113.504 55.9648ZM133.348 67.3125C128.439 67.3125 125.984 63.7969 125.984 56.7656V41.9414C125.984 35.5221 128.797 32.3125 134.422 32.3125C136.74 32.3125 138.517 32.7812 139.754 33.7188C140.991 34.6432 141.844 35.9974 142.312 37.7812C142.781 39.5651 143.016 41.7396 143.016 44.3047H136.297V41.2578C136.297 40.5156 136.193 39.8971 135.984 39.4023C135.789 38.8945 135.372 38.6406 134.734 38.6406C133.94 38.6406 133.413 38.9076 133.152 39.4414C132.905 39.9753 132.781 40.5612 132.781 41.1992V57.8594C132.781 58.7839 132.898 59.5391 133.133 60.125C133.38 60.6979 133.855 60.9844 134.559 60.9844C135.288 60.9844 135.77 60.6979 136.004 60.125C136.251 59.5391 136.375 58.7708 136.375 57.8203V52.918H134.539V46.9805H142.938V67H140.184L139.012 64.1094C137.814 66.2448 135.926 67.3125 133.348 67.3125ZM145.359 67V32.625H152V67H145.359ZM144.031 31.5898V27.2344L153.309 22.9766V29.7539L144.031 31.5898ZM154.734 67V32.625H161.805L164.969 49.0898V32.625H171.609V67H164.891L161.453 49.8125V67H154.734ZM173.719 67L177.039 32.625H188.699L191.961 67H185.457L184.969 61.4531H180.828L180.398 67H173.719ZM181.316 55.9648H184.441L182.938 38.4844H182.625L181.316 55.9648ZM202.234 67.3125C199.096 67.3125 196.831 66.5312 195.438 64.9688C194.057 63.4062 193.367 60.9193 193.367 57.5078V54.1484H200.164V58.4453C200.164 59.2396 200.281 59.8646 200.516 60.3203C200.763 60.763 201.186 60.9844 201.785 60.9844C202.41 60.9844 202.84 60.8021 203.074 60.4375C203.322 60.0729 203.445 59.474 203.445 58.6406C203.445 57.5859 203.341 56.707 203.133 56.0039C202.924 55.2878 202.56 54.6107 202.039 53.9727C201.531 53.3216 200.822 52.5664 199.91 51.707L196.824 48.7773C194.52 46.6029 193.367 44.1159 193.367 41.3164C193.367 38.3867 194.044 36.1536 195.398 34.6172C196.766 33.0807 198.738 32.3125 201.316 32.3125C204.467 32.3125 206.701 33.1523 208.016 34.832C209.344 36.5117 210.008 39.0638 210.008 42.4883H203.016V40.125C203.016 39.6562 202.879 39.2917 202.605 39.0312C202.345 38.7708 201.987 38.6406 201.531 38.6406C200.984 38.6406 200.581 38.7969 200.32 39.1094C200.073 39.4089 199.949 39.7995 199.949 40.2812C199.949 40.763 200.079 41.2839 200.34 41.8438C200.6 42.4036 201.115 43.0482 201.883 43.7773L205.848 47.5859C206.642 48.3411 207.371 49.1419 208.035 49.9883C208.699 50.8216 209.233 51.7982 209.637 52.918C210.04 54.0247 210.242 55.3789 210.242 56.9805C210.242 60.2096 209.643 62.7422 208.445 64.5781C207.26 66.401 205.19 67.3125 202.234 67.3125Z" fill="#6BBF5B"/>
</svg>
