<svg width="300" height="100" viewBox="0 0 300 100" fill="none" xmlns="http://www.w3.org/2000/svg">
<rect width="300" height="100" fill="#1E1E1E"/>
<path d="M102.613 67.3125C97.7044 67.3125 95.25 63.7969 95.25 56.7656V41.9414C95.25 35.5221 98.0625 32.3125 103.688 32.3125C106.005 32.3125 107.783 32.7812 109.02 33.7188C110.257 34.6432 111.109 35.9974 111.578 37.7812C112.047 39.5651 112.281 41.7396 112.281 44.3047H105.562V41.2578C105.562 40.5156 105.458 39.8971 105.25 39.4023C105.055 38.8945 104.638 38.6406 104 38.6406C103.206 38.6406 102.678 38.9076 102.418 39.4414C102.171 39.9753 102.047 40.5612 102.047 41.1992V57.8594C102.047 58.7839 102.164 59.5391 102.398 60.125C102.646 60.6979 103.121 60.9844 103.824 60.9844C104.553 60.9844 105.035 60.6979 105.27 60.125C105.517 59.5391 105.641 58.7708 105.641 57.8203V52.918H103.805V46.9805H112.203V67H109.449L108.277 64.1094C107.079 66.2448 105.191 67.3125 102.613 67.3125ZM114 67L117.32 32.625H128.98L132.242 67H125.738L125.25 61.4531H121.109L120.68 67H114ZM121.598 55.9648H124.723L123.219 38.4844H122.906L121.598 55.9648ZM134.352 67V32.625H144.82L147.711 53.582L150.582 32.625H161.148V67H154.859V42.2344L150.914 67H144.742L140.562 42.2344V67H134.352ZM163.883 67V32.625H170.523V67H163.883ZM173.258 67V32.625H180.328L183.492 49.0898V32.625H190.133V67H183.414L179.977 49.8125V67H173.258ZM200.27 67.3125C195.361 67.3125 192.906 63.7969 192.906 56.7656V41.9414C192.906 35.5221 195.719 32.3125 201.344 32.3125C203.661 32.3125 205.439 32.7812 206.676 33.7188C207.913 34.6432 208.766 35.9974 209.234 37.7812C209.703 39.5651 209.938 41.7396 209.938 44.3047H203.219V41.2578C203.219 40.5156 203.115 39.8971 202.906 39.4023C202.711 38.8945 202.294 38.6406 201.656 38.6406C200.862 38.6406 200.335 38.9076 200.074 39.4414C199.827 39.9753 199.703 40.5612 199.703 41.1992V57.8594C199.703 58.7839 199.82 59.5391 200.055 60.125C200.302 60.6979 200.777 60.9844 201.48 60.9844C202.21 60.9844 202.691 60.6979 202.926 60.125C203.173 59.5391 203.297 58.7708 203.297 57.8203V52.918H201.461V46.9805H209.859V67H207.105L205.934 64.1094C204.736 66.2448 202.848 67.3125 200.27 67.3125Z" fill="#6BBF5B"/>
</svg>
