<svg width="256" height="19" viewBox="0 0 256 19" fill="none" xmlns="http://www.w3.org/2000/svg">
<path d="M2.82955 18H0.613636L7.02273 0.545454H9.20455L15.6136 18H13.3977L8.18182 3.30682H8.04545L2.82955 18ZM3.64773 11.1818H12.5795V13.0568H3.64773V11.1818ZM15.0511 0.545454H17.4716L22.3125 8.69318H22.517L27.358 0.545454H29.7784L23.4716 10.8068V18H21.358V10.8068L15.0511 0.545454ZM43.9666 0.545454H46.0803V12.1023C46.0803 13.2955 45.799 14.3608 45.2365 15.2983C44.6797 16.2301 43.8928 16.9659 42.8757 17.5057C41.8587 18.0398 40.6655 18.3068 39.2962 18.3068C37.9268 18.3068 36.7337 18.0398 35.7166 17.5057C34.6996 16.9659 33.9098 16.2301 33.3473 15.2983C32.7905 14.3608 32.5121 13.2955 32.5121 12.1023V0.545454H34.6257V11.9318C34.6257 12.7841 34.8132 13.5426 35.1882 14.2074C35.5632 14.8665 36.0973 15.3864 36.7905 15.767C37.4893 16.142 38.3246 16.3295 39.2962 16.3295C40.2678 16.3295 41.103 16.142 41.8018 15.767C42.5007 15.3864 43.0348 14.8665 43.4041 14.2074C43.7791 13.5426 43.9666 12.7841 43.9666 11.9318V0.545454ZM55.6875 18H50.3011V0.545454H55.9261C57.6193 0.545454 59.0682 0.894886 60.2727 1.59375C61.4773 2.28693 62.4006 3.28409 63.0426 4.58523C63.6847 5.88068 64.0057 7.43182 64.0057 9.23864C64.0057 11.0568 63.6818 12.6222 63.0341 13.9347C62.3864 15.2415 61.4432 16.2472 60.2045 16.9517C58.9659 17.6506 57.4602 18 55.6875 18ZM52.4148 16.125H55.5511C56.9943 16.125 58.1903 15.8466 59.1392 15.2898C60.0881 14.733 60.7955 13.9403 61.2614 12.9119C61.7273 11.8835 61.9602 10.6591 61.9602 9.23864C61.9602 7.82955 61.7301 6.61648 61.2699 5.59943C60.8097 4.5767 60.1222 3.79261 59.2074 3.24716C58.2926 2.69602 57.1534 2.42045 55.7898 2.42045H52.4148V16.125ZM67.4467 18H65.2308L71.6399 0.545454H73.8217L80.2308 18H78.0149L72.799 3.30682H72.6626L67.4467 18ZM68.2649 11.1818H77.1967V13.0568H68.2649V11.1818ZM96.7905 0.545454V18H94.745L85.2337 4.29545H85.0632V18H82.9496V0.545454H84.995L94.5405 14.2841H94.7109V0.545454H96.7905ZM115.747 9.27273C115.747 11.1136 115.415 12.7045 114.75 14.0455C114.085 15.3864 113.173 16.4205 112.014 17.1477C110.855 17.875 109.531 18.2386 108.043 18.2386C106.554 18.2386 105.23 17.875 104.071 17.1477C102.912 16.4205 102 15.3864 101.335 14.0455C100.67 12.7045 100.338 11.1136 100.338 9.27273C100.338 7.43182 100.67 5.84091 101.335 4.5C102 3.15909 102.912 2.125 104.071 1.39773C105.23 0.670454 106.554 0.306818 108.043 0.306818C109.531 0.306818 110.855 0.670454 112.014 1.39773C113.173 2.125 114.085 3.15909 114.75 4.5C115.415 5.84091 115.747 7.43182 115.747 9.27273ZM113.702 9.27273C113.702 7.76136 113.449 6.4858 112.943 5.44602C112.443 4.40625 111.764 3.61932 110.906 3.08523C110.054 2.55114 109.099 2.28409 108.043 2.28409C106.986 2.28409 106.028 2.55114 105.17 3.08523C104.318 3.61932 103.639 4.40625 103.134 5.44602C102.634 6.4858 102.384 7.76136 102.384 9.27273C102.384 10.7841 102.634 12.0597 103.134 13.0994C103.639 14.1392 104.318 14.9261 105.17 15.4602C106.028 15.9943 106.986 16.2614 108.043 16.2614C109.099 16.2614 110.054 15.9943 110.906 15.4602C111.764 14.9261 112.443 14.1392 112.943 13.0994C113.449 12.0597 113.702 10.7841 113.702 9.27273ZM128.847 4.90909C128.744 4.04545 128.33 3.375 127.602 2.89773C126.875 2.42045 125.983 2.18182 124.926 2.18182C124.153 2.18182 123.477 2.30682 122.898 2.55682C122.324 2.80682 121.875 3.15057 121.551 3.58807C121.233 4.02557 121.074 4.52273 121.074 5.07954C121.074 5.54545 121.185 5.94602 121.406 6.28125C121.634 6.6108 121.923 6.88636 122.276 7.10795C122.628 7.32386 122.997 7.50284 123.384 7.64489C123.77 7.78125 124.125 7.89205 124.449 7.97727L126.222 8.45455C126.676 8.57386 127.182 8.73864 127.739 8.94886C128.301 9.15909 128.838 9.44602 129.349 9.80966C129.866 10.1676 130.293 10.6278 130.628 11.1903C130.963 11.7528 131.131 12.4432 131.131 13.2614C131.131 14.2045 130.884 15.0568 130.389 15.8182C129.901 16.5795 129.185 17.1847 128.241 17.6335C127.304 18.0824 126.165 18.3068 124.824 18.3068C123.574 18.3068 122.491 18.1051 121.577 17.7017C120.668 17.2983 119.952 16.7358 119.429 16.0142C118.912 15.2926 118.619 14.4545 118.551 13.5H120.733C120.79 14.1591 121.011 14.7045 121.398 15.1364C121.79 15.5625 122.284 15.8807 122.881 16.0909C123.483 16.2955 124.131 16.3977 124.824 16.3977C125.631 16.3977 126.355 16.267 126.997 16.0057C127.639 15.7386 128.148 15.3693 128.523 14.8977C128.898 14.4205 129.085 13.8636 129.085 13.2273C129.085 12.6477 128.923 12.1761 128.599 11.8125C128.276 11.4489 127.849 11.1534 127.321 10.9261C126.793 10.6989 126.222 10.5 125.608 10.3295L123.46 9.71591C122.097 9.32386 121.017 8.7642 120.222 8.03693C119.426 7.30966 119.028 6.35795 119.028 5.18182C119.028 4.20454 119.293 3.35227 119.821 2.625C120.355 1.89205 121.071 1.32386 121.969 0.920454C122.872 0.511363 123.881 0.306818 124.994 0.306818C126.119 0.306818 127.119 0.508522 127.994 0.911931C128.869 1.30966 129.563 1.85511 130.074 2.54829C130.591 3.24148 130.864 4.02841 130.892 4.90909H128.847ZM142.072 18H139.856L146.265 0.545454H148.447L154.856 18H152.64L147.424 3.30682H147.288L142.072 18ZM142.89 11.1818H151.822V13.0568H142.89V11.1818ZM178.37 6H176.256C176.131 5.39205 175.913 4.85795 175.6 4.39773C175.293 3.9375 174.918 3.55114 174.475 3.23864C174.038 2.92045 173.552 2.68182 173.018 2.52273C172.484 2.36364 171.927 2.28409 171.347 2.28409C170.29 2.28409 169.333 2.55114 168.475 3.08523C167.623 3.61932 166.944 4.40625 166.438 5.44602C165.938 6.4858 165.688 7.76136 165.688 9.27273C165.688 10.7841 165.938 12.0597 166.438 13.0994C166.944 14.1392 167.623 14.9261 168.475 15.4602C169.333 15.9943 170.29 16.2614 171.347 16.2614C171.927 16.2614 172.484 16.1818 173.018 16.0227C173.552 15.8636 174.038 15.6278 174.475 15.3153C174.918 14.9972 175.293 14.608 175.6 14.1477C175.913 13.6818 176.131 13.1477 176.256 12.5455H178.37C178.211 13.4375 177.921 14.2358 177.501 14.9403C177.08 15.6449 176.558 16.2443 175.933 16.7386C175.308 17.2273 174.606 17.5994 173.827 17.8551C173.055 18.1108 172.228 18.2386 171.347 18.2386C169.859 18.2386 168.535 17.875 167.376 17.1477C166.217 16.4205 165.305 15.3864 164.64 14.0455C163.975 12.7045 163.643 11.1136 163.643 9.27273C163.643 7.43182 163.975 5.84091 164.64 4.5C165.305 3.15909 166.217 2.125 167.376 1.39773C168.535 0.670454 169.859 0.306818 171.347 0.306818C172.228 0.306818 173.055 0.434659 173.827 0.690341C174.606 0.946023 175.308 1.32102 175.933 1.81534C176.558 2.30398 177.08 2.90057 177.501 3.60511C177.921 4.30398 178.211 5.10227 178.37 6ZM181.786 18V0.545454H187.683C189.047 0.545454 190.166 0.778409 191.041 1.24432C191.916 1.70454 192.564 2.33807 192.984 3.14489C193.405 3.9517 193.615 4.86932 193.615 5.89773C193.615 6.92614 193.405 7.83807 192.984 8.63352C192.564 9.42898 191.919 10.054 191.05 10.5085C190.18 10.9574 189.07 11.1818 187.717 11.1818H182.945V9.27273H187.649C188.581 9.27273 189.331 9.13636 189.899 8.86364C190.473 8.59091 190.888 8.20455 191.143 7.70455C191.405 7.19886 191.536 6.59659 191.536 5.89773C191.536 5.19886 191.405 4.58807 191.143 4.06534C190.882 3.54261 190.464 3.1392 189.891 2.85511C189.317 2.56534 188.558 2.42045 187.615 2.42045H183.899V18H181.786ZM190.001 10.1591L194.297 18H191.842L187.615 10.1591H190.001ZM197.137 18V0.545454H207.671V2.42045H199.251V8.31818H207.126V10.1932H199.251V16.125H207.808V18H197.137ZM225.526 6H223.413C223.288 5.39205 223.069 4.85795 222.756 4.39773C222.45 3.9375 222.075 3.55114 221.631 3.23864C221.194 2.92045 220.708 2.68182 220.174 2.52273C219.64 2.36364 219.083 2.28409 218.504 2.28409C217.447 2.28409 216.489 2.55114 215.631 3.08523C214.779 3.61932 214.1 4.40625 213.594 5.44602C213.094 6.4858 212.844 7.76136 212.844 9.27273C212.844 10.7841 213.094 12.0597 213.594 13.0994C214.1 14.1392 214.779 14.9261 215.631 15.4602C216.489 15.9943 217.447 16.2614 218.504 16.2614C219.083 16.2614 219.64 16.1818 220.174 16.0227C220.708 15.8636 221.194 15.6278 221.631 15.3153C222.075 14.9972 222.45 14.608 222.756 14.1477C223.069 13.6818 223.288 13.1477 223.413 12.5455H225.526C225.367 13.4375 225.077 14.2358 224.657 14.9403C224.237 15.6449 223.714 16.2443 223.089 16.7386C222.464 17.2273 221.762 17.5994 220.984 17.8551C220.211 18.1108 219.384 18.2386 218.504 18.2386C217.015 18.2386 215.691 17.875 214.532 17.1477C213.373 16.4205 212.461 15.3864 211.796 14.0455C211.131 12.7045 210.799 11.1136 210.799 9.27273C210.799 7.43182 211.131 5.84091 211.796 4.5C212.461 3.15909 213.373 2.125 214.532 1.39773C215.691 0.670454 217.015 0.306818 218.504 0.306818C219.384 0.306818 220.211 0.434659 220.984 0.690341C221.762 0.946023 222.464 1.32102 223.089 1.81534C223.714 2.30398 224.237 2.90057 224.657 3.60511C225.077 4.30398 225.367 5.10227 225.526 6ZM228.942 18V0.545454H239.476V2.42045H231.055V8.31818H238.93V10.1932H231.055V16.125H239.612V18H228.942ZM243.286 18V0.545454H249.183C250.547 0.545454 251.666 0.778409 252.541 1.24432C253.416 1.70454 254.064 2.33807 254.484 3.14489C254.905 3.9517 255.115 4.86932 255.115 5.89773C255.115 6.92614 254.905 7.83807 254.484 8.63352C254.064 9.42898 253.419 10.054 252.55 10.5085C251.68 10.9574 250.57 11.1818 249.217 11.1818H244.445V9.27273H249.149C250.081 9.27273 250.831 9.13636 251.399 8.86364C251.973 8.59091 252.388 8.20455 252.643 7.70455C252.905 7.19886 253.036 6.59659 253.036 5.89773C253.036 5.19886 252.905 4.58807 252.643 4.06534C252.382 3.54261 251.964 3.1392 251.391 2.85511C250.817 2.56534 250.058 2.42045 249.115 2.42045H245.399V18H243.286ZM251.501 10.1591L255.797 18H253.342L249.115 10.1591H251.501Z" fill="white"/>
</svg>
