<svg width="285" height="30" viewBox="0 0 285 30" fill="none" xmlns="http://www.w3.org/2000/svg">
<path d="M0.2 29V0.631999H6.824L10.28 13.832V0.631999H16.952V29H10.376L6.872 17.24V29H0.2ZM3.464 26.744H3.704L3.848 14.6L3.704 3.368L7.88 14.36L13.448 26.744H13.592L13.736 14.6L13.592 2.744H13.352L13.208 14.6L13.4 26.264L8.552 14.648L3.608 2.744H3.464L3.32 14.6L3.464 26.744ZM27.8679 29.576C25.9479 29.576 24.3319 29.336 23.0199 28.856C21.7399 28.376 20.7639 27.496 20.0919 26.216C19.4519 24.904 19.1319 23.064 19.1319 20.696V6.68C19.1319 4.312 19.9319 2.648 21.5319 1.688C23.1319 0.695999 25.2439 0.199999 27.8679 0.199999C30.4919 0.199999 32.5399 0.695999 34.0119 1.688C35.5159 2.648 36.2679 4.312 36.2679 6.68V20.648C36.2679 23.048 35.9639 24.888 35.3559 26.168C34.7799 27.448 33.8679 28.344 32.6199 28.856C31.3719 29.336 29.7879 29.576 27.8679 29.576ZM26.1399 26.84H27.4359C27.6279 26.84 27.7719 26.824 27.8679 26.792C27.9319 26.824 28.0439 26.84 28.2039 26.84H29.3559C31.4039 26.84 32.4599 25.736 32.5239 23.528L32.7159 14.6L32.5239 5.336C32.4919 4.344 32.1559 3.64 31.5159 3.224C30.9079 2.776 30.0919 2.584 29.0679 2.648L27.8679 2.696L26.4279 2.648C25.4039 2.616 24.5719 2.808 23.9319 3.224C23.3239 3.64 23.0039 4.344 22.9719 5.336L22.7799 14.6L22.9719 23.528C23.0359 25.736 24.0919 26.84 26.1399 26.84ZM27.4359 26.696L26.8599 26.648H26.1399C24.1239 26.584 23.1319 25.544 23.1639 23.528L23.4039 14.552L23.1639 5.336C23.1319 4.408 23.4199 3.768 24.0279 3.416C24.6359 3.064 25.4359 2.872 26.4279 2.84L27.8679 2.792L29.0679 2.84C30.0599 2.872 30.8599 3.064 31.4679 3.416C32.0759 3.768 32.3639 4.408 32.3319 5.336L32.0919 14.552L32.3319 23.528C32.3639 25.544 31.3719 26.584 29.3559 26.648H28.6839L28.2039 26.696H27.4359ZM27.8679 25.16C28.1239 25.16 28.3159 25.048 28.4439 24.824C28.5719 24.664 28.6359 24.296 28.6359 23.72V6.296C28.6359 5.752 28.5719 5.368 28.4439 5.144C28.3159 4.952 28.1239 4.856 27.8679 4.856C27.6439 4.856 27.4519 4.952 27.2919 5.144C27.1639 5.368 27.0999 5.752 27.0999 6.296V23.72C27.0999 24.296 27.1639 24.664 27.2919 24.824C27.4199 25.048 27.6119 25.16 27.8679 25.16ZM45.6688 29V0.631999H53.3008V11.624H55.0288V0.631999H62.6608V29H55.0288V17.24H53.3008V29H45.6688ZM49.2688 26.744H49.4608L49.7008 14.696L54.0688 14.648L58.4368 14.696L58.6768 26.744H58.8688L59.0608 14.6L58.8208 2.744H58.6288L58.4368 14.504L54.0688 14.552L49.7008 14.504L49.5088 2.744H49.3168L49.0768 14.6L49.2688 26.744ZM64.019 29L68.099 0.631999H79.379L83.363 29H74.771L74.387 24.872H72.611L72.323 29H64.019ZM67.955 26.744H68.147L68.291 25.736C68.355 25.384 68.403 25 68.435 24.584L68.579 23.096L73.523 23.048L78.419 23.096L78.803 26.744H79.043L77.891 14.648L76.403 2.648L73.667 2.744L71.171 2.648L69.299 14.552L67.955 26.744ZM73.523 23L68.627 22.904L69.827 14.6L71.363 2.84L73.667 2.792L76.211 2.84L77.315 14.648L78.371 22.904L73.523 23ZM72.659 21.176H74.387L73.523 6.632L72.659 21.176ZM86.6705 29V17.24L81.3425 0.631999H88.8785L90.4145 6.584L90.8465 9.08L91.2785 6.584L92.8625 0.631999H99.7745L94.3025 17.672V29H86.6705ZM90.5105 26.744H90.6065L90.8465 17.576C90.8465 17.512 90.9425 17.192 91.1345 16.616C91.3265 16.008 91.5505 15.288 91.8065 14.456C92.0945 13.624 92.3665 12.808 92.6225 12.008C92.9105 11.176 93.1185 10.52 93.2465 10.04C93.5985 8.952 93.9665 7.816 94.3505 6.632C94.7345 5.416 95.1505 4.12 95.5985 2.744H95.4545L90.5585 16.904L85.7585 2.744H85.6145L87.9185 10.04C88.0785 10.52 88.2865 11.176 88.5425 12.008C88.7985 12.808 89.0545 13.64 89.3105 14.504C89.5985 15.336 89.8225 16.056 89.9825 16.664C90.1745 17.24 90.2705 17.544 90.2705 17.576L90.5105 26.744ZM107.45 29V0.631999H118.586C120.698 0.631999 122.218 1.08 123.146 1.976C124.106 2.872 124.586 4.04 124.586 5.48V9.8C124.586 11.176 124.298 12.408 123.722 13.496C123.178 14.584 122.138 15.304 120.602 15.656C121.37 15.72 121.978 15.96 122.426 16.376C122.874 16.792 123.306 17.56 123.722 18.68L126.362 29H117.866L115.418 16.424V29H107.45ZM116.57 15.08H117.626C118.618 15.08 119.37 14.728 119.882 14.024C120.426 13.32 120.794 12.424 120.986 11.336C121.21 10.248 121.322 9.128 121.322 7.976C121.322 5.928 121.034 4.52 120.458 3.752C119.882 2.952 118.842 2.584 117.338 2.648L115.802 2.696V2.792L117.338 2.84C118.362 2.872 119.114 3.048 119.594 3.368C120.106 3.688 120.426 4.216 120.554 4.952C120.714 5.688 120.794 6.696 120.794 7.976C120.794 8.904 120.73 9.912 120.602 11C120.474 12.056 120.186 12.968 119.738 13.736C119.29 14.472 118.586 14.872 117.626 14.936L116.57 14.984V15.08ZM111.338 26.744H111.53L111.77 14.6L111.578 2.744H111.386L111.146 14.6L111.338 26.744ZM115.418 13.64H115.994C116.442 13.64 116.714 13.288 116.81 12.584C116.938 11.848 117.002 10.792 117.002 9.416C117.002 8.52 116.986 7.768 116.954 7.16C116.954 6.552 116.938 6.072 116.906 5.72C116.874 5.016 116.618 4.664 116.138 4.664H115.418V13.64ZM121.37 26.744H121.754C121.626 26.264 121.45 25.528 121.226 24.536C121.002 23.544 120.746 22.488 120.458 21.368C120.17 20.216 119.834 19.176 119.45 18.248C119.066 17.32 118.618 16.664 118.106 16.28H118.058C118.538 16.664 118.938 17.288 119.258 18.152C119.578 18.984 119.85 19.928 120.074 20.984C120.298 22.008 120.506 23.032 120.698 24.056C120.922 25.08 121.146 25.976 121.37 26.744ZM127.231 29V0.631999H140.959V5.96H135.199V11.48H140.479V17.48H135.199V23.816H140.959V29H127.231ZM131.071 26.36L138.991 26.312V26.216L131.311 26.168L131.503 14.696L137.791 14.648V14.552L131.503 14.504L131.311 3.464L138.991 3.416V3.32L131.071 3.272L130.879 14.6L131.071 26.36ZM151.189 29.384C149.205 29.384 147.557 29.144 146.245 28.664C144.965 28.152 144.005 27.288 143.365 26.072C142.757 24.824 142.453 23.096 142.453 20.888V19.976H150.469V22.088C150.469 23.176 150.533 23.96 150.661 24.44C150.789 24.888 151.061 25.112 151.477 25.112C151.861 25.112 152.117 24.952 152.245 24.632C152.373 24.344 152.437 23.624 152.437 22.472C152.437 21.416 152.261 20.6 151.909 20.024C151.557 19.448 150.997 18.968 150.229 18.584C149.493 18.168 148.517 17.704 147.301 17.192C145.509 16.392 144.293 15.336 143.653 14.024C143.013 12.68 142.693 10.92 142.693 8.744C142.693 6.696 142.965 5.08 143.509 3.896C144.085 2.68 145.013 1.816 146.293 1.304C147.573 0.791998 149.301 0.535997 151.477 0.535997C157.301 0.535997 160.213 2.84 160.213 7.448V10.616H152.581V9.848C152.581 9.208 152.565 8.632 152.533 8.12C152.533 7.608 152.517 7.192 152.485 6.872C152.389 6.232 152.085 5.912 151.573 5.912C151.157 5.912 150.885 6.168 150.757 6.68C150.661 7.192 150.613 7.8 150.613 8.504C150.613 9.4 150.773 10.088 151.093 10.568C151.445 11.016 151.925 11.368 152.533 11.624C153.141 11.88 153.813 12.152 154.549 12.44C156.053 12.984 157.237 13.56 158.101 14.168C158.965 14.744 159.589 15.544 159.973 16.568C160.357 17.56 160.549 18.968 160.549 20.792C160.549 23.928 159.733 26.152 158.101 27.464C156.469 28.744 154.165 29.384 151.189 29.384ZM151.429 27.128C151.781 27.128 152.165 27.112 152.581 27.08C153.029 27.048 153.381 27 153.637 26.936C154.757 26.68 155.557 26.136 156.037 25.304C156.549 24.472 156.805 23.144 156.805 21.32C156.805 19.784 156.501 18.568 155.893 17.672C155.317 16.744 154.389 16.056 153.109 15.608L151.621 15.08L150.229 14.408C149.013 13.8 148.165 13.064 147.685 12.2C147.237 11.304 147.013 10.168 147.013 8.792C147.013 7.16 147.205 5.944 147.589 5.144C148.005 4.312 148.757 3.784 149.845 3.56C150.101 3.496 150.373 3.448 150.661 3.416C150.981 3.384 151.301 3.368 151.621 3.368C152.197 3.368 152.693 3.416 153.109 3.512C154.293 3.704 155.109 4.216 155.557 5.048C156.037 5.848 156.277 7.096 156.277 8.792H156.421C156.517 6.968 156.309 5.656 155.797 4.856C155.317 4.056 154.421 3.56 153.109 3.368C152.885 3.336 152.645 3.32 152.389 3.32C152.133 3.288 151.877 3.272 151.621 3.272C150.917 3.272 150.325 3.32 149.845 3.416C148.629 3.64 147.749 4.168 147.205 5C146.661 5.8 146.389 7.064 146.389 8.792C146.389 11.64 147.637 13.576 150.133 14.6L151.573 15.176L153.013 15.8C154.261 16.344 155.109 17.032 155.557 17.864C156.005 18.696 156.229 19.848 156.229 21.32C156.229 23.048 156.037 24.344 155.653 25.208C155.301 26.04 154.613 26.568 153.589 26.792C153.333 26.856 152.997 26.92 152.581 26.984C152.165 27.016 151.781 27.032 151.429 27.032C151.173 27.032 150.837 27.016 150.421 26.984C150.037 26.952 149.733 26.904 149.509 26.84C148.357 26.616 147.557 26.088 147.109 25.256C146.693 24.424 146.485 23.096 146.485 21.272H146.341C146.245 23.192 146.421 24.584 146.869 25.448C147.349 26.28 148.213 26.792 149.461 26.984C149.685 27.016 150.005 27.048 150.421 27.08C150.837 27.112 151.173 27.128 151.429 27.128ZM170.882 29.576C168.994 29.576 167.41 29.384 166.13 29C164.882 28.584 163.954 27.768 163.346 26.552C162.738 25.336 162.434 23.544 162.434 21.176V0.631999H170.066V23.48C170.066 24.024 170.13 24.408 170.258 24.632C170.418 24.824 170.626 24.92 170.882 24.92C171.138 24.92 171.33 24.824 171.458 24.632C171.618 24.408 171.698 24.024 171.698 23.48V0.631999H179.33V21.128C179.33 23.496 179.026 25.288 178.418 26.504C177.81 27.72 176.882 28.536 175.634 28.952C174.386 29.368 172.802 29.576 170.882 29.576ZM169.346 26.84H170.642C170.834 26.84 170.978 26.824 171.074 26.792C171.138 26.824 171.25 26.84 171.41 26.84H172.562C174.61 26.84 175.666 25.736 175.73 23.528L176.018 14.6L175.73 2.744H175.538L175.346 14.552L175.538 23.528C175.57 25.544 174.578 26.584 172.562 26.648H171.89C171.762 26.68 171.602 26.696 171.41 26.696H170.642L170.066 26.648H169.346C167.298 26.648 166.306 25.608 166.37 23.528L166.562 14.552L166.37 2.744H166.178L165.89 14.6L166.178 23.528C166.242 25.736 167.298 26.84 169.346 26.84ZM181.747 29V0.631999H189.283V23.816H194.515V29H181.747ZM185.347 26.36L192.307 26.312V26.216L185.587 26.168L185.779 14.6L185.587 2.744H185.347L185.155 14.6L185.347 26.36ZM197.058 29V5.96H192.978V0.631999H208.77V5.96H204.69V29H197.058ZM200.706 26.744H200.946L201.138 14.6L200.946 3.272L206.466 3.176V3.08L200.85 2.984L195.522 3.08V3.176L200.706 3.272L200.514 14.6L200.706 26.744ZM207.363 29L211.443 0.631999H222.723L226.707 29H218.115L217.731 24.872H215.955L215.667 29H207.363ZM211.299 26.744H211.491L211.635 25.736C211.699 25.384 211.747 25 211.779 24.584L211.923 23.096L216.867 23.048L221.763 23.096L222.147 26.744H222.387L221.235 14.648L219.747 2.648L217.011 2.744L214.515 2.648L212.643 14.552L211.299 26.744ZM216.867 23L211.971 22.904L213.171 14.6L214.707 2.84L217.011 2.792L219.555 2.84L220.659 14.648L221.715 22.904L216.867 23ZM216.003 21.176H217.731L216.867 6.632L216.003 21.176ZM228.059 29V0.631999H239.195C241.307 0.631999 242.827 1.08 243.755 1.976C244.715 2.872 245.195 4.04 245.195 5.48V23C245.195 25.272 244.555 26.84 243.275 27.704C242.027 28.568 240.283 29 238.043 29H228.059ZM231.803 26.744H231.995L232.139 14.696L231.995 2.648H231.803L231.659 14.696L231.803 26.744ZM236.651 26.84H238.091C240.203 26.84 241.259 25.736 241.259 23.528L241.403 14.6L241.259 5.336C241.259 4.344 240.939 3.656 240.299 3.272C239.659 2.856 238.827 2.648 237.803 2.648L236.171 2.696V2.792L237.803 2.84C238.795 2.84 239.579 3.032 240.155 3.416C240.763 3.768 241.067 4.408 241.067 5.336L240.923 14.552L241.067 23.528C241.067 25.608 240.075 26.648 238.091 26.648H237.323C237.195 26.68 237.067 26.696 236.939 26.696C236.843 26.696 236.747 26.696 236.651 26.696H236.027V26.792C236.155 26.824 236.363 26.84 236.651 26.84ZM236.027 25.16H236.747C237.003 25.16 237.195 25.064 237.323 24.872C237.483 24.648 237.563 24.264 237.563 23.72V6.296C237.563 5.752 237.483 5.384 237.323 5.192C237.195 4.968 237.003 4.856 236.747 4.856H236.027V25.16ZM255.868 29.576C253.948 29.576 252.332 29.336 251.02 28.856C249.74 28.376 248.764 27.496 248.092 26.216C247.452 24.904 247.132 23.064 247.132 20.696V6.68C247.132 4.312 247.932 2.648 249.532 1.688C251.132 0.695999 253.244 0.199999 255.868 0.199999C258.492 0.199999 260.54 0.695999 262.012 1.688C263.516 2.648 264.268 4.312 264.268 6.68V20.648C264.268 23.048 263.964 24.888 263.356 26.168C262.78 27.448 261.868 28.344 260.62 28.856C259.372 29.336 257.788 29.576 255.868 29.576ZM254.14 26.84H255.436C255.628 26.84 255.772 26.824 255.868 26.792C255.932 26.824 256.044 26.84 256.204 26.84H257.356C259.404 26.84 260.46 25.736 260.524 23.528L260.716 14.6L260.524 5.336C260.492 4.344 260.156 3.64 259.516 3.224C258.908 2.776 258.092 2.584 257.068 2.648L255.868 2.696L254.428 2.648C253.404 2.616 252.572 2.808 251.932 3.224C251.324 3.64 251.004 4.344 250.972 5.336L250.78 14.6L250.972 23.528C251.036 25.736 252.092 26.84 254.14 26.84ZM255.436 26.696L254.86 26.648H254.14C252.124 26.584 251.132 25.544 251.164 23.528L251.404 14.552L251.164 5.336C251.132 4.408 251.42 3.768 252.028 3.416C252.636 3.064 253.436 2.872 254.428 2.84L255.868 2.792L257.068 2.84C258.06 2.872 258.86 3.064 259.468 3.416C260.076 3.768 260.364 4.408 260.332 5.336L260.092 14.552L260.332 23.528C260.364 25.544 259.372 26.584 257.356 26.648H256.684L256.204 26.696H255.436ZM255.868 25.16C256.124 25.16 256.316 25.048 256.444 24.824C256.572 24.664 256.636 24.296 256.636 23.72V6.296C256.636 5.752 256.572 5.368 256.444 5.144C256.316 4.952 256.124 4.856 255.868 4.856C255.644 4.856 255.452 4.952 255.292 5.144C255.164 5.368 255.1 5.752 255.1 6.296V23.72C255.1 24.296 255.164 24.664 255.292 24.824C255.42 25.048 255.612 25.16 255.868 25.16ZM274.658 29.384C272.674 29.384 271.026 29.144 269.714 28.664C268.434 28.152 267.474 27.288 266.834 26.072C266.226 24.824 265.922 23.096 265.922 20.888V19.976H273.938V22.088C273.938 23.176 274.002 23.96 274.13 24.44C274.258 24.888 274.53 25.112 274.946 25.112C275.33 25.112 275.586 24.952 275.714 24.632C275.842 24.344 275.906 23.624 275.906 22.472C275.906 21.416 275.73 20.6 275.378 20.024C275.026 19.448 274.466 18.968 273.698 18.584C272.962 18.168 271.986 17.704 270.77 17.192C268.978 16.392 267.762 15.336 267.122 14.024C266.482 12.68 266.162 10.92 266.162 8.744C266.162 6.696 266.434 5.08 266.978 3.896C267.554 2.68 268.482 1.816 269.762 1.304C271.042 0.791998 272.77 0.535997 274.946 0.535997C280.77 0.535997 283.682 2.84 283.682 7.448V10.616H276.05V9.848C276.05 9.208 276.034 8.632 276.002 8.12C276.002 7.608 275.986 7.192 275.954 6.872C275.858 6.232 275.554 5.912 275.042 5.912C274.626 5.912 274.354 6.168 274.226 6.68C274.13 7.192 274.082 7.8 274.082 8.504C274.082 9.4 274.242 10.088 274.562 10.568C274.914 11.016 275.394 11.368 276.002 11.624C276.61 11.88 277.282 12.152 278.018 12.44C279.522 12.984 280.706 13.56 281.57 14.168C282.434 14.744 283.058 15.544 283.442 16.568C283.826 17.56 284.018 18.968 284.018 20.792C284.018 23.928 283.202 26.152 281.57 27.464C279.938 28.744 277.634 29.384 274.658 29.384ZM274.898 27.128C275.25 27.128 275.634 27.112 276.05 27.08C276.498 27.048 276.85 27 277.106 26.936C278.226 26.68 279.026 26.136 279.506 25.304C280.018 24.472 280.274 23.144 280.274 21.32C280.274 19.784 279.97 18.568 279.362 17.672C278.786 16.744 277.858 16.056 276.578 15.608L275.09 15.08L273.698 14.408C272.482 13.8 271.634 13.064 271.154 12.2C270.706 11.304 270.482 10.168 270.482 8.792C270.482 7.16 270.674 5.944 271.058 5.144C271.474 4.312 272.226 3.784 273.314 3.56C273.57 3.496 273.842 3.448 274.13 3.416C274.45 3.384 274.77 3.368 275.09 3.368C275.666 3.368 276.162 3.416 276.578 3.512C277.762 3.704 278.578 4.216 279.026 5.048C279.506 5.848 279.746 7.096 279.746 8.792H279.89C279.986 6.968 279.778 5.656 279.266 4.856C278.786 4.056 277.89 3.56 276.578 3.368C276.354 3.336 276.114 3.32 275.858 3.32C275.602 3.288 275.346 3.272 275.09 3.272C274.386 3.272 273.794 3.32 273.314 3.416C272.098 3.64 271.218 4.168 270.674 5C270.13 5.8 269.858 7.064 269.858 8.792C269.858 11.64 271.106 13.576 273.602 14.6L275.042 15.176L276.482 15.8C277.73 16.344 278.578 17.032 279.026 17.864C279.474 18.696 279.698 19.848 279.698 21.32C279.698 23.048 279.506 24.344 279.122 25.208C278.77 26.04 278.082 26.568 277.058 26.792C276.802 26.856 276.466 26.92 276.05 26.984C275.634 27.016 275.25 27.032 274.898 27.032C274.642 27.032 274.306 27.016 273.89 26.984C273.506 26.952 273.202 26.904 272.978 26.84C271.826 26.616 271.026 26.088 270.578 25.256C270.162 24.424 269.954 23.096 269.954 21.272H269.81C269.714 23.192 269.89 24.584 270.338 25.448C270.818 26.28 271.682 26.792 272.93 26.984C273.154 27.016 273.474 27.048 273.89 27.08C274.306 27.112 274.642 27.128 274.898 27.128Z" fill="white"/>
</svg>
