<svg width="702" height="129" viewBox="0 0 702 129" fill="none" xmlns="http://www.w3.org/2000/svg">
<rect x="1" y="1" width="700" height="127" rx="9" fill="#1E1E1E" stroke="#6BBF5B" stroke-width="2"/>
<path d="M242.408 79.384C240.424 79.384 238.776 79.144 237.464 78.664C236.184 78.152 235.224 77.288 234.584 76.072C233.976 74.824 233.672 73.096 233.672 70.888V69.976H241.688V72.088C241.688 73.176 241.752 73.96 241.88 74.44C242.008 74.888 242.28 75.112 242.696 75.112C243.08 75.112 243.336 74.952 243.464 74.632C243.592 74.344 243.656 73.624 243.656 72.472C243.656 71.416 243.48 70.6 243.128 70.024C242.776 69.448 242.216 68.968 241.448 68.584C240.712 68.168 239.736 67.704 238.52 67.192C236.728 66.392 235.512 65.336 234.872 64.024C234.232 62.68 233.912 60.92 233.912 58.744C233.912 56.696 234.184 55.08 234.728 53.896C235.304 52.68 236.232 51.816 237.512 51.304C238.792 50.792 240.52 50.536 242.696 50.536C248.52 50.536 251.432 52.84 251.432 57.448V60.616H243.8V59.848C243.8 59.208 243.784 58.632 243.752 58.12C243.752 57.608 243.736 57.192 243.704 56.872C243.608 56.232 243.304 55.912 242.792 55.912C242.376 55.912 242.104 56.168 241.976 56.68C241.88 57.192 241.832 57.8 241.832 58.504C241.832 59.4 241.992 60.088 242.312 60.568C242.664 61.016 243.144 61.368 243.752 61.624C244.36 61.88 245.032 62.152 245.768 62.44C247.272 62.984 248.456 63.56 249.32 64.168C250.184 64.744 250.808 65.544 251.192 66.568C251.576 67.56 251.768 68.968 251.768 70.792C251.768 73.928 250.952 76.152 249.32 77.464C247.688 78.744 245.384 79.384 242.408 79.384ZM242.648 77.128C243 77.128 243.384 77.112 243.8 77.08C244.248 77.048 244.6 77 244.856 76.936C245.976 76.68 246.776 76.136 247.256 75.304C247.768 74.472 248.024 73.144 248.024 71.32C248.024 69.784 247.72 68.568 247.112 67.672C246.536 66.744 245.608 66.056 244.328 65.608L242.84 65.08L241.448 64.408C240.232 63.8 239.384 63.064 238.904 62.2C238.456 61.304 238.232 60.168 238.232 58.792C238.232 57.16 238.424 55.944 238.808 55.144C239.224 54.312 239.976 53.784 241.064 53.56C241.32 53.496 241.592 53.448 241.88 53.416C242.2 53.384 242.52 53.368 242.84 53.368C243.416 53.368 243.912 53.416 244.328 53.512C245.512 53.704 246.328 54.216 246.776 55.048C247.256 55.848 247.496 57.096 247.496 58.792H247.64C247.736 56.968 247.528 55.656 247.016 54.856C246.536 54.056 245.64 53.56 244.328 53.368C244.104 53.336 243.864 53.32 243.608 53.32C243.352 53.288 243.096 53.272 242.84 53.272C242.136 53.272 241.544 53.32 241.064 53.416C239.848 53.64 238.968 54.168 238.424 55C237.88 55.8 237.608 57.064 237.608 58.792C237.608 61.64 238.856 63.576 241.352 64.6L242.792 65.176L244.232 65.8C245.48 66.344 246.328 67.032 246.776 67.864C247.224 68.696 247.448 69.848 247.448 71.32C247.448 73.048 247.256 74.344 246.872 75.208C246.52 76.04 245.832 76.568 244.808 76.792C244.552 76.856 244.216 76.92 243.8 76.984C243.384 77.016 243 77.032 242.648 77.032C242.392 77.032 242.056 77.016 241.64 76.984C241.256 76.952 240.952 76.904 240.728 76.84C239.576 76.616 238.776 76.088 238.328 75.256C237.912 74.424 237.704 73.096 237.704 71.272H237.56C237.464 73.192 237.64 74.584 238.088 75.448C238.568 76.28 239.432 76.792 240.68 76.984C240.904 77.016 241.224 77.048 241.64 77.08C242.056 77.112 242.392 77.128 242.648 77.128ZM262.101 79.576C260.213 79.576 258.629 79.384 257.349 79C256.101 78.584 255.173 77.768 254.565 76.552C253.957 75.336 253.653 73.544 253.653 71.176V50.632H261.285V73.48C261.285 74.024 261.349 74.408 261.477 74.632C261.637 74.824 261.845 74.92 262.101 74.92C262.357 74.92 262.549 74.824 262.677 74.632C262.837 74.408 262.917 74.024 262.917 73.48V50.632H270.549V71.128C270.549 73.496 270.245 75.288 269.637 76.504C269.029 77.72 268.101 78.536 266.853 78.952C265.605 79.368 264.021 79.576 262.101 79.576ZM260.565 76.84H261.861C262.053 76.84 262.197 76.824 262.293 76.792C262.357 76.824 262.469 76.84 262.629 76.84H263.781C265.829 76.84 266.885 75.736 266.949 73.528L267.237 64.6L266.949 52.744H266.757L266.565 64.552L266.757 73.528C266.789 75.544 265.797 76.584 263.781 76.648H263.109C262.981 76.68 262.821 76.696 262.629 76.696H261.861L261.285 76.648H260.565C258.517 76.648 257.525 75.608 257.589 73.528L257.781 64.552L257.589 52.744H257.397L257.109 64.6L257.397 73.528C257.461 75.736 258.517 76.84 260.565 76.84ZM278.918 79.48C277.062 79.48 275.558 78.92 274.406 77.8C273.286 76.68 272.726 74.664 272.726 71.752V56.776C272.726 54.408 273.494 52.744 275.03 51.784C276.566 50.792 278.614 50.296 281.174 50.296C283.734 50.296 285.814 50.792 287.414 51.784C289.046 52.744 289.862 54.408 289.862 56.776V61.096H282.47V56.296C282.47 55.752 282.374 55.384 282.182 55.192C281.99 54.968 281.734 54.856 281.414 54.856C281.094 54.856 280.838 54.968 280.646 55.192C280.454 55.384 280.358 55.752 280.358 56.296V73.72C280.358 74.264 280.454 74.648 280.646 74.872C280.838 75.064 281.094 75.16 281.414 75.16C281.734 75.16 281.99 75.064 282.182 74.872C282.374 74.648 282.47 74.264 282.47 73.72V68.344H281.27V64.072H289.862V79H284.102L283.43 76.024C283.174 76.792 282.678 77.56 281.942 78.328C281.238 79.096 280.23 79.48 278.918 79.48ZM279.926 76.84V76.744C278.87 76.84 278.118 76.472 277.67 75.64C277.254 74.776 277.062 73.688 277.094 72.376L277.19 64.936L277.046 56.632C277.014 55.416 277.318 54.488 277.958 53.848C278.63 53.176 279.798 52.84 281.462 52.84C283.094 52.84 284.198 53.16 284.774 53.8C285.35 54.408 285.654 55.24 285.686 56.296L285.734 59.368H285.83L285.878 56.296C285.91 55.176 285.606 54.296 284.966 53.656C284.358 52.984 283.19 52.648 281.462 52.648C279.734 52.648 278.55 53 277.91 53.704C277.27 54.376 276.918 55.352 276.854 56.632L276.614 64.936L276.902 72.52C276.966 73.8 277.19 74.872 277.574 75.736C277.99 76.6 278.774 76.968 279.926 76.84ZM286.454 76.744H286.646L286.79 66.136L283.238 66.184V66.28L284.63 66.328H286.358L286.454 76.744ZM291.903 79V50.632H305.631V55.96H299.871V61.48H305.151V67.48H299.871V73.816H305.631V79H291.903ZM295.743 76.36L303.663 76.312V76.216L295.983 76.168L296.175 64.696L302.463 64.648V64.552L296.175 64.504L295.983 53.464L303.663 53.416V53.32L295.743 53.272L295.551 64.6L295.743 76.36ZM307.653 79V50.632H318.789C320.901 50.632 322.421 51.08 323.349 51.976C324.309 52.872 324.789 54.04 324.789 55.48V59.8C324.789 61.176 324.501 62.408 323.925 63.496C323.381 64.584 322.341 65.304 320.805 65.656C321.573 65.72 322.181 65.96 322.629 66.376C323.077 66.792 323.509 67.56 323.925 68.68L326.565 79H318.069L315.621 66.424V79H307.653ZM316.773 65.08H317.829C318.821 65.08 319.573 64.728 320.085 64.024C320.629 63.32 320.997 62.424 321.189 61.336C321.413 60.248 321.525 59.128 321.525 57.976C321.525 55.928 321.237 54.52 320.661 53.752C320.085 52.952 319.045 52.584 317.541 52.648L316.005 52.696V52.792L317.541 52.84C318.565 52.872 319.317 53.048 319.797 53.368C320.309 53.688 320.629 54.216 320.757 54.952C320.917 55.688 320.997 56.696 320.997 57.976C320.997 58.904 320.933 59.912 320.805 61C320.677 62.056 320.389 62.968 319.941 63.736C319.493 64.472 318.789 64.872 317.829 64.936L316.773 64.984V65.08ZM311.541 76.744H311.733L311.973 64.6L311.781 52.744H311.589L311.349 64.6L311.541 76.744ZM315.621 63.64H316.197C316.645 63.64 316.917 63.288 317.013 62.584C317.141 61.848 317.205 60.792 317.205 59.416C317.205 58.52 317.189 57.768 317.157 57.16C317.157 56.552 317.141 56.072 317.109 55.72C317.077 55.016 316.821 54.664 316.341 54.664H315.621V63.64ZM321.573 76.744H321.957C321.829 76.264 321.653 75.528 321.429 74.536C321.205 73.544 320.949 72.488 320.661 71.368C320.373 70.216 320.037 69.176 319.653 68.248C319.269 67.32 318.821 66.664 318.309 66.28H318.261C318.741 66.664 319.141 67.288 319.461 68.152C319.781 68.984 320.053 69.928 320.277 70.984C320.501 72.008 320.709 73.032 320.901 74.056C321.125 75.08 321.349 75.976 321.573 76.744ZM327.434 79V50.632H335.066V79H327.434ZM331.034 76.744H331.226L331.466 64.6L331.274 52.744H331.082L330.842 64.6L331.034 76.744ZM337.466 79V50.632H348.602C350.714 50.632 352.234 51.08 353.162 51.976C354.122 52.872 354.602 54.04 354.602 55.48V59.8C354.602 61.176 354.314 62.408 353.738 63.496C353.194 64.584 352.154 65.304 350.618 65.656C351.386 65.72 351.994 65.96 352.442 66.376C352.89 66.792 353.322 67.56 353.738 68.68L356.378 79H347.882L345.434 66.424V79H337.466ZM346.586 65.08H347.642C348.634 65.08 349.386 64.728 349.898 64.024C350.442 63.32 350.81 62.424 351.002 61.336C351.226 60.248 351.338 59.128 351.338 57.976C351.338 55.928 351.05 54.52 350.474 53.752C349.898 52.952 348.858 52.584 347.354 52.648L345.818 52.696V52.792L347.354 52.84C348.378 52.872 349.13 53.048 349.61 53.368C350.122 53.688 350.442 54.216 350.57 54.952C350.73 55.688 350.81 56.696 350.81 57.976C350.81 58.904 350.746 59.912 350.618 61C350.49 62.056 350.202 62.968 349.754 63.736C349.306 64.472 348.602 64.872 347.642 64.936L346.586 64.984V65.08ZM341.354 76.744H341.546L341.786 64.6L341.594 52.744H341.402L341.162 64.6L341.354 76.744ZM345.434 63.64H346.01C346.458 63.64 346.73 63.288 346.826 62.584C346.954 61.848 347.018 60.792 347.018 59.416C347.018 58.52 347.002 57.768 346.97 57.16C346.97 56.552 346.954 56.072 346.922 55.72C346.89 55.016 346.634 54.664 346.154 54.664H345.434V63.64ZM351.386 76.744H351.77C351.642 76.264 351.466 75.528 351.242 74.536C351.018 73.544 350.762 72.488 350.474 71.368C350.186 70.216 349.85 69.176 349.466 68.248C349.082 67.32 348.634 66.664 348.122 66.28H348.074C348.554 66.664 348.954 67.288 349.274 68.152C349.594 68.984 349.866 69.928 350.09 70.984C350.314 72.008 350.522 73.032 350.714 74.056C350.938 75.08 351.162 75.976 351.386 76.744ZM364.466 79V50.632H375.602C377.714 50.632 379.234 51.08 380.162 51.976C381.122 52.872 381.602 54.04 381.602 55.48V60.184C381.602 61.656 381.426 63.016 381.074 64.264C380.754 65.48 380.178 66.456 379.346 67.192C378.546 67.896 377.426 68.248 375.986 68.248H372.434V79H364.466ZM372.578 66.232H374.498C375.458 66.232 376.194 65.864 376.706 65.128C377.218 64.392 377.554 63.432 377.714 62.248C377.906 61.032 378.002 59.768 378.002 58.456C378.002 57.272 377.938 56.264 377.81 55.432C377.714 54.568 377.378 53.896 376.802 53.416C376.258 52.936 375.33 52.68 374.018 52.648L372.482 52.696V52.792L374.018 52.84C375.234 52.84 376.066 53.064 376.514 53.512C376.994 53.928 377.266 54.584 377.33 55.48C377.426 56.344 377.474 57.432 377.474 58.744C377.474 59.832 377.426 60.952 377.33 62.104C377.234 63.224 376.978 64.168 376.562 64.936C376.146 65.704 375.458 66.088 374.498 66.088L372.578 66.136V66.232ZM368.354 76.744H368.546L368.786 64.6L368.594 52.744H368.402L368.162 64.6L368.354 76.744ZM372.434 64.12H373.01C373.394 64.12 373.65 63.768 373.778 63.064C373.842 62.712 373.89 62.248 373.922 61.672C373.986 61.064 374.018 60.312 374.018 59.416C374.018 58.52 374.002 57.768 373.97 57.16C373.97 56.552 373.954 56.072 373.922 55.72C373.89 55.016 373.634 54.664 373.154 54.664H372.434V64.12ZM381.082 79L385.162 50.632H396.442L400.426 79H391.834L391.45 74.872H389.674L389.386 79H381.082ZM385.018 76.744H385.21L385.354 75.736C385.418 75.384 385.466 75 385.498 74.584L385.642 73.096L390.586 73.048L395.482 73.096L395.866 76.744H396.106L394.954 64.648L393.466 52.648L390.73 52.744L388.234 52.648L386.362 64.552L385.018 76.744ZM390.586 73L385.69 72.904L386.89 64.6L388.426 52.84L390.73 52.792L393.273 52.84L394.378 64.648L395.434 72.904L390.586 73ZM389.722 71.176H391.45L390.586 56.632L389.722 71.176ZM407.73 79.48C405.874 79.48 404.37 78.92 403.218 77.8C402.098 76.68 401.538 74.664 401.538 71.752V56.776C401.538 54.408 402.306 52.744 403.842 51.784C405.378 50.792 407.426 50.296 409.986 50.296C412.546 50.296 414.626 50.792 416.226 51.784C417.858 52.744 418.674 54.408 418.674 56.776V61.096H411.282V56.296C411.282 55.752 411.186 55.384 410.994 55.192C410.802 54.968 410.546 54.856 410.226 54.856C409.906 54.856 409.65 54.968 409.458 55.192C409.266 55.384 409.17 55.752 409.17 56.296V73.72C409.17 74.264 409.266 74.648 409.458 74.872C409.65 75.064 409.906 75.16 410.226 75.16C410.546 75.16 410.802 75.064 410.994 74.872C411.186 74.648 411.282 74.264 411.282 73.72V68.344H410.082V64.072H418.674V79H412.914L412.242 76.024C411.986 76.792 411.49 77.56 410.754 78.328C410.05 79.096 409.042 79.48 407.73 79.48ZM408.738 76.84V76.744C407.682 76.84 406.93 76.472 406.482 75.64C406.066 74.776 405.874 73.688 405.906 72.376L406.002 64.936L405.858 56.632C405.826 55.416 406.13 54.488 406.77 53.848C407.442 53.176 408.61 52.84 410.274 52.84C411.906 52.84 413.01 53.16 413.586 53.8C414.162 54.408 414.466 55.24 414.498 56.296L414.546 59.368H414.642L414.69 56.296C414.722 55.176 414.418 54.296 413.778 53.656C413.17 52.984 412.002 52.648 410.274 52.648C408.546 52.648 407.362 53 406.722 53.704C406.082 54.376 405.73 55.352 405.666 56.632L405.426 64.936L405.714 72.52C405.778 73.8 406.002 74.872 406.386 75.736C406.802 76.6 407.586 76.968 408.738 76.84ZM415.266 76.744H415.458L415.602 66.136L412.05 66.184V66.28L413.442 66.328H415.17L415.266 76.744ZM420.716 79V50.632H428.348V79H420.716ZM424.316 76.744H424.508L424.748 64.6L424.556 52.744H424.364L424.124 64.6L424.316 76.744ZM430.747 79V50.632H437.371L440.827 63.832V50.632H447.499V79H440.923L437.419 67.24V79H430.747ZM434.011 76.744H434.251L434.395 64.6L434.251 53.368L438.427 64.36L443.995 76.744H444.139L444.283 64.6L444.139 52.744H443.899L443.755 64.6L443.947 76.264L439.099 64.648L434.155 52.744H434.011L433.867 64.6L434.011 76.744ZM448.863 79L452.943 50.632H464.223L468.207 79H459.615L459.231 74.872H457.455L457.167 79H448.863ZM452.799 76.744H452.991L453.135 75.736C453.199 75.384 453.247 75 453.279 74.584L453.423 73.096L458.367 73.048L463.263 73.096L463.647 76.744H463.887L462.735 64.648L461.247 52.648L458.511 52.744L456.015 52.648L454.143 64.552L452.799 76.744ZM458.367 73L453.471 72.904L454.671 64.6L456.207 52.84L458.511 52.792L461.055 52.84L462.159 64.648L463.215 72.904L458.367 73ZM457.503 71.176H459.231L458.367 56.632L457.503 71.176Z" fill="#6BBF5B"/>
</svg>
